<?xml version="1.0" encoding="UTF-8" standalone="no"?>
<!-- Created with Inkscape (http://www.inkscape.org/) -->

<svg
   width="18.935184mm"
   height="16.012241mm"
   viewBox="0 0 18.935184 16.012241"
   version="1.1"
   id="svg1"
   sodipodi:docname="elivagar-logo.svg"
   xmlns:inkscape="http://www.inkscape.org/namespaces/inkscape"
   xmlns:sodipodi="http://sodipodi.sourceforge.net/DTD/sodipodi-0.dtd"
   xmlns="http://www.w3.org/2000/svg"
   xmlns:svg="http://www.w3.org/2000/svg">
  <sodipodi:namedview
     id="namedview1"
     pagecolor="#ffffff"
     bordercolor="#666666"
     borderopacity="1.0"
     inkscape:showpageshadow="2"
     inkscape:pageopacity="0.0"
     inkscape:pagecheckerboard="0"
     inkscape:deskcolor="#d1d1d1"
     inkscape:document-units="mm"
     showgrid="false"
     inkscape:zoom="8.3501683"
     inkscape:cx="90.297581"
     inkscape:cy="66.825"
     inkscape:window-width="3840"
     inkscape:window-height="2116"
     inkscape:window-maximized="1"
     inkscape:current-layer="layer1" />
  <defs
     id="defs1" />
  <g
     inkscape:label="Layer 1"
     inkscape:groupmode="layer"
     id="layer1"
     transform="translate(-103.66667,-85.333332)">
    <path
       style="fill:#f0f8ff;fill-opacity:1;stroke-width:0.119015"
       d="m 112.95314,101.23438 c -0.2168,-0.25767 -0.23622,-0.48197 -0.071,-0.81977 0.166,-0.33929 0.0469,-0.841306 -0.17184,-0.724246 -0.22703,0.12151 -0.43129,0.425056 -0.43129,0.640936 0,0.25191 -0.0735,0.27259 -0.15352,0.0432 -0.13848,-0.397256 0.008,-0.644216 0.75213,-1.264586 0.68124,-0.56825 0.89402,-0.89671 0.80657,-1.24511 -0.0328,-0.1305 -0.0472,-0.11921 -0.29105,0.22808 -0.32444,0.46199 -0.67634,0.77841 -1.15985,1.04294 -0.26695,0.14604 -0.38982,0.24598 -0.41224,0.33531 -0.0657,0.26164 0.0222,0.732356 0.21451,1.148476 0.22564,0.48837 0.21757,0.53415 -0.0409,0.23214 -0.23335,-0.27261 -0.39902,-0.60445 -0.43684,-0.874966 -0.0156,-0.11148 -0.042,-0.23839 -0.0587,-0.28204 -0.0167,-0.0436 -0.0258,-0.0993 -0.0204,-0.12373 0.0132,-0.0587 -0.25719,0.13543 -0.38379,0.27552 -0.076,0.0841 -0.0929,0.160826 -0.0712,0.323086 0.0303,0.22605 -0.0275,0.28004 -0.11822,0.11045 -0.20074,-0.375066 0.007,-0.698706 0.79252,-1.233586 1.00232,-0.68267 1.07939,-0.79513 0.44174,-0.64461 -1.08296,0.25565 -1.76508,0.70335 -1.76508,1.15853 0,0.0448 -0.0238,0.0815 -0.0529,0.0815 -0.0828,0 -0.062,-0.36159 0.0323,-0.56031 0.18166,-0.38282 0.76563,-0.73459 1.69522,-1.02116 0.96431,-0.29728 1.28842,-0.63801 1.31014,-1.37732 0.0134,-0.45501 -0.0606,-0.40592 0.67823,-0.44999 0.62152,-0.0371 0.62152,-0.0371 0.62269,0.29735 0.002,0.76128 0.40644,1.20086 1.40057,1.52468 0.20365,0.0663 0.54879,0.20884 0.76698,0.31668 0.2182,0.10785 0.56765,0.26232 0.77656,0.34328 0.56132,0.21753 0.9617,0.61734 0.96783,0.96646 0.002,0.12242 -0.0913,0.0674 -0.15762,-0.0928 -0.12342,-0.29796 -1.00578,-0.80996 -1.14901,-0.66673 -0.083,0.083 0.11146,0.45508 0.38067,0.72862 0.16081,0.16339 0.29238,0.33538 0.29238,0.382186 0,0.11955 -0.0476,0.10617 -0.16831,-0.0474 -0.0573,-0.0729 -0.20582,-0.20238 -0.33004,-0.28785 -0.1599,-0.11001 -0.28256,-0.2633 -0.42006,-0.52498 -0.23275,-0.44293 -0.34331,-0.51904 -1.0834,-0.74594 -0.7974,-0.24446 -0.65846,0.003 0.35302,0.62774 0.84709,0.52353 1.07565,0.90268 0.84687,1.40482 -0.0996,0.21865 -0.14468,0.15528 -0.11234,-0.15799 0.0292,-0.28258 -0.29132,-0.76519 -0.50812,-0.76519 -0.1087,0 -0.10057,0.54815 0.0104,0.69818 0.12561,0.1699 0.0955,0.23866 -0.0615,0.14059 -0.0597,-0.0373 -0.11701,-0.0568 -0.12736,-0.0433 -0.0104,0.0135 -0.095,0.14597 -0.18815,0.2945 -0.34763,0.55443 -0.48101,0.56192 -0.22104,0.0124 0.24919,-0.52675 0.14554,-0.68934 -0.65185,-1.02251 -0.35512,-0.14838 -0.33957,0.2423 0.0176,0.44306 0.22519,0.12657 0.31687,0.24975 0.31687,0.42576 0,0.1522 -0.0874,0.13688 -0.12735,-0.0223 -0.0214,-0.0852 -0.11198,-0.17122 -0.25699,-0.244 -0.38175,-0.1916 -0.46185,-0.29518 -0.46312,-0.59897 -0.002,-0.3877 -0.36978,-0.67876 -0.49297,-0.38974 -0.0409,0.0958 -0.14958,0.26782 -0.24167,0.38229 -0.23919,0.29734 -0.20661,0.35134 0.31267,0.51801 0.74921,0.24046 0.87495,0.53254 0.43319,1.00618 -0.24765,0.26553 -0.34558,0.19146 -0.14233,-0.10765 0.24262,-0.35705 0.14836,-0.48756 -0.4498,-0.62272 -0.21809,-0.0493 -0.4582,-0.13314 -0.53359,-0.18635 -0.30547,-0.21563 -0.77895,0.57911 -0.5736,0.9628 0.10139,0.18945 0.0213,0.22346 -0.12276,0.0522 z m 0.61742,-1.751246 c 0.3404,-0.48019 0.2604,-0.6562 -0.14699,-0.32339 -0.37754,0.30842 -0.37754,0.30842 -0.35925,0.60978 0.0198,0.325846 0.10738,0.276286 0.50624,-0.28639 z m 2.56986,0.13657 c 0,-0.22716 -0.0579,-0.29208 -0.43828,-0.492 -0.4643,-0.24398 -0.85801,-0.62397 -1.11146,-1.07275 -0.19419,-0.34382 -0.19419,-0.34382 -0.19384,-0.0793 6.3e-4,0.53137 0.31224,0.91074 1.21462,1.4791 0.52518,0.33078 0.52896,0.33195 0.52896,0.16499 z m -2.70658,-7.50546 c 0.041,-1.40543 -0.53298,-2.42345 -0.85756,-1.52081 -0.189,0.52559 -0.46058,0.65778 -1.04415,0.50828 -0.43791,-0.11219 -0.4487,-0.1282 -0.29324,-0.43499 0.28337,-0.5592 0.60983,-0.72886 1.12206,-0.58314 0.15796,0.045 0.30021,0.0607 0.3161,0.0349 0.0505,-0.0818 -0.37643,-0.25869 -1.07224,-0.44435 -0.37103,-0.099 -0.74161,-0.20568 -0.82351,-0.23705 -0.33459,-0.12818 -0.4974,-0.0795 -0.61374,0.1835 -0.29185,0.65976 -0.58316,0.77884 -1.29275,0.52845 -0.46,-0.16233 -0.44409,-0.13054 -0.23039,-0.46046 0.43119,-0.66567 0.69342,-0.769 1.29856,-0.5117 0.38958,0.16565 0.43074,0.0518 0.0831,-0.2299 -0.29876,-0.24208 -0.29876,-0.24208 -0.73148,-0.21508 -0.67518,0.0421 -0.84734,-0.089 -1.11736,-0.85096 -0.17934,-0.50608 -0.17653,-0.50908 0.47845,-0.50992 0.70249,-0.001 0.93611,0.17707 1.08072,0.82327 0.0934,0.41718 0.74453,0.84537 1.52141,1.00044 0.22974,0.0459 -0.12435,-0.6793 -0.48335,-0.98987 -0.52158,-0.45122 -0.52359,-0.82938 -0.009,-1.6944 0.26123,-0.43913 0.2648,-0.43913 0.66971,0 0.65543,0.71082 0.67959,1.02427 0.13724,1.78067 -0.27767,0.38725 0.0453,0.84245 0.76851,1.08311 0.49103,0.1634 0.87662,0.41226 1.13899,0.7351 0.22729,0.27968 0.22729,0.27968 0.22729,-0.007 0,-0.48273 -0.25071,-0.78963 -0.68478,-0.83824 -0.55021,-0.0616 -0.69985,-0.26627 -0.76088,-1.04067 -0.0266,-0.33718 -0.0266,-0.33718 0.21597,-0.30394 0.66737,0.0915 0.96543,0.36738 1.00576,0.931 0.0648,0.9061 0.29519,0.71788 0.25767,-0.21054 -0.0434,-1.07559 -0.0316,-1.04045 -0.44445,-1.32238 -0.61912,-0.42285 -0.70305,-0.71616 -0.41778,-1.45993 0.22466,-0.58577 0.24447,-0.60266 0.4995,-0.42592 0.83457,0.57836 1.01696,1.00444 0.69837,1.63139 -0.26991,0.53114 -0.0716,1.05299 0.25357,0.66727 0.18384,-0.21808 0.22343,-0.30381 0.22368,-0.48436 0.001,-0.73856 0.34852,-1.05065 1.25597,-1.12792 0.44304,-0.0377 0.44081,-0.0422 0.31226,0.62146 -0.14636,0.75555 -0.35582,0.95954 -1.02679,0.99997 -0.61212,0.0369 -0.85911,0.39261 -0.85911,1.23729 0,0.41905 0.27993,0.22507 0.334,-0.23143 0.0629,-0.53101 0.31254,-0.75325 0.92381,-0.82241 0.46529,-0.0526 0.48252,-0.0395 0.42554,0.32386 -0.12052,0.76852 -0.32473,0.97497 -0.96441,0.97497 -0.39711,0 -0.39711,0 -0.52974,0.22631 -0.2587,0.44143 -0.23336,1.11315 0.0262,0.69326 0.12811,-0.20728 0.67887,-0.59213 1.05871,-0.73978 0.32748,-0.1273 0.32358,-0.12274 0.60669,-0.70945 0.35831,-0.74259 0.45361,-0.70616 0.20941,0.08 -0.0723,0.23274 -0.1318,0.42668 -0.13223,0.43099 -4.8e-4,0.004 0.18368,-0.038 0.40914,-0.0941 0.81524,-0.20259 1.08079,-0.40762 0.71579,-0.55264 -0.67653,-0.2688 -0.8227,-0.39476 -0.88097,-0.75917 -0.0309,-0.19331 0.0281,-0.76991 0.10455,-1.02193 0.0395,-0.13032 0.11576,-0.11742 0.52959,0.0896 0.69723,0.34883 0.87853,0.7049 0.68711,1.34948 -0.0467,0.15729 -0.0849,0.36177 -0.0849,0.45439 0,0.34899 -0.39854,0.62419 -1.29595,0.89487 -0.61787,0.18636 -1.07215,0.40401 -1.26616,0.60662 -0.22897,0.23912 0.0126,0.22416 0.47381,-0.0293 0.49568,-0.27246 0.81065,-0.18579 1.34281,0.3695 0.21983,0.22939 0.19461,0.27402 -0.28579,0.50572 -0.5555,0.2679 -0.77131,0.23877 -1.1457,-0.15468 -0.32361,-0.34009 -0.39519,-0.36624 -0.62714,-0.22923 -0.22419,0.13242 -0.29094,0.43977 -0.28657,1.3195 0.004,0.74645 0.004,0.74645 -0.4862,0.80666 -0.7648,0.094 -0.68742,0.16906 -0.66366,-0.64385 z"
       id="path90"
       sodipodi:nodetypes="cssssssssssssscsscssssssssccsscccsscssscssssssssssssscssssssssccssssssscsssssssccssssssscscscssssssssscssssssscssssscsssssssccscsccssscsssscsss" />
    <path
       style="fill:#00a3c4;fill-opacity:1;stroke-width:0.119015"
       d="m 105.87262,100.87029 c -0.51688,-0.63197 -0.55985,-1.086636 -0.1387,-1.467516 0.29948,-0.27086 0.34964,-0.78571 0.14314,-1.46925 -0.16569,-0.54847 -0.30358,-0.46426 -0.28614,0.17475 0.0186,0.68125 -0.19339,0.92342 -0.94837,1.08338 -0.55184,0.11691 -0.51596,0.14682 -0.4773,-0.39769 0.058,-0.81648 0.20741,-1.00941 0.86404,-1.11533 0.51446,-0.083 0.66791,-0.27755 0.72619,-0.92072 0.0567,-0.62566 -0.25176,-0.68916 -0.42472,-0.0874 -0.18976,0.66018 -0.32161,0.74858 -1.11656,0.74858 -0.63558,0 -0.61015,0.0225 -0.45528,-0.40411 0.31062,-0.85575 0.56397,-1.04316 1.20822,-0.89375 0.4128,0.0957 0.73572,-0.0263 1.03705,-0.39185 0.26346,-0.31962 -0.008,-0.41226 -0.29984,-0.10223 -0.35568,0.37821 -0.70341,0.36461 -1.14091,-0.0446 -0.31953,-0.29889 -0.32308,-0.27391 0.0719,-0.50757 0.46141,-0.27296 0.70257,-0.26973 1.00985,0.0135 0.2771,0.25542 0.53752,0.23095 0.92548,-0.087 0.30855,-0.25283 0.21171,-0.32368 -0.31399,-0.22973 -0.6404,0.11444 -0.89152,-0.0284 -1.15271,-0.65584 -0.23557,-0.56587 -0.22902,-0.59311 0.15319,-0.63747 0.84918,-0.0986 1.21164,0.11414 1.37437,0.80655 0.0968,0.41163 0.59685,0.35351 1.69073,-0.19648 1.07891,-0.54246 2.07639,-0.75425 4.99016,-1.05955 2.12546,-0.2227 2.92319,-0.6141 3.85339,-1.89063 0.12215,-0.16763 0.22816,-0.31263 0.23557,-0.32223 0.007,-0.01 0.11117,0.038 0.23056,0.1058 0.18488,0.10494 0.22434,0.11175 0.26595,0.0459 0.0421,-0.0667 0.0988,-0.0679 0.40903,-0.009 0.19809,0.0376 0.44604,0.0758 0.551,0.0847 0.10496,0.009 0.24386,0.0446 0.30868,0.0794 0.27472,0.14702 0.31705,-0.71987 0.0434,-0.88899 -0.1884,-0.11644 -0.3348,-0.14629 -0.3666,-0.0748 -0.16885,0.37991 -1.45729,0.33318 -1.47085,-0.0534 -6.3e-4,-0.022 -0.0728,-0.13871 -0.16009,-0.2592 -0.20529,-0.28338 -0.20917,-0.2719 0.14546,-0.43088 0.77017,-0.34526 1.06719,-0.28889 1.45118,0.27544 0.16389,0.24086 0.57207,0.38005 0.57207,0.19506 0,-0.22701 -0.30207,-0.60731 -0.66128,-0.83253 -0.289,-0.1812 -0.44322,-0.36239 -0.30845,-0.36239 0.0987,0 0.75716,0.40407 0.93006,0.57077 0.19836,0.19123 0.19836,0.19123 0.19836,-0.12552 0,-0.31676 0,-0.31676 -0.4357,-0.3751 -0.68083,-0.0911 -0.93959,-0.46079 -0.93959,-1.34225 0,-0.37212 0.0391,-0.38523 0.64642,-0.21683 0.63534,0.17617 0.83413,0.39972 0.83446,0.93834 1.1e-4,0.17721 0.0364,0.43904 0.0806,0.58185 0.12366,0.39925 0.10868,1.85728 -0.0258,2.50524 -0.15028,0.72442 -0.0846,0.67733 0.33167,-0.23784 0.38207,-0.83998 0.39042,-0.88978 0.22791,-1.36061 -0.25962,-0.75216 -0.18895,-0.98394 0.44578,-1.46222 0.50406,-0.37982 0.4932,-0.37756 0.59457,-0.1238 0.42663,1.06805 0.25699,1.65934 -0.55357,1.92953 -0.0257,0.009 -0.10789,0.23917 -0.18258,0.51241 -0.0747,0.27326 -0.18156,0.60364 -0.23753,0.7342 -0.056,0.13055 -0.0924,0.24674 -0.0809,0.25818 0.0549,0.0549 0.53868,-0.19031 0.55387,-0.28069 0.1338,-0.79663 0.44044,-1.05867 1.17753,-1.00636 0.7092,0.0503 0.71628,0.0585 0.50133,0.58135 -0.32365,0.78714 -0.53995,0.91257 -1.32442,0.76802 -0.37484,-0.0691 -0.88018,0.18585 -1.23428,0.62265 -0.75464,0.93084 -0.7275,0.86611 -0.36318,0.86611 0.27307,0 0.2838,-0.006 0.37415,-0.19835 0.36661,-0.78184 0.70157,-0.92881 1.59563,-0.70014 0.54138,0.13846 0.54508,0.14403 0.33894,0.51074 -0.49802,0.88597 -0.75746,1.01428 -1.53559,0.75942 -0.67901,-0.22239 -1.0044,-0.126 -1.79456,0.53158 -0.50901,0.4236 -0.17906,0.59193 0.50254,0.25638 0.6721,-0.33087 1.01492,-0.22591 1.61087,0.49319 0.17488,0.21101 0.31832,0.39776 0.31875,0.41499 0.002,0.10351 -0.89629,0.44316 -1.21579,0.45937 -0.50847,0.0258 -0.57214,-0.0251 -1.13725,-0.90921 -0.1121,-0.17537 -0.77827,-0.0512 -1.17216,0.21852 -0.80389,0.55044 -1.86717,0.94126 -2.9008,1.06623 -2.80864,0.33958 -3.21241,0.42255 -3.95194,0.81211 -1.1746,0.61872 -1.44166,2.29844 -0.52997,3.333496 0.0756,0.0858 0.0694,0.0926 -0.0854,0.0926 -0.273,0 -0.11771,0.20918 0.41896,0.56433 0.37485,0.24807 0.25801,0.2816 -0.51278,0.14719 -2.80637,-0.4894 -4.40405,-3.217066 -3.14322,-5.366326 0.17067,-0.29092 0.17067,-0.29092 -0.0484,-0.0793 -0.85488,0.82578 -0.81297,2.67292 0.0855,3.76941 0.30815,0.37606 0.14009,0.33292 -0.22361,-0.0574 -0.48678,-0.52241 -0.5798,-0.30083 -0.10744,0.25595 0.41683,0.49135 0.41127,0.707246 -0.0356,1.380056 -0.26816,0.40377 -0.27473,0.40484 -0.53486,0.0868 z"
       id="path91"
       sodipodi:nodetypes="csscssssssccssssscsscsssscccsccsccsssssssscsssscsssscsscscccsscsssssscsscssssscscsssscc" />
  </g>
</svg>
