<?xml version="1.0" encoding="UTF-8" standalone="no"?>
<svg
   width="98.217636mm"
   height="37.229145mm"
   viewBox="0 0 98.217636 37.229145"
   version="1.1"
   id="svg1"
   sodipodi:docname="kvakk.svg"
   xmlns:inkscape="http://www.inkscape.org/namespaces/inkscape"
   xmlns:sodipodi="http://sodipodi.sourceforge.net/DTD/sodipodi-0.dtd"
   xmlns="http://www.w3.org/2000/svg"
   xmlns:svg="http://www.w3.org/2000/svg">
  <defs
     id="defs1" />
  <sodipodi:namedview
     id="namedview1"
     pagecolor="#ffffff"
     bordercolor="#666666"
     borderopacity="1.0"
     inkscape:showpageshadow="2"
     inkscape:pageopacity="0.0"
     inkscape:pagecheckerboard="0"
     inkscape:deskcolor="#d1d1d1"
     inkscape:document-units="mm"
     showgrid="false"
     inkscape:zoom="3.783204"
     inkscape:cx="181.85644"
     inkscape:cy="96.611232"
     inkscape:window-width="3840"
     inkscape:window-height="2116"
     inkscape:window-maximized="1"
     inkscape:current-layer="g1" />
  <g
     id="g1"
     transform="translate(-4.3971874,-21.168753)">
    <path
       d="M 14.583265,48.331549 V 41.540854 L 4.3971874,31.354803 H 17.978579 c -6.790719,-6.7907 -5.658948,-10.18605 3.395312,-10.18605 l 6.790765,6.790696 h -6.790765 c 9.054261,9.05427 7.922491,13.581405 -3.395312,13.581405 v 3.395341 l 6.790763,3.395354"
       style="fill:#d07810;fill-opacity:1;stroke-width:10.186"
       id="path1"
       sodipodi:nodetypes="cccccccccc" />
    <path
       fill="#5d0a0a"
       d="m 95.977764,43.318947 c 0.228159,0.153902 0.530327,0.09223 0.708899,-0.160355 1.127699,-1.614702 1.787107,-3.691569 1.787107,-5.891653 0,-2.200084 -0.665499,-4.282533 -1.787107,-5.897537 -0.178572,-0.252599 -0.48074,-0.314203 -0.708899,-0.154168 -0.23406,0.160355 -0.271141,0.468372 -0.09204,0.727481 0.992128,1.460223 1.608515,3.334024 1.608515,5.324532 0,1.990505 -0.597771,3.888453 -1.608515,5.324528 -0.178952,0.25262 -0.141757,0.560614 0.09204,0.727154 m -2.483336,-1.682166 c 0.240228,0.159975 0.536248,0.09849 0.708614,-0.148019 0.813557,-1.133943 1.287864,-2.643691 1.287864,-4.221547 0,-1.583731 -0.468102,-3.093491 -1.287864,-4.22743 -0.178572,-0.240539 -0.468386,-0.302144 -0.708899,-0.141776 -0.23406,0.160354 -0.270875,0.462177 -0.08653,0.727481 0.671818,0.985657 1.090884,2.27995 1.090884,3.64173 0,1.362082 -0.406712,2.668456 -1.090884,3.642351 -0.178572,0.264993 -0.14802,0.566819 0.08653,0.727155 m -2.459177,-1.664487 c 0.209201,0.148019 0.511369,0.09849 0.690359,-0.141757 0.480475,-0.646996 0.76989,-1.596123 0.76989,-2.563823 0,-0.967382 -0.295583,-1.910019 -0.770156,-2.569704 -0.178572,-0.240228 -0.474573,-0.289757 -0.690358,-0.141757 -0.270857,0.178572 -0.30177,0.493133 -0.104373,0.764312 0.357543,0.480436 0.573044,1.213797 0.573044,1.947168 0,0.73336 -0.227874,1.46672 -0.578965,1.95367 -0.185214,0.264993 -0.154471,0.567123 0.109876,0.751939"
       id="path1-5"
       style="fill:#d07810;fill-opacity:1;stroke-width:0.309565"
       sodipodi:nodetypes="ccscccsccccscccsccccscccscc" />
    <path
       d="m 55.760454,56.997424 q 0,0.638812 -0.614243,1.007357 -0.589673,0.393116 -1.277624,0.393116 -2.751807,0 -6.56011,-2.899225 -3.243201,-2.45697 -6.437262,-6.289843 -2.923794,-3.513467 -4.225988,-6.216134 l -0.589673,0.221127 v 2.874655 q 0,1.277624 -0.638812,1.744448 -0.515964,0.368546 -1.916437,0.466825 -0.835369,0.04914 -2.653527,0.04914 v -0.663382 q 0.83537,-0.09828 1.056497,-0.515963 0.171988,-0.270267 0.171988,-1.203916 v -15.55262 q 0,-0.933649 -0.171988,-1.228485 -0.245697,-0.368546 -1.056497,-0.466824 v -0.687952 q 1.64617,0 2.481539,0.07371 1.375904,0.09828 1.941007,0.442255 0.78623,0.491394 0.78623,1.744448 V 42.52587 q 1.64617,-0.565103 2.899225,-1.326764 1.916436,-1.154776 1.916436,-2.235842 0,-0.319406 -0.221127,-0.909079 -0.221127,-0.614243 -0.221127,-0.933649 0,-0.442254 0.270267,-0.761661 0.294836,-0.343975 0.737091,-0.343975 0.540533,0 0.909078,0.417685 0.368546,0.393115 0.368546,0.933648 0,1.891867 -2.776376,3.882013 1.6216,5.085928 4.88937,9.729601 1.425043,2.014716 3.095782,3.710025 2.432401,2.506109 3.882013,2.506109 0.171988,0 0.343976,-0.04914 0.712521,-0.221127 1.154776,-0.638812 0.76166,-0.761661 1.277624,-0.761661 1.179346,0 1.179346,1.253056 z m -2.50613,-17.886742 q 0,2.235843 -1.375903,4.963079 -1.179345,2.309552 -2.972934,4.299698 H 47.775281 L 43.008759,35.720063 Q 42.591075,34.565287 41.632856,34.34416 v -0.761661 q 2.260413,0.02457 3.341479,0.343976 1.793589,0.540534 2.383261,2.137564 l 3.243201,8.746813 q 1.572461,-2.481539 1.572461,-4.07857 0,-0.83537 -1.081067,-1.695309 -1.056497,-0.85994 -1.056497,-1.597031 0,-1.203915 1.400473,-1.203915 0.982788,0 1.474182,1.007358 0.343975,0.76166 0.343975,1.867297 z m 12.579665,9.262777 q -2.309552,0 -3.169491,-0.294837 -1.449613,-0.491394 -2.088425,-2.211273 L 60.03554,44.344028 h -4.15228 l -0.319406,1.081067 q -0.515963,1.769018 -1.081067,2.309552 -0.687951,0.687951 -2.358691,0.687951 -0.343976,0 -0.8108,0 v -0.638812 q 1.474182,-0.466824 2.235843,-2.997503 l 2.702667,-8.967941 q 0.171988,-0.589673 0.614242,-1.547891 0.491394,-0.663382 2.604389,-0.663382 l 5.110497,12.653396 q 0.270267,0.663382 0.442255,0.909079 0.343976,0.466824 0.8108,0.491394 z m -6.093286,-4.815661 -2.162133,-5.061359 -1.474182,5.061359 z m 31.006952,13.439626 q 0,0.638812 -0.614242,1.007357 -0.589673,0.393116 -1.277624,0.393116 -2.751807,0 -6.56011,-2.899225 -3.243201,-2.45697 -6.437262,-6.289843 -2.923794,-3.513467 -4.225988,-6.216134 l -0.589673,0.221127 v 2.874655 q 0,1.277624 -0.638812,1.744448 -0.515964,0.368546 -1.916437,0.466825 -0.83537,0.04914 -2.653528,0.04914 v -0.663382 q 0.83537,-0.09828 1.056498,-0.515963 0.171987,-0.270267 0.171987,-1.203916 v -15.55262 q 0,-0.933649 -0.171987,-1.228485 Q 66.64478,28.815978 65.833979,28.7177 v -0.687952 q 1.64617,0 2.48154,0.07371 1.375903,0.09828 1.941006,0.442255 0.786231,0.491394 0.786231,1.744448 V 42.52587 q 1.64617,-0.565103 2.899225,-1.326764 1.916436,-1.154776 1.916436,-2.235842 0,-0.319406 -0.221127,-0.909079 -0.221127,-0.614243 -0.221127,-0.933649 0,-0.442254 0.270266,-0.761661 0.294837,-0.343975 0.737091,-0.343975 0.540534,0 0.909079,0.417685 0.368546,0.393115 0.368546,0.933648 0,1.891867 -2.776376,3.882013 1.6216,5.085928 4.88937,9.729601 1.425042,2.014716 3.095782,3.710025 2.4324,2.506109 3.882013,2.506109 0.171988,0 0.343976,-0.04914 0.712521,-0.221127 1.154775,-0.638812 0.761661,-0.761661 1.277625,-0.761661 1.179345,0 1.179345,1.253056 z m 11.867165,0 q 0,0.638812 -0.61425,1.007357 -0.58967,0.393116 -1.27762,0.393116 -2.751807,0 -6.560111,-2.899225 -3.2432,-2.45697 -6.437261,-6.289843 -2.923794,-3.513467 -4.225989,-6.216134 l -0.589672,0.221127 v 2.874655 q 0,1.277624 -0.638813,1.744448 -0.515963,0.368546 -1.916436,0.466825 -0.83537,0.04914 -2.653528,0.04914 v -0.663382 q 0.83537,-0.09828 1.056497,-0.515963 0.171988,-0.270267 0.171988,-1.203916 v -15.55262 q 0,-0.933649 -0.171988,-1.228485 Q 78.51194,28.815978 77.70114,28.7177 v -0.687952 q 1.64617,0 2.48154,0.07371 1.375903,0.09828 1.941006,0.442255 0.786231,0.491394 0.786231,1.744448 V 42.52587 q 1.64617,-0.565103 2.899224,-1.326764 1.916437,-1.154776 1.916437,-2.235842 0,-0.319406 -0.221127,-0.909079 -0.221128,-0.614243 -0.221128,-0.933649 0,-0.442254 0.270267,-0.761661 0.294836,-0.343975 0.737091,-0.343975 0.540533,0 0.909079,0.417685 0.368545,0.393115 0.368545,0.933648 0,1.891867 -2.776376,3.882013 1.621601,5.085928 4.889371,9.729601 1.425042,2.014716 3.095782,3.710025 2.4324,2.506109 3.882013,2.506109 0.171987,0 0.343975,-0.04914 0.712522,-0.221127 1.15478,-0.638812 0.76166,-0.761661 1.27762,-0.761661 1.17935,0 1.17935,1.253056 z"
       id="text1"
       style="font-size:24.5697px;line-height:1.25;font-family:Ayosmonika;-inkscape-font-specification:'Ayosmonika, Normal';text-align:center;text-anchor:middle;stroke-width:0.227851;fill:#d07810;fill-opacity:1"
       aria-label="kvakk" />
  </g>
</svg>
