<?xml version="1.0" encoding="UTF-8" standalone="no"?>
<!-- Created with Inkscape (http://www.inkscape.org/) -->

<svg
   width="210mm"
   height="297mm"
   viewBox="0 0 210 297"
   version="1.1"
   id="svg1"
   sodipodi:docname="elivagar.svg"
   xml:space="preserve"
   xmlns:inkscape="http://www.inkscape.org/namespaces/inkscape"
   xmlns:sodipodi="http://sodipodi.sourceforge.net/DTD/sodipodi-0.dtd"
   xmlns:xlink="http://www.w3.org/1999/xlink"
   xmlns="http://www.w3.org/2000/svg"
   xmlns:svg="http://www.w3.org/2000/svg"><sodipodi:namedview
     id="namedview1"
     pagecolor="#ffffff"
     bordercolor="#666666"
     borderopacity="1.0"
     inkscape:showpageshadow="2"
     inkscape:pageopacity="0.0"
     inkscape:pagecheckerboard="0"
     inkscape:deskcolor="#d1d1d1"
     inkscape:document-units="mm"
     showgrid="false"
     inkscape:zoom="6.0092172"
     inkscape:cx="286.06055"
     inkscape:cy="490.4965"
     inkscape:window-width="3840"
     inkscape:window-height="2116"
     inkscape:window-maximized="1"
     inkscape:current-layer="layer1" /><defs
     id="defs1"><linearGradient
       id="linearGradient91"
       inkscape:collect="always"><stop
         style="stop-color:#880808;stop-opacity:1;"
         offset="0"
         id="stop91" /><stop
         style="stop-color:#2c3335;stop-opacity:1;"
         offset="1"
         id="stop92" /></linearGradient><linearGradient
       inkscape:collect="always"
       xlink:href="#linearGradient91"
       id="linearGradient92"
       x1="77.769363"
       y1="172.13402"
       x2="84.25235"
       y2="155.24525"
       gradientUnits="userSpaceOnUse" /><linearGradient
       inkscape:collect="always"
       xlink:href="#linearGradient91"
       id="linearGradient93"
       gradientUnits="userSpaceOnUse"
       x1="77.769363"
       y1="172.13402"
       x2="84.25235"
       y2="155.24525"
       gradientTransform="translate(6.4301951,-112.62923)" /></defs><g
     inkscape:label="Layer 1"
     inkscape:groupmode="layer"
     id="layer1"><text
       xml:space="preserve"
       style="font-style:normal;font-variant:normal;font-weight:normal;font-stretch:normal;font-size:18.742px;line-height:1.25;font-family:Jomhuria;-inkscape-font-specification:'Jomhuria, Normal';font-variant-ligatures:normal;font-variant-caps:normal;font-variant-numeric:normal;font-variant-east-asian:normal;text-align:center;text-anchor:middle;fill:#1a2a3a;fill-opacity:1;stroke-width:1.27787"
       x="47.460999"
       y="55.928001"
       id="text7"><tspan
         sodipodi:role="line"
         id="tspan7"
         style="font-style:normal;font-variant:normal;font-weight:normal;font-stretch:normal;font-size:18.742px;font-family:Jomhuria;-inkscape-font-specification:'Jomhuria, Normal';font-variant-ligatures:normal;font-variant-caps:normal;font-variant-numeric:normal;font-variant-east-asian:normal;fill:#1a2a3a;fill-opacity:1;stroke-width:1.27787"
         x="47.460999"
         y="55.928001">Elivagar</tspan></text><text
       xml:space="preserve"
       style="font-style:normal;font-variant:normal;font-weight:normal;font-stretch:normal;font-size:18.742px;line-height:1.25;font-family:Jomhuria;-inkscape-font-specification:'Jomhuria, Normal';font-variant-ligatures:normal;font-variant-caps:normal;font-variant-numeric:normal;font-variant-east-asian:normal;text-align:center;text-anchor:middle;stroke-width:1.27787;fill:#1b2e21;fill-opacity:1"
       x="111.64203"
       y="167.9381"
       id="text21"><tspan
         sodipodi:role="line"
         id="tspan21"
         style="font-style:normal;font-variant:normal;font-weight:normal;font-stretch:normal;font-size:18.742px;font-family:Jomhuria;-inkscape-font-specification:'Jomhuria, Normal';font-variant-ligatures:normal;font-variant-caps:normal;font-variant-numeric:normal;font-variant-east-asian:normal;stroke-width:1.27787;fill:#1b2e21;fill-opacity:1"
         x="111.64203"
         y="167.9381">pbfhogg</tspan></text><text
       xml:space="preserve"
       style="font-style:normal;font-variant:normal;font-weight:normal;font-stretch:normal;font-size:18.742px;line-height:1.25;font-family:Jomhuria;-inkscape-font-specification:'Jomhuria, Normal';font-variant-ligatures:normal;font-variant-caps:normal;font-variant-numeric:normal;font-variant-east-asian:normal;text-align:center;text-anchor:middle;stroke-width:1.27787;fill:#043927;fill-opacity:1"
       x="184.02219"
       y="168.32666"
       id="text27"><tspan
         sodipodi:role="line"
         id="tspan27"
         style="font-style:normal;font-variant:normal;font-weight:normal;font-stretch:normal;font-size:18.742px;font-family:Jomhuria;-inkscape-font-specification:'Jomhuria, Normal';font-variant-ligatures:normal;font-variant-caps:normal;font-variant-numeric:normal;font-variant-east-asian:normal;stroke-width:1.27787;fill:#043927;fill-opacity:1"
         x="184.02219"
         y="168.32666">Nidhogg</tspan></text><path
       style="fill:#043927;stroke-width:0.0768932;fill-opacity:1"
       d="m 154.66673,171.99896 c -0.69856,-0.0361 -1.37237,-0.19892 -2.04448,-0.4939 -0.21843,-0.0959 -0.21359,-0.0974 -0.4362,0.13452 -0.14296,0.14893 -0.90298,0.29023 -0.90266,0.16782 7e-5,-0.0356 0.27866,-0.3815 0.4293,-0.53301 0.0896,-0.0902 0.15374,-0.17175 0.14241,-0.1813 -0.0114,-0.01 -0.11864,-0.0928 -0.23847,-0.18506 -2.32618,-1.79066 -1.974,-4.9857 0.67013,-6.0794 0.58448,-0.24176 0.86518,-0.27365 2.62346,-0.29796 1.65837,-0.0229 1.84833,-0.0408 2.34842,-0.22036 2.17554,-0.78127 2.01352,-3.52408 -0.24667,-4.17599 -0.51418,-0.1483 -1.40642,-0.18477 -1.53481,-0.0627 -0.0705,0.067 0.3978,0.38734 0.67302,0.46034 0.13385,0.0355 0.11908,0.0559 -0.0913,0.12626 -0.3537,0.11824 -0.81103,0.094 -1.17279,-0.0622 -0.27673,-0.11948 -0.27368,-0.0847 0.0247,0.28164 0.14679,0.18022 0.14608,0.18088 -0.10412,0.0964 -1.03072,-0.34784 -2.93391,0.54947 -2.87619,1.35607 0.011,0.15443 0.007,0.17565 -0.0288,0.16565 -0.0228,-0.006 -0.10492,-0.0292 -0.18245,-0.0509 -0.4186,-0.11703 -0.86614,-0.57249 -0.93778,-0.95438 -0.0226,-0.12047 -0.0184,-0.1218 0.1971,-0.0621 0.10372,0.0288 0.20908,0.0523 0.23413,0.0523 0.06,0 1.72935,-1.32323 1.70282,-1.34976 -0.0492,-0.0492 -2.18819,0.75431 -2.31698,0.87036 -0.0619,0.0558 -0.12241,0.20331 -0.14823,0.36127 -0.0163,0.0998 -0.0163,0.0998 -0.14435,-0.0256 -0.57059,-0.55864 -0.60149,-1.19636 -0.0778,-1.60667 0.15678,-0.12285 0.15678,-0.12285 0.17266,-0.0512 0.0653,0.29413 -0.004,0.30349 0.68184,-0.0924 0.57255,-0.33054 0.57255,-0.33054 0.56355,-0.64718 -0.009,-0.31665 -0.009,-0.31665 0.16661,-0.40287 1.0717,-0.52622 1.84248,-1.22436 2.49407,-2.25902 0.0581,-0.0923 0.0655,0.23187 0.0117,0.51262 -0.0801,0.41729 1.00048,-1.09601 1.28109,-1.79417 0.0682,-0.16967 0.0982,-0.0532 0.0991,0.38446 0.001,0.64091 -0.2619,1.32519 -0.75285,1.9575 -0.0723,0.0931 -0.0228,0.0817 0.23361,-0.0536 0.79353,-0.41863 1.51576,-1.10572 1.89295,-1.80085 0.13025,-0.24004 0.14388,-0.21395 0.12473,0.23862 -0.0209,0.4943 -0.16643,0.94803 -0.43245,1.34842 -0.0548,0.0824 -0.0553,0.0868 -0.008,0.0676 0.91495,-0.37372 1.72998,-0.46706 2.54516,-0.29147 0.13663,0.0294 0.13663,0.0294 -0.0384,0.0921 -0.24629,0.0881 -0.47507,0.24559 -0.59826,0.41186 -0.11483,0.155 -0.11341,0.16062 0.0515,0.20576 0.0634,0.0174 0.19031,0.0586 0.28194,0.0917 0.11015,0.0397 0.25297,0.0656 0.42149,0.0761 0.63403,0.0399 1.26077,0.26081 1.76035,0.62051 0.31986,0.2303 0.31964,0.2268 0.0142,0.2268 -0.27177,0 -0.42246,0.0471 -0.60479,0.18912 -0.062,0.0483 -0.062,0.0483 0.0437,0.16101 0.0581,0.062 0.14876,0.16804 0.2014,0.23561 0.0527,0.0676 0.13097,0.14108 0.17405,0.16336 0.63982,0.33087 1.25468,1.01245 1.43579,1.59164 0.0187,0.0596 0.0187,0.0596 -0.0798,-0.005 -0.30343,-0.20029 -0.78195,-0.20934 -0.72584,-0.0137 0.0136,0.0474 0.0416,0.21496 0.0622,0.37233 0.0306,0.23332 0.0523,0.31116 0.11749,0.42175 0.31704,0.5377 0.53562,1.75658 0.36513,2.03616 -0.0293,0.0479 -0.0313,0.0482 -0.032,0.004 -0.001,-0.0897 -0.16356,-0.35317 -0.28085,-0.45645 -0.19889,-0.17514 -0.19595,-0.17572 -0.2459,0.0496 -0.32837,1.4813 -1.49772,2.77518 -2.96927,3.28551 -0.82309,0.28546 -1.31443,0.33013 -3.66864,0.33359 -1.75558,0.003 -2.31678,0.25513 -2.49654,1.12349 -0.11251,0.5435 0.28953,1.43924 0.60065,1.33824 0.91554,-0.29722 1.40424,-0.90772 1.39888,-1.7475 -0.002,-0.35033 -0.002,-0.35033 0.76697,-0.3534 0.76922,-0.003 0.76922,-0.003 0.76569,0.36315 -0.008,0.85203 0.34528,1.32059 1.31288,1.74026 0.56032,0.24302 1.74726,-1.28332 1.99535,-2.5659 0.0273,-0.14096 0.0273,-0.14096 0.28946,-0.27469 0.42657,-0.21755 0.92259,-0.61923 1.2529,-1.0146 0.0816,-0.0976 0.12421,-0.13284 0.12414,-0.10252 -0.005,2.13245 -1.06648,4.34178 -2.62708,5.46692 -0.0846,0.061 -0.15787,0.11409 -0.16285,0.11802 -0.005,0.004 0.0995,0.11096 0.23227,0.23786 0.50416,0.48198 0.51317,0.54144 0.0821,0.54144 -0.37725,0 -0.37725,0 -0.51497,-0.1522 -0.29661,-0.32775 -0.29531,-0.3274 -0.6266,-0.17065 -0.78304,0.37047 -1.78671,0.55978 -2.71359,0.51183 z m -0.0984,-2.10057 c 0.23865,-0.62066 0.20685,-0.96134 -0.0644,-0.69008 -0.22236,0.22236 -0.49389,0.41615 -0.73497,0.52455 -0.17545,0.0789 -0.1719,0.076 -0.12671,0.10452 0.0973,0.0615 0.77103,0.25949 0.83227,0.24459 0.0141,-0.003 0.0563,-0.086 0.0938,-0.18358 z m 1.79006,0.12687 c 0.23212,-0.0583 0.51348,-0.16674 0.49791,-0.19192 -0.008,-0.0129 -0.0743,-0.0537 -0.1473,-0.0907 -0.32476,-0.16418 -0.63666,-0.40364 -0.84386,-0.64786 -0.15314,-0.18052 -0.15544,0.16201 -0.005,0.642 0.12515,0.39745 0.10651,0.38664 0.49757,0.28844 z m -3.3672,-10.83906 c 0.39399,-0.19276 0.63441,-0.72385 0.26042,-0.57526 -0.5117,0.2033 -0.84041,0.45956 -0.84041,0.65518 0,0.0463 0.44813,-0.0154 0.57999,-0.0799 z m -3.46612,12.58297 c 0.0953,-0.24843 0.62618,-0.81799 0.98434,-1.05612 0.2384,-0.1585 0.2384,-0.1585 0.45202,0.0654 0.21362,0.22394 0.21362,0.22394 0.0658,0.30292 -0.27893,0.14903 -0.52346,0.36143 -0.72816,0.63246 -0.0816,0.10805 -0.81433,0.1604 -0.77399,0.0553 z m 10.35846,-0.0344 c -0.1039,-0.20091 -0.45911,-0.51571 -0.77413,-0.68604 -0.18373,-0.0993 -0.18373,-0.0993 0.0255,-0.3128 0.2092,-0.21345 0.2092,-0.21345 0.33751,-0.14273 0.38963,0.21477 0.72562,0.51913 0.99054,0.89728 0.24611,0.35132 0.2629,0.31948 -0.16862,0.31948 -0.3719,0 -0.3719,0 -0.41078,-0.0752 z m -10.36865,-6.96052 c 0,-0.26912 0,-0.26912 0.41651,-0.26969 0.50494,-6.4e-4 0.53985,-0.0131 0.81056,-0.28876 0.18782,-0.19125 0.18863,-0.19266 0.12815,-0.22433 -0.0335,-0.0176 -0.15481,-0.12163 -0.26965,-0.23132 -0.24443,-0.23346 -0.25606,-0.2369 -0.75882,-0.22435 -0.32684,0.008 -0.32684,0.008 -0.32679,-0.25652 8e-5,-0.44551 0.96222,-0.38605 1.46513,0.0905 0.26817,0.25415 0.19206,0.24721 0.92637,0.0844 0.31795,-0.0705 0.60198,-0.12815 0.63118,-0.12815 0.068,0 0.069,0.005 -0.0371,-0.18802 -0.0705,-0.12833 -0.0962,-0.21276 -0.11748,-0.38692 -0.0375,-0.30683 -0.0464,-0.29651 0.25543,-0.29651 0.28322,0 0.28549,0.002 0.28549,0.18233 0,0.31161 0.20803,0.5038 0.63792,0.58936 0.38214,0.0761 0.69786,0.2678 0.97667,0.59316 0.12455,0.14535 0.13781,0.12885 0.12112,-0.15076 -0.0238,-0.3994 -0.16049,-0.60852 -0.67202,-1.02835 -0.54141,-0.44433 -0.63732,-0.95468 -0.17942,-0.95468 0.26912,0 0.26912,0 0.26912,0.0905 0,0.1881 0.0563,0.25856 0.56002,0.70035 0.10216,0.0896 0.23271,0.22513 0.29012,0.30116 0.0574,0.076 0.11164,0.13826 0.12052,0.13826 0.009,10e-6 0.0162,-0.2784 0.0162,-0.61869 0,-0.6187 0,-0.6187 0.26913,-0.61678 0.26912,0.002 0.26912,0.002 0.27643,0.25985 0.004,0.14187 0.0125,0.25794 0.0189,0.25794 0.0205,0 0.76561,-0.56734 0.85396,-0.65023 0.12626,-0.11845 0.18358,-0.24722 0.18358,-0.41244 0,-0.14199 0,-0.14199 0.26912,-0.14199 0.30561,0 0.29765,-0.012 0.24297,0.36614 -0.0518,0.35852 -0.14504,0.47522 -0.72823,0.91195 -0.75833,0.56788 -0.8441,0.7046 -0.82917,1.32171 0.007,0.29973 0.007,0.29973 0.12188,0.12511 0.3514,-0.53531 0.86328,-0.92026 1.32829,-0.99894 0.41754,-0.0707 0.56912,-0.20498 0.56912,-0.50434 0,-0.14513 0,-0.14513 0.27234,-0.14513 0.27234,0 0.27234,0 0.25989,0.21146 -0.0319,0.54219 -0.32405,0.85122 -0.90388,0.9562 -0.39058,0.0707 -0.83842,0.41047 -1.03802,0.7875 -0.103,0.19458 -2.12214,0.18939 -2.29772,-0.006 -0.28653,-0.31868 -0.50303,-0.34136 -1.3835,-0.14493 -0.35415,0.079 -0.65704,0.14365 -0.6731,0.14365 -0.10691,0 -0.30441,0.1462 -0.65056,0.48159 -0.52391,0.50761 -0.61121,0.54322 -1.33244,0.5435 -0.37806,1.5e-4 -0.37806,1.5e-4 -0.37806,-0.26898 z"
       id="path29"
       sodipodi:nodetypes="ssscssssssssssssssssssssssssssssssssssssscssssssssssssssssssssssssssssssssssssssssssssssssssssssssssssssssssssssssssssssssssssssssssssssssssssssssssssssssssssss" /><path
       style="fill:#000000;stroke-width:0.119015"
       d="m 18.957335,172.23178 c -0.216809,-0.25767 -0.23623,-0.48197 -0.07096,-0.81977 0.166,-0.33929 0.04686,-0.84131 -0.171843,-0.72425 -0.227034,0.12151 -0.431294,0.42506 -0.431294,0.64094 0,0.25191 -0.07354,0.27259 -0.153515,0.0432 -0.138483,-0.39726 0.0084,-0.64422 0.752123,-1.26459 0.681249,-0.56825 0.894023,-0.89671 0.806576,-1.24511 -0.03278,-0.1305 -0.04718,-0.11921 -0.291056,0.22808 -0.324434,0.46199 -0.676335,0.77841 -1.159847,1.04294 -0.26695,0.14604 -0.38982,0.24598 -0.412241,0.33531 -0.06567,0.26164 0.02223,0.73236 0.214511,1.14848 0.225639,0.48837 0.217567,0.53415 -0.04093,0.23214 -0.23335,-0.27261 -0.399021,-0.60445 -0.436839,-0.87497 -0.0156,-0.11148 -0.042,-0.23839 -0.05867,-0.28204 -0.01667,-0.0436 -0.02583,-0.0993 -0.0204,-0.12373 0.0132,-0.0587 -0.257186,0.13543 -0.383795,0.27552 -0.07602,0.0841 -0.09292,0.16083 -0.07115,0.32309 0.03032,0.22605 -0.02747,0.28004 -0.118216,0.11045 -0.200736,-0.37507 0.0072,-0.69871 0.792524,-1.23359 1.002316,-0.68267 1.079386,-0.79513 0.441741,-0.64461 -1.082968,0.25565 -1.765082,0.70335 -1.765082,1.15853 0,0.0448 -0.02381,0.0815 -0.05293,0.0815 -0.08283,0 -0.06196,-0.36159 0.03234,-0.56031 0.181663,-0.38282 0.765626,-0.73459 1.695218,-1.02116 0.964309,-0.29728 1.288415,-0.63801 1.310141,-1.37732 0.01339,-0.45501 -0.06063,-0.40592 0.67823,-0.44999 0.621522,-0.0371 0.621522,-0.0371 0.622684,0.29735 0.0025,0.76128 0.406449,1.20086 1.400574,1.52468 0.203648,0.0663 0.548791,0.20884 0.766984,0.31668 0.218192,0.10785 0.567643,0.26232 0.776558,0.34328 0.561315,0.21753 0.961701,0.61734 0.967833,0.96646 0.0019,0.12242 -0.09125,0.0674 -0.157626,-0.0928 -0.12342,-0.29796 -1.005777,-0.80996 -1.14901,-0.66673 -0.08295,0.083 0.111465,0.45508 0.380675,0.72862 0.160809,0.16339 0.292376,0.33538 0.292376,0.38219 0,0.11955 -0.04756,0.10617 -0.168311,-0.0474 -0.05728,-0.0729 -0.205821,-0.20238 -0.330036,-0.28785 -0.159906,-0.11001 -0.282562,-0.2633 -0.420066,-0.52498 -0.23275,-0.44293 -0.343305,-0.51904 -1.083397,-0.74594 -0.7974,-0.24446 -0.658462,0.003 0.353019,0.62774 0.847091,0.52353 1.075654,0.90268 0.84687,1.40482 -0.09962,0.21865 -0.144679,0.15528 -0.112343,-0.15799 0.02918,-0.28258 -0.291315,-0.76519 -0.508118,-0.76519 -0.108698,0 -0.100564,0.54815 0.01036,0.69818 0.125611,0.1699 0.09554,0.23866 -0.06151,0.14059 -0.05968,-0.0373 -0.117009,-0.0568 -0.127361,-0.0433 -0.01036,0.0135 -0.09502,0.14597 -0.188143,0.2945 -0.347631,0.55443 -0.481011,0.56192 -0.221047,0.0124 0.24919,-0.52675 0.145544,-0.68934 -0.651849,-1.02251 -0.355122,-0.14838 -0.339567,0.2423 0.01762,0.44306 0.225191,0.12657 0.316868,0.24975 0.316868,0.42576 0,0.1522 -0.08739,0.13688 -0.127348,-0.0223 -0.02141,-0.0852 -0.111976,-0.17122 -0.25699,-0.244 -0.381748,-0.1916 -0.461843,-0.29518 -0.463119,-0.59897 -0.0019,-0.3877 -0.36978,-0.67876 -0.492967,-0.38974 -0.04086,0.0958 -0.149579,0.26782 -0.241674,0.38229 -0.239192,0.29734 -0.206603,0.35134 0.312675,0.51801 0.749205,0.24046 0.874949,0.53254 0.433183,1.00618 -0.247649,0.26553 -0.345573,0.19146 -0.142323,-0.10765 0.242621,-0.35705 0.148354,-0.48756 -0.449806,-0.62272 -0.218085,-0.0493 -0.4582,-0.13314 -0.533583,-0.18635 -0.305475,-0.21563 -0.778952,0.57911 -0.573599,0.9628 0.101385,0.18945 0.02135,0.22346 -0.122763,0.0522 z m 0.617417,-1.75125 c 0.340394,-0.48019 0.2604,-0.6562 -0.14699,-0.32339 -0.377543,0.30842 -0.377543,0.30842 -0.359253,0.60978 0.01977,0.32585 0.107385,0.27629 0.506243,-0.28639 z m 2.569857,0.13657 c 0,-0.22716 -0.05785,-0.29208 -0.43828,-0.492 -0.4643,-0.24398 -0.858004,-0.62397 -1.111463,-1.07275 -0.194181,-0.34382 -0.194181,-0.34382 -0.193833,-0.0793 6.31e-4,0.53137 0.312232,0.91074 1.214617,1.4791 0.525183,0.33078 0.528959,0.33195 0.528959,0.16499 z m -10.229038,1.25174 c -0.516878,-0.63197 -0.55985,-1.08664 -0.138704,-1.46752 0.299487,-0.27086 0.349646,-0.78571 0.143144,-1.46925 -0.165691,-0.54847 -0.30358,-0.46426 -0.286136,0.17475 0.01857,0.68125 -0.193398,0.92342 -0.948369,1.08338 -0.551848,0.11691 -0.515962,0.14682 -0.47731,-0.39769 0.05798,-0.81648 0.207418,-1.00941 0.864048,-1.11533 0.514459,-0.083 0.66791,-0.27755 0.726191,-0.92072 0.05671,-0.62566 -0.25176,-0.68916 -0.42472,-0.0874 -0.18976,0.66018 -0.321618,0.74858 -1.116561,0.74858 -0.6355802,0 -0.6101532,0.0225 -0.4552812,-0.40411 0.3106222,-0.85575 0.5639732,-1.04316 1.2082132,-0.89375 0.412808,0.0957 0.735721,-0.0263 1.037059,-0.39185 0.263456,-0.31962 -0.0083,-0.41226 -0.299842,-0.10223 -0.355677,0.37821 -0.70341,0.36461 -1.140907,-0.0446 -0.319539,-0.29889 -0.323082,-0.27391 0.0719,-0.50757 0.461401,-0.27296 0.702564,-0.26973 1.009845,0.0135 0.277098,0.25542 0.537517,0.23095 0.92548,-0.087 0.308551,-0.25283 0.211713,-0.32368 -0.313988,-0.22973 -0.640399,0.11444 -0.891521,-0.0284 -1.152711,-0.65584 -0.235573,-0.56587 -0.229024,-0.59311 0.153192,-0.63747 0.849182,-0.0986 1.211636,0.11414 1.374371,0.80655 0.09675,0.41163 0.596847,0.35351 1.690728,-0.19648 1.078906,-0.54246 2.076391,-0.75425 4.990154,-1.05955 2.125465,-0.2227 2.923199,-0.6141 3.853391,-1.89063 0.122151,-0.16763 0.228159,-0.31263 0.235573,-0.32223 0.0074,-0.01 0.111168,0.038 0.230565,0.1058 0.184878,0.10494 0.224338,0.11175 0.265946,0.0459 0.04206,-0.0667 0.09884,-0.0679 0.409025,-0.009 0.198097,0.0376 0.446049,0.0758 0.551008,0.0847 0.104953,0.009 0.243859,0.0446 0.308677,0.0794 0.274717,0.14702 0.31705,-0.71987 0.04339,-0.88899 -0.188401,-0.11644 -0.334804,-0.14629 -0.366597,-0.0748 -0.168849,0.37991 -1.457289,0.33318 -1.470855,-0.0534 -6.32e-4,-0.022 -0.07281,-0.13871 -0.160089,-0.2592 -0.20529,-0.28338 -0.209167,-0.2719 0.145462,-0.43088 0.770173,-0.34526 1.067191,-0.28889 1.451175,0.27544 0.163891,0.24086 0.572077,0.38005 0.572077,0.19506 0,-0.22701 -0.302071,-0.60731 -0.661279,-0.83253 -0.289003,-0.1812 -0.443225,-0.36239 -0.308455,-0.36239 0.09872,0 0.757162,0.40407 0.930065,0.57077 0.198355,0.19123 0.198355,0.19123 0.198355,-0.12552 0,-0.31676 0,-0.31676 -0.435702,-0.3751 -0.680832,-0.0911 -0.939584,-0.46079 -0.939584,-1.34225 0,-0.37212 0.03909,-0.38523 0.646418,-0.21683 0.635334,0.17617 0.83413,0.39972 0.834459,0.93834 1.13e-4,0.17721 0.03638,0.43904 0.08062,0.58185 0.12366,0.39925 0.10868,1.85728 -0.02577,2.50524 -0.15028,0.72442 -0.0846,0.67733 0.331672,-0.23784 0.382071,-0.83998 0.390414,-0.88978 0.227906,-1.36061 -0.259616,-0.75216 -0.188951,-0.98394 0.445783,-1.46222 0.504058,-0.37982 0.493201,-0.37756 0.594567,-0.1238 0.426634,1.06805 0.256996,1.65934 -0.553572,1.92953 -0.02571,0.009 -0.10789,0.23917 -0.182572,0.51241 -0.07468,0.27326 -0.181569,0.60364 -0.237531,0.7342 -0.05596,0.13055 -0.09239,0.24674 -0.08093,0.25818 0.05488,0.0549 0.538679,-0.19031 0.553862,-0.28069 0.133809,-0.79663 0.44044,-1.05867 1.177538,-1.00636 0.709195,0.0503 0.716281,0.0585 0.501329,0.58135 -0.323651,0.78714 -0.539949,0.91257 -1.324421,0.76802 -0.374845,-0.0691 -0.880178,0.18585 -1.234284,0.62265 -0.754641,0.93084 -0.727497,0.86611 -0.363174,0.86611 0.273063,0 0.2838,-0.006 0.374145,-0.19835 0.36661,-0.78184 0.701572,-0.92881 1.595633,-0.70014 0.541382,0.13846 0.545077,0.14403 0.338941,0.51074 -0.498026,0.88597 -0.75746,1.01428 -1.535597,0.75942 -0.679006,-0.22239 -1.004393,-0.126 -1.794555,0.53158 -0.509015,0.4236 -0.179061,0.59193 0.502541,0.25638 0.672097,-0.33087 1.014916,-0.22591 1.610872,0.49319 0.174874,0.21101 0.318314,0.39776 0.31875,0.41499 0.0025,0.10351 -0.896296,0.44316 -1.215798,0.45937 -0.508464,0.0258 -0.572132,-0.0251 -1.137249,-0.90921 -0.112096,-0.17537 -0.77827,-0.0512 -1.172157,0.21852 -0.803886,0.55044 -1.867167,0.94126 -2.900803,1.06623 -2.80864,0.33958 -3.212405,0.42255 -3.95194,0.81211 -1.174601,0.61872 -1.441652,2.29844 -0.529971,3.3335 0.0756,0.0858 0.06938,0.0926 -0.08535,0.0926 -0.273,0 -0.117705,0.20918 0.418966,0.56433 0.374852,0.24807 0.258013,0.2816 -0.512779,0.14719 -2.806372,-0.4894 -4.404057,-3.21707 -3.143222,-5.36633 0.170667,-0.29092 0.170667,-0.29092 -0.04838,-0.0793 -0.854878,0.82578 -0.812968,2.67292 0.08553,3.76941 0.308153,0.37606 0.140087,0.33292 -0.223611,-0.0574 -0.486778,-0.52241 -0.579795,-0.30083 -0.107442,0.25595 0.416832,0.49135 0.411274,0.70725 -0.03556,1.38006 -0.268162,0.40377 -0.274724,0.40484 -0.534859,0.0868 z m 7.52246,-8.7572 c 0.04105,-1.40543 -0.532983,-2.42345 -0.857563,-1.52081 -0.189001,0.52559 -0.460574,0.65778 -1.044151,0.50828 -0.437907,-0.11219 -0.448701,-0.1282 -0.293235,-0.43499 0.28337,-0.5592 0.609825,-0.72886 1.122061,-0.58314 0.15796,0.045 0.300208,0.0607 0.316098,0.0349 0.05053,-0.0818 -0.376431,-0.25869 -1.072244,-0.44435 -0.371031,-0.099 -0.741607,-0.20568 -0.823508,-0.23705 -0.33459,-0.12818 -0.497401,-0.0795 -0.613741,0.1835 -0.291846,0.65976 -0.583161,0.77884 -1.292748,0.52845 -0.459999,-0.16233 -0.44409,-0.13054 -0.230388,-0.46046 0.431188,-0.66567 0.693419,-0.769 1.298558,-0.5117 0.38958,0.16565 0.430739,0.0518 0.0831,-0.2299 -0.298761,-0.24208 -0.298761,-0.24208 -0.731483,-0.21508 -0.675179,0.0421 -0.847337,-0.089 -1.117356,-0.85096 -0.179339,-0.50608 -0.176529,-0.50908 0.478454,-0.50992 0.702481,-0.001 0.936109,0.17707 1.080719,0.82327 0.09336,0.41718 0.744525,0.84537 1.521405,1.00044 0.229744,0.0459 -0.124349,-0.6793 -0.483348,-0.98987 -0.521584,-0.45122 -0.523586,-0.82938 -0.009,-1.6944 0.261234,-0.43913 0.264802,-0.43913 0.66971,0 0.655431,0.71082 0.679588,1.02427 0.137239,1.78067 -0.277667,0.38725 0.04528,0.84245 0.768506,1.08311 0.491034,0.1634 0.876623,0.41226 1.138993,0.7351 0.227294,0.27968 0.227294,0.27968 0.227294,-0.007 0,-0.48273 -0.250712,-0.78963 -0.68478,-0.83824 -0.550211,-0.0616 -0.699848,-0.26627 -0.760882,-1.04067 -0.02659,-0.33718 -0.02659,-0.33718 0.215969,-0.30394 0.667374,0.0915 0.965428,0.36738 1.005759,0.931 0.06483,0.9061 0.295193,0.71788 0.257672,-0.21054 -0.04345,-1.07559 -0.03164,-1.04045 -0.44445,-1.32238 -0.619116,-0.42285 -0.703051,-0.71616 -0.417786,-1.45993 0.224666,-0.58577 0.244472,-0.60266 0.499504,-0.42592 0.834567,0.57836 1.016962,1.00444 0.69837,1.63139 -0.269911,0.53114 -0.07159,1.05299 0.253573,0.66727 0.183842,-0.21808 0.223428,-0.30381 0.223674,-0.48436 0.0013,-0.73856 0.348522,-1.05065 1.255972,-1.12792 0.443042,-0.0377 0.440813,-0.0422 0.312258,0.62146 -0.146359,0.75555 -0.355817,0.95954 -1.02679,0.99997 -0.612118,0.0369 -0.85911,0.39261 -0.85911,1.23729 0,0.41905 0.279934,0.22507 0.334003,-0.23143 0.0629,-0.53101 0.312542,-0.75325 0.923807,-0.82241 0.465298,-0.0526 0.482527,-0.0395 0.425541,0.32386 -0.120515,0.76852 -0.324725,0.97497 -0.964404,0.97497 -0.397115,0 -0.397115,0 -0.529743,0.22631 -0.258695,0.44143 -0.233363,1.11315 0.02615,0.69326 0.128106,-0.20728 0.678874,-0.59213 1.058715,-0.73978 0.327472,-0.1273 0.323575,-0.12274 0.60668,-0.70945 0.358311,-0.74259 0.453614,-0.70616 0.209414,0.08 -0.07229,0.23274 -0.131795,0.42668 -0.13223,0.43099 -4.74e-4,0.004 0.183677,-0.038 0.409145,-0.0941 0.815235,-0.20259 1.080789,-0.40762 0.715783,-0.55264 -0.676531,-0.2688 -0.822694,-0.39476 -0.880968,-0.75917 -0.03088,-0.19331 0.0281,-0.76991 0.104555,-1.02193 0.03954,-0.13032 0.11576,-0.11742 0.529585,0.0896 0.697228,0.34883 0.878531,0.7049 0.68711,1.34948 -0.04674,0.15729 -0.08493,0.36177 -0.08493,0.45439 0,0.34899 -0.398542,0.62419 -1.295944,0.89487 -0.617877,0.18636 -1.072155,0.40401 -1.266165,0.60662 -0.228967,0.23912 0.01263,0.22416 0.473812,-0.0293 0.495676,-0.27246 0.81065,-0.18579 1.342805,0.3695 0.219835,0.22939 0.194617,0.27402 -0.285789,0.50572 -0.555498,0.2679 -0.771303,0.23877 -1.1457,-0.15468 -0.323607,-0.34009 -0.395189,-0.36624 -0.627137,-0.22923 -0.224186,0.13242 -0.290936,0.43977 -0.286572,1.3195 0.0038,0.74645 0.0038,0.74645 -0.486196,0.80666 -0.764805,0.094 -0.687419,0.16906 -0.663666,-0.64385 z"
       id="path30" /><path
       style="fill:#000000;stroke-width:0.119015"
       d="m 0.78401456,101.05548 c -0.09287,-0.17352 -0.06145,-0.34604 0.102459,-0.56268 0.36056604,-0.47654 0.22002404,-0.863986 -0.19689,-0.542786 -0.47078,0.362696 -0.539437,0.452076 -0.541812,0.705276 -0.0013,0.15637 -0.01535,0.19088 -0.05324,0.13224 -0.166733,-0.25799 -0.02981,-0.59036 0.424967,-1.031456 0.362435,-0.35155 0.476098,-0.55877 0.47054,-0.85785 -0.0072,-0.3865 -0.03657,-0.39813 -0.419447,-0.16606 -0.378269,0.22924 -0.414002,0.282 -0.419447,0.61925 -0.0038,0.23686 -0.07162,0.32886 -0.503722,0.683566 -0.09985,0.082 -0.137744,0.15352 -0.119081,0.22487 0.01503,0.0576 0.0057,0.0913 -0.02059,0.075 -0.129547,-0.0801 -0.04213,-0.336826 0.190069,-0.558086 0.238434,-0.22724 0.346362,-0.6616 0.188616,-0.75909 -0.192734,-0.11912 -0.796919,0.38193 -0.796919,0.66087 0,0.0863 -0.02381,0.15685 -0.05293,0.15685 -0.08482,0 -0.05893,-0.27248 0.04831,-0.50864 0.123338,-0.27161 0.343066,-0.43915 0.850925,-0.64885 0.674965,-0.2787 0.87601,-0.55863 0.93292,-1.29895 0.03631,-0.472279 0.02937,-0.490299 -0.151108,-0.393689 -0.274332,0.146819 -0.01661,-1.29446 0.36067404,-2.01704 0.890347,-1.7052 2.456479,-2.43999 5.919065,-2.77706 2.639519,-0.25695 3.1288484,-0.37007 3.9795904,-0.91993 0.955448,-0.61753 1.023272,-1.53228 0.152686,-2.0594 -1.2796744,-0.77481 -2.3063694,-0.73773 -2.3081634,0.0833 -0.0013,0.58253 -0.210961,0.78809 -0.942785,0.92419 -0.407207,0.0757 -0.398858,0.0871 -0.332544,-0.45499 0.08402,-0.68691 0.245622,-0.85526 0.877628,-0.91428 0.682827,-0.0638 0.78557,-0.34597 0.176989,-0.48612 -0.90073,-0.20743 -1.424997,-0.0525 -1.477947,0.43692 -0.05918,0.54692 -0.289844,0.72553 -0.985006,0.76269 -0.502617,0.0269 -0.485136,0.0529 -0.325167,-0.48423 0.176257,-0.59184 0.351093,-0.73358 0.88249,-0.71547 0.509735,0.0174 0.963362,-0.1992 0.591011,-0.28218 -1.009163,-0.22485 -2.112757,0.0904 -2.167514,0.61918 -0.04339,0.41874 -0.186576,0.53239 -0.744297,0.59068 -0.324731,0.0339 -0.324731,0.0339 -0.286339,-0.19903 0.09316,-0.56525 0.271573,-0.75993 0.702192,-0.76622 0.244731,-0.004 0.325034,-0.0303 0.476698,-0.15869 0.184997,-0.1566 -0.924729,-0.20837 -2.012623,-0.0939 -0.391519,0.0412 -1.085405,-0.75075 -0.85748,-0.97867 0.29674,-0.29674 1.200091,0.052 1.300838,0.50218 0.07092,0.31692 0.224066,0.35371 0.966336,0.23216 0.447526,-0.0733 0.4288,-0.34081 -0.03979,-0.56847 -0.420956,-0.20452 -0.497982,-0.49608 -0.27319,-1.03408 0.08336,-0.19951 0.08336,-0.19951 0.398271,0.0143 0.439271,0.2983 0.530412,0.53858 0.342288,0.90237 -0.08946,0.173 -0.05993,0.27119 0.134536,0.44711 0.09833,0.0889 1.795794,0.1783 1.797538,0.0946 1.2e-4,-0.008 -0.191099,-0.30319 -0.345302,-0.53294 -0.0051,-0.008 -0.161263,-0.0412 -0.346431,-0.0738 -0.542027,-0.0955 -0.736252,-0.37957 -0.735121,-1.07531 6.31e-4,-0.44777 0.03714,-0.48961 0.352854,-0.40517 0.776622,0.20771 0.938188,0.39878 0.89233,1.0552 -0.05078,0.72666 0.301768,1.00849 1.594654,1.2748 1.005405,0.20712 1.9781654,0.48484 2.5249484,0.72089 0.510922,0.22056 0.546732,0.20579 0.177273,-0.0731 -0.414647,-0.31308 -0.76603,-0.4556 -1.7655874,-0.71617 -1.103164,-0.28757 -1.436662,-0.41112 -1.756144,-0.65058 -0.466928,-0.34996 -0.591485,-0.59611 -0.156868,-0.30999 0.435412,0.28665 1.876912,0.696 1.935262,0.54957 0.05766,-0.14476 -0.196372,-0.39266 -0.521861,-0.50921 -0.641851,-0.22984 -0.7704,-0.49626 -0.629593,-1.30482 0.09486,-0.54475 0.16204,-0.55035 0.898197,-0.075 0.43967,0.28391 0.470092,0.40243 0.338209,1.31778 -0.06233,0.43264 0.241144,0.63526 1.4786364,0.98716 0.08388,0.0239 0.09483,0.008 0.06684,-0.0965 -0.01838,-0.0688 -0.03379,-0.13866 -0.03417,-0.15528 -3.6e-4,-0.0166 -0.119429,-0.0839 -0.264506,-0.14946 -0.475554,-0.21493 -0.581215,-0.51618 -0.389378,-1.11017 0.101063,-0.31293 0.108402,-0.31527 0.418001,-0.13383 0.487668,0.28579 0.605284,0.54111 0.470521,1.02141 -0.103128,0.36754 0.02766,0.68295 0.335411,0.80905 2.0345,0.83349 2.722456,2.34613 1.799735,3.95711 -0.106039,0.18515 -0.106039,0.18515 0.06126,0.0265 1.116649,-1.05923 0.689048,-2.87017 -0.898444,-3.80503 -0.533551,-0.31419 -0.490996,-0.36435 0.09827,-0.11582 0.301963,0.12734 0.431339,0.16089 0.431339,0.11179 0,-0.16067 -0.07588,-0.23949 -0.283143,-0.2941 -0.726134,-0.1913 -0.952638,-0.62488 -0.770381,-1.47472 0.06877,-0.32068 0.0634,-0.32014 0.601059,-0.0599 0.624162,0.30211 0.757636,0.57388 0.590379,1.20205 -0.08889,0.33384 0.0497,0.63733 0.513746,1.12496 0.154783,0.16264 0.349595,0.41241 0.432918,0.55503 0.283831,0.48578 0.488211,-0.13995 0.221742,-0.67886 -0.328394,-0.66414 -0.272438,-0.9198 0.317948,-1.45264 0.482628,-0.43559 0.512008,-0.42394 0.761842,0.30221 0.210077,0.61061 0.113372,0.93144 -0.386428,1.28203 -0.251129,0.17616 -0.314292,0.25223 -0.36181,0.43581 -0.03164,0.12232 -0.105408,0.39666 -0.163885,0.60963 -0.190214,0.69275 -0.101618,1.08124 0.210564,0.92333 0.325621,-0.16471 0.346526,-0.19277 0.456165,-0.61216 0.160367,-0.61345 0.385469,-0.75129 1.226966,-0.75129 0.542033,0 0.537505,-0.006 0.363547,0.48785 -0.294151,0.83519 -0.548545,1.02541 -1.225368,0.91622 -0.452029,-0.0729 -0.483291,-0.0609 -0.928872,0.35584 -0.23234,0.21734 -0.608827,0.7863 -0.555549,0.83958 0.145367,0.14537 0.40158,0.0718 0.561953,-0.16125 0.377542,-0.54873 0.77599,-0.60212 1.553882,-0.2082 0.254469,0.12885 0.254469,0.12885 -0.06849,0.49313 -0.525305,0.59252 -0.776333,0.63951 -1.392145,0.2606 -0.426748,-0.26259 -1.570844,0.20346 -1.570844,0.63988 0,0.12647 0.251647,0.13469 0.539709,0.0176 0.548785,-0.22298 0.933729,-0.0753 1.368674,0.52513 0.187878,0.25936 0.17387,0.28 -0.318352,0.469 -0.644107,0.24734 -0.961632,0.14151 -1.262351,-0.42073 -0.238813,-0.44648 -0.488173,-0.45964 -1.270516,-0.0671 -0.284766,0.14291 -0.748485,0.33633 -1.030504,0.42985 -0.575455,0.19081 -0.568779,0.18325 -0.333705,0.37802 0.171406,0.14202 0.171406,0.14202 0.561226,0.0397 0.487062,-0.12786 0.61885,-0.12792 0.828081,0 0.277415,0.16916 0.838698,1.09058 0.694379,1.13992 -1.145953,0.39177 -1.639817,0.20833 -1.940435,-0.72071 -0.125031,-0.3864 -0.738361,-0.49288 -1.9083334,-0.33128 -0.972576,0.13432 -0.912603,0.10259 -0.645072,0.34128 0.203654,0.18169 0.243966,0.19792 0.370273,0.1491 0.569064,-0.21994 0.943644,-0.0469 1.2657614,0.58454 0.300131,0.58841 0.296715,0.62279 -0.06648,0.66818 -0.9709974,0.12132 -1.2954254,-0.0816 -1.4276624,-0.89274 -0.07531,-0.46197 -1.135141,-0.58086 -2.519472,-0.28262 -1.762239,0.37967 -2.727603,0.94606 -3.283985,1.92679 -0.312599,0.550999 -0.348055,0.275839 -0.03922,-0.30415 0.211258,-0.39671 0.211258,-0.39671 -0.09396,-0.67235 -0.370071,-0.33422 -0.377959,-0.33507 -0.556395,-0.0599 -0.807006,1.244589 -0.638978,2.524869 0.374372,2.852479 0.596158,0.19273 0.733927,0.38489 0.255152,0.3559 -0.272552,-0.0169 -0.272552,-0.0169 -0.272552,0.28657 0,0.16689 -0.02381,0.30704 -0.05293,0.31144 -0.08254,0.0125 -0.183494,-0.22502 -0.184353,-0.43374 -6.32e-4,-0.20738 -0.07256,-0.29139 -0.486475,-0.56998 -0.61866,-0.4164 -0.442833,0.52895 0.218755,1.17614 0.394519,0.385926 0.47882,0.573446 0.377549,0.839806 -0.07302,0.19205 -0.115917,0.18466 -0.07635,-0.0131 0.042,-0.21004 -0.05867,-0.35432 -0.460511,-0.65992 -0.455907,-0.346716 -0.473123,-0.349406 -0.472188,-0.0737 6.31e-4,0.229176 0.02318,0.285726 0.250276,0.631426 0.14776,0.22494 0.150931,0.37381 0.01067,0.50075 -0.107618,0.0974 -0.108073,0.097 -0.05286,-0.0482 0.06746,-0.17741 0.01288,-0.29896 -0.203407,-0.45297 -0.232024,-0.16522 -0.56880604,0.2102 -0.42672904,0.47567 0.03587,0.067 0.0365,0.10231 0.0019,0.10231 -0.02912,0 -0.07754,-0.046 -0.10765,-0.10231 z"
       id="path31"
       sodipodi:nodetypes="ssssssssssssssssssssssssssssssssscsssssssssssssscscscsssssssssssssscsssscscsssssssssssssssssssssssssssssssssssccssscssssssssscsscssssscssssssss" /><path
       id="path32"
       style="fill:url(#linearGradient92);stroke-width:0.119015"
       d="M 83.337891 158.47852 C 83.296089 158.48078 83.272135 158.50608 83.272135 158.55924 C 83.272135 158.61253 83.261979 158.70763 83.249349 158.77083 C 83.228134 158.87687 83.247221 158.89982 83.497396 159.07096 C 83.74226 159.23847 84.22426 159.68722 84.353516 159.86784 C 84.381538 159.90702 84.493541 159.96304 84.602214 159.99284 C 84.906259 160.07621 84.910113 160.07388 84.814453 159.88542 C 84.52177 159.30878 83.593344 158.46469 83.337891 158.47852 z M 82.537109 158.72396 C 82.52662 158.72373 82.518409 158.72544 82.51237 158.72917 C 82.46521 158.75817 82.470739 160.71783 82.518229 160.88867 C 82.583223 161.12264 82.784286 161.39897 82.973307 161.51367 C 83.264603 161.69047 83.135857 161.75609 82.808594 161.59766 C 82.421654 161.41035 82.283192 161.09903 82.251302 160.3418 C 82.222408 159.65635 81.729879 159.62683 79.08724 160.15169 C 78.497814 160.26876 77.649772 160.42078 77.202474 160.48958 C 75.259815 160.78832 74.248443 161.30855 73.626302 162.32943 C 73.455622 162.6095 73.343067 162.64053 72.986979 162.50586 C 72.854038 162.45559 72.853759 162.47649 72.997396 162.25 C 73.207782 161.91825 73.14713 161.61346 72.770182 161.10417 C 72.547271 160.80299 72.560045 160.80684 72.410807 160.99674 C 72.14197 161.33885 72.063529 161.68374 72.178385 162.02083 C 72.255487 162.2471 72.247848 162.26079 72.088542 162.17839 C 71.994132 162.12959 71.965495 162.12707 71.965495 162.16667 C 71.965495 162.26636 72.20597 162.50834 72.352865 162.55664 C 72.434425 162.58347 72.563604 162.64697 72.639974 162.69727 C 72.807749 162.80776 73.089972 162.91081 73.224609 162.91081 C 73.303449 162.91081 73.317219 162.92422 73.292969 162.97982 C 72.989863 163.67517 73.007921 164.69653 73.341797 165.72266 C 73.502391 166.21623 73.467275 166.37963 73.108724 166.81445 C 72.958005 166.99729 72.955715 167.66664 73.101562 168.69271 C 73.12553 168.86131 73.125159 168.86133 73.552083 168.86133 C 74.026098 168.86133 74.028646 168.85923 74.028646 168.47461 C 74.028646 167.88899 74.169449 167.65549 74.67513 167.40299 C 76.150058 166.66649 76.602657 166.30908 76.951172 165.20443 C 76.981787 165.6317 76.967588 165.78438 76.579427 166.27148 C 76.332151 166.58176 76.327127 166.57305 76.785807 166.65495 C 78.411395 166.94535 80.529688 166.88707 80.667969 166.54818 C 80.681833 166.51419 80.691772 166.49147 80.700521 166.48698 L 80.701172 166.48698 L 80.701823 166.48633 L 80.702474 166.48633 L 80.703125 166.48633 L 80.703776 166.48633 C 80.703995 166.48636 80.705512 166.48627 80.705729 166.48633 L 80.70638 166.48698 L 80.707031 166.48763 L 80.707682 166.48763 C 80.724128 166.50292 80.737917 166.60275 80.765625 166.84049 C 80.835685 167.44141 81.019634 168.13947 81.238281 168.63346 C 81.38428 168.96335 82.31819 169.00143 82.211589 168.67318 C 81.867803 167.61461 82.487805 165.88039 83.390625 165.375 C 83.451106 165.34114 83.489963 165.31971 83.502604 165.32031 L 83.503255 165.32031 L 83.503906 165.32031 L 83.504557 165.32096 L 83.505208 165.32096 L 83.505859 165.32161 L 83.50651 165.32227 L 83.50651 165.32292 L 83.50651 165.32357 L 83.50651 165.32422 L 83.50651 165.32487 C 83.504568 165.34454 83.439743 165.42225 83.296224 165.5931 C 82.606642 166.41391 82.610322 166.58214 83.313151 166.4362 C 84.308944 166.22944 84.874463 166.126 85.022135 166.125 C 85.112929 166.12427 85.324319 166.04589 85.602214 165.90951 C 86.158463 165.63651 86.866099 165.35403 87.205729 165.26953 C 87.469672 165.2039 87.469997 165.20378 87.354818 164.92448 C 87.208898 164.57062 87.206791 164.58273 87.438802 164.41797 C 88.023921 164.00246 88.269571 163.22338 87.884115 163.00586 C 86.895168 162.44777 86.918162 162.46815 86.567057 161.83268 C 86.042903 160.88403 85.867072 160.67719 85.39974 160.45638 C 85.134054 160.33085 84.514464 160.13346 84.385417 160.13346 C 84.347719 160.13346 84.233577 160.02643 84.132161 159.89583 C 83.842367 159.52267 82.750394 158.72868 82.537109 158.72396 z M 83.145182 159.78646 C 83.158784 159.786 83.173548 159.79078 83.190755 159.80078 C 83.680849 160.08565 83.966401 160.75662 83.690755 160.97656 C 83.515401 161.11646 83.506785 161.1152 83.339193 160.92969 C 83.093368 160.6576 82.965336 159.79251 83.145182 159.78646 z M 72.591146 161.41341 C 72.621859 161.40677 72.658724 161.46917 72.716797 161.60417 C 72.789677 161.77367 72.796185 161.8259 72.759115 161.93815 C 72.630326 162.32837 72.408688 161.96526 72.523438 161.55208 C 72.547418 161.46573 72.567257 161.41857 72.591146 161.41341 z M 85.247396 162.03776 C 85.469902 162.03776 85.873117 162.38626 85.841797 162.55143 C 85.817703 162.67842 85.430777 162.65539 85.294271 162.51888 C 85.150151 162.37473 85.117363 162.03776 85.247396 162.03776 z M 88.6875 162.20312 L 88.686849 162.20378 L 88.686198 162.20443 C 88.665085 162.22554 88.788029 162.99455 88.843099 163.1862 C 88.884846 163.3314 88.917668 163.37126 89.028646 163.41146 C 89.319222 163.51654 89.342241 163.42353 89.150391 162.91862 C 89.081609 162.73759 88.739159 162.20831 88.690104 162.20312 L 88.689453 162.20312 L 88.688802 162.20312 L 88.688151 162.20312 L 88.6875 162.20312 z M 88.155599 162.40365 C 88.155274 162.40372 88.154605 162.4042 88.154297 162.4043 L 88.153646 162.4043 C 88.153371 162.40446 88.15195 162.40541 88.151693 162.4056 L 88.151042 162.40625 L 88.150391 162.4069 L 88.14974 162.40755 C 88.140217 162.42278 88.151413 162.47547 88.184245 162.5638 C 88.40389 163.15472 88.226178 163.92818 87.755208 164.43164 C 87.506108 164.69793 87.505932 164.69799 87.570312 164.8457 C 87.605714 164.92693 87.652168 165.04286 87.673828 165.10286 C 87.74678 165.30509 88.040977 165.26249 88.272135 165.01628 C 88.906242 164.34087 88.935679 163.38421 88.346354 162.60352 C 88.243751 162.46758 88.179821 162.40076 88.15625 162.40365 L 88.155599 162.40365 z M 78.70638 162.65755 L 78.814453 162.65755 C 78.80632 162.69702 78.795548 162.73533 78.781901 162.77214 C 78.746501 162.86061 78.698571 162.92948 78.638672 162.97852 C 78.543373 163.05608 78.446986 163.10755 78.348958 163.13346 L 78.348958 163.36003 C 78.437453 163.36069 78.542242 163.3236 78.663411 163.24805 C 78.736929 163.20171 78.789649 163.16397 78.820964 163.13542 C 78.852277 163.10688 78.892983 163.06075 78.943359 162.99674 C 79.010073 162.91094 79.049005 162.80018 79.059896 162.66406 L 79.173828 162.66797 C 79.166981 162.71837 79.158633 162.76506 79.147786 162.80859 C 79.12192 162.91205 79.088373 162.98992 79.047526 163.04167 C 78.982179 163.12469 78.933655 163.18096 78.902344 163.21094 C 78.861497 163.2518 78.805819 163.29614 78.735026 163.34375 C 78.611135 163.42677 78.482381 163.4729 78.348958 163.48242 L 78.348958 164.29167 L 78.208333 164.29167 L 78.208333 162.66146 L 78.348958 162.66146 L 78.348958 163.01888 C 78.366652 163.01888 78.385817 163.0154 78.40625 163.00846 C 78.455257 162.9908 78.50916 162.95728 78.567708 162.9069 C 78.654762 162.83209 78.700862 162.74866 78.70638 162.65755 z M 81.271484 162.66211 L 81.412109 162.66211 L 81.412109 163.36068 C 81.437976 163.35601 81.464961 163.34884 81.492188 163.33984 C 81.554814 163.31944 81.611676 163.29308 81.663411 163.26042 C 81.728765 163.22095 81.777874 163.18085 81.810547 163.13997 C 81.82144 163.12764 81.840605 163.09828 81.867839 163.05208 C 81.916859 162.97035 81.942599 162.841 81.945312 162.66406 L 82.061849 162.66406 C 82.053716 162.73488 82.045309 162.79713 82.037109 162.85156 C 82.015329 162.98226 81.993192 163.06493 81.970052 163.09896 C 81.946912 163.13156 81.923544 163.16447 81.900391 163.19727 C 81.851371 163.2572 81.7951 163.30808 81.73112 163.35026 C 81.641266 163.41019 81.534642 163.45453 81.412109 163.48307 L 81.412109 164.29167 L 81.271484 164.29167 L 81.271484 162.66211 z M 82.292318 162.66211 L 82.433594 162.66211 L 82.433594 163.36068 C 82.45946 163.35601 82.485794 163.34884 82.513021 163.33984 C 82.575647 163.31944 82.632509 163.29308 82.684245 163.26042 C 82.749591 163.22095 82.7987 163.18085 82.83138 163.13997 C 82.842274 163.12764 82.861439 163.09828 82.888672 163.05208 C 82.937679 162.97035 82.963419 162.841 82.966146 162.66406 L 83.082682 162.66406 C 83.074549 162.73488 83.066149 162.79713 83.057943 162.85156 C 83.036163 162.98226 83.014039 163.06493 82.990885 163.09896 C 82.967745 163.13156 82.944377 163.16447 82.921224 163.19727 C 82.872204 163.2572 82.815934 163.30808 82.751953 163.35026 C 82.6621 163.41019 82.556126 163.45453 82.433594 163.48307 L 82.433594 164.29167 L 82.292318 164.29167 L 82.292318 162.66211 z M 76.208984 162.66406 L 76.349609 162.66406 C 76.519791 162.66406 76.622214 162.66941 76.65625 162.68034 C 76.844131 162.74027 76.943536 162.87081 76.954427 163.07227 C 76.957227 163.1322 76.942852 163.19148 76.911458 163.25 C 76.881505 163.30853 76.841384 163.35701 76.791016 163.39518 C 76.763789 163.41565 76.731421 163.43126 76.694661 163.44206 C 76.678328 163.44606 76.643593 163.45384 76.590495 163.46484 C 76.627255 163.47278 76.663169 163.47991 76.698568 163.48698 C 76.739414 163.49925 76.777168 163.51902 76.811198 163.54622 C 76.920113 163.63341 76.974017 163.74359 76.972656 163.87695 C 76.969856 164.04714 76.890805 164.17169 76.735677 164.25065 C 76.677137 164.28058 76.548385 164.2944 76.349609 164.29167 L 76.208984 164.29167 L 76.208984 162.66406 z M 77.217448 162.66406 L 77.358724 162.66406 C 77.52346 162.66406 77.625231 162.66941 77.664714 162.68034 C 77.852594 162.74027 77.951999 162.87081 77.962891 163.07227 C 77.965691 163.1322 77.951315 163.19148 77.919922 163.25 C 77.889969 163.30853 77.849847 163.35701 77.799479 163.39518 C 77.755919 163.42778 77.689471 163.45414 77.599609 163.47461 C 77.635009 163.47928 77.670924 163.48644 77.707682 163.49544 C 77.745809 163.50338 77.783563 163.52016 77.820312 163.54622 C 77.929228 163.62656 77.982481 163.73673 77.98112 163.87695 C 77.97832 164.04713 77.89992 164.17168 77.744792 164.25065 C 77.686238 164.28058 77.557486 164.2944 77.358724 164.29167 L 77.217448 164.29167 L 77.217448 162.66406 z M 79.719401 162.66406 L 79.860026 162.66406 L 79.860026 163.3112 L 80.197266 162.97461 L 80.26237 163.03971 L 79.860026 163.4401 L 80.264323 163.84245 L 80.197266 163.90755 L 79.860026 163.57031 L 79.860026 164.29167 L 79.719401 164.29167 L 79.719401 163.57292 L 79.384115 163.90755 L 79.317057 163.84049 L 79.717448 163.4401 L 79.317057 163.03776 L 79.382161 162.97201 L 79.719401 163.30924 L 79.719401 162.66406 z M 80.875 162.66406 L 81.016276 162.66406 L 81.016276 164.29167 L 80.875 164.29167 L 80.875 163.6237 L 80.507812 163.89128 L 80.454427 163.8138 L 80.875 163.50521 L 80.875 163.19076 L 80.507812 163.45833 L 80.454427 163.37891 L 80.875 163.07227 L 80.875 162.66406 z M 81.654948 162.73503 C 81.679455 162.73503 81.70165 162.74698 81.720703 162.77018 C 81.741123 162.79198 81.751302 162.81531 81.751302 162.83984 C 81.751302 162.86704 81.74171 162.89041 81.722656 162.91081 C 81.703603 162.93127 81.680828 162.94141 81.654948 162.94141 C 81.630441 162.94141 81.608897 162.93127 81.589844 162.91081 C 81.57215 162.88907 81.563151 162.86571 81.563151 162.83984 C 81.563151 162.81531 81.57215 162.79198 81.589844 162.77018 C 81.608897 162.74698 81.630441 162.73503 81.654948 162.73503 z M 82.676432 162.73503 C 82.700939 162.73503 82.722476 162.74698 82.741536 162.77018 C 82.761956 162.79198 82.772135 162.81531 82.772135 162.83984 C 82.772135 162.86704 82.762543 162.89041 82.74349 162.91081 C 82.724436 162.93127 82.702312 162.94141 82.676432 162.94141 C 82.651926 162.94141 82.62973 162.93127 82.610677 162.91081 C 82.592984 162.88907 82.584635 162.86571 82.584635 162.83984 C 82.584635 162.81531 82.592984 162.79198 82.610677 162.77018 C 82.62973 162.74698 82.651926 162.73503 82.676432 162.73503 z M 77.358724 162.77995 L 77.358724 163.40495 C 77.500316 163.40895 77.619483 163.37478 77.716146 163.30273 C 77.779993 163.25524 77.812302 163.18059 77.813802 163.07878 C 77.813668 163.01503 77.79391 162.9553 77.754557 162.90104 C 77.715071 162.84657 77.671347 162.81307 77.623698 162.80078 C 77.577405 162.78711 77.489419 162.77995 77.358724 162.77995 z M 76.349609 162.7806 L 76.349609 163.39062 C 76.508899 163.39062 76.628067 163.36192 76.707031 163.30339 C 76.771018 163.25579 76.803979 163.18093 76.805339 163.07878 C 76.805339 163.01478 76.78558 162.9555 76.746094 162.90104 C 76.706607 162.84658 76.662884 162.81307 76.615234 162.80078 C 76.568941 162.78718 76.480305 162.7806 76.349609 162.7806 z M 76.552083 162.98828 C 76.573863 162.98828 76.593621 162.99848 76.611328 163.01888 C 76.630381 163.03795 76.639974 163.05948 76.639974 163.08268 C 76.639974 163.10722 76.630975 163.1281 76.613281 163.14583 C 76.596948 163.1635 76.576597 163.17253 76.552083 163.17253 C 76.530303 163.17253 76.511138 163.1635 76.494792 163.14583 C 76.478458 163.12677 76.470052 163.10588 76.470052 163.08268 C 76.470052 163.05955 76.478458 163.03801 76.494792 163.01888 C 76.511125 162.99848 76.53029 162.98828 76.552083 162.98828 z M 90.007161 163.55143 C 89.9616 163.55589 89.873915 163.58537 89.705729 163.64258 C 89.420749 163.73958 89.420338 163.73906 89.202474 163.66406 C 88.984553 163.58909 88.985007 163.58939 88.984375 163.75586 C 88.982689 164.16334 88.794978 164.69973 88.530599 165.05273 C 88.410482 165.21309 88.396941 165.20448 88.879557 165.27018 C 89.079264 165.29738 89.257581 165.32187 89.275391 165.32487 L 89.276042 165.32552 L 89.276693 165.32487 C 89.354478 165.29911 90.05599 163.75684 90.05599 163.60807 C 90.05599 163.56733 90.052723 163.54697 90.007161 163.55143 z M 77.358724 163.5625 L 77.358724 164.18099 C 77.509845 164.18099 77.62061 164.16066 77.691406 164.11979 C 77.728166 164.09799 77.758696 164.06325 77.783203 164.01562 C 77.80907 163.96662 77.820435 163.91515 77.817708 163.86068 C 77.812242 163.7572 77.782298 163.68353 77.727865 163.63997 C 77.685658 163.60597 77.628795 163.58385 77.556641 163.57292 C 77.514434 163.56598 77.448578 163.5625 77.358724 163.5625 z M 76.349609 163.57878 L 76.349609 164.18099 C 76.500731 164.18099 76.611496 164.16066 76.682292 164.11979 C 76.719052 164.09799 76.750233 164.06325 76.77474 164.01562 C 76.800606 163.96662 76.811971 163.91515 76.809245 163.86068 C 76.803778 163.76397 76.773841 163.69149 76.719401 163.64388 C 76.669034 163.60035 76.545665 163.57878 76.349609 163.57878 z M 76.559896 163.77669 C 76.581676 163.77669 76.601434 163.78682 76.619141 163.80729 C 76.638194 163.82636 76.647786 163.84789 76.647786 163.87109 C 76.647786 163.89429 76.638787 163.91518 76.621094 163.93424 C 76.6034 163.95191 76.583036 163.96094 76.559896 163.96094 C 76.538116 163.96094 76.518358 163.95191 76.500651 163.93424 C 76.484318 163.91518 76.476562 163.89429 76.476562 163.87109 C 76.476562 163.84796 76.484318 163.82643 76.500651 163.80729 C 76.518344 163.78682 76.538102 163.77669 76.559896 163.77669 z M 83.947266 166.56055 C 83.931931 166.56055 83.689235 166.60536 83.407552 166.66016 C 83.125868 166.71499 82.825634 166.77306 82.740234 166.78906 C 82.385118 166.85593 82.45497 167.18675 82.994792 167.98958 C 83.293181 168.43335 83.617192 168.83554 83.701172 168.86654 C 83.737954 168.87964 83.892836 168.88526 84.045573 168.87826 C 84.19831 168.87146 84.390556 168.86493 84.472656 168.86393 C 84.621906 168.86174 84.621795 168.86166 84.527995 168.71289 C 84.26745 168.29967 84.055995 167.57087 84.003255 166.90755 C 83.98928 166.73155 83.966595 166.58497 83.951172 166.56315 C 83.950914 166.56285 83.950123 166.56142 83.94987 166.5612 L 83.949219 166.5612 L 83.948568 166.56055 L 83.947917 166.56055 L 83.947266 166.56055 z M 76.167969 166.78841 C 76.053778 166.78889 76.001814 166.83122 75.884115 166.92708 C 75.769032 167.02081 75.609637 167.1379 75.529297 167.1875 C 75.383717 167.27746 75.382842 167.2782 75.438802 167.41211 C 75.550899 167.68039 75.916977 168.25466 76.242839 168.67318 C 76.442028 168.92903 76.41956 168.92305 77.028646 168.87565 C 77.350794 168.85057 77.351104 168.85046 77.200521 168.52865 C 76.828906 167.73448 76.821695 167.649 77.10612 167.3418 C 77.392054 167.033 77.418856 166.95703 77.242188 166.95703 C 77.176878 166.95703 76.891993 166.91197 76.608724 166.85677 C 76.383402 166.81284 76.256784 166.78804 76.167969 166.78841 z " /><text
       xml:space="preserve"
       style="font-style:normal;font-variant:normal;font-weight:normal;font-stretch:normal;font-size:4.77358px;line-height:1.25;font-family:Almendra;-inkscape-font-specification:'Almendra, Normal';font-variant-ligatures:normal;font-variant-caps:normal;font-variant-numeric:normal;font-variant-east-asian:normal;text-align:center;text-anchor:middle;stroke-width:0.102763"
       x="106.37959"
       y="190.71965"
       id="text38"><tspan
         sodipodi:role="line"
         id="tspan38"
         style="font-style:normal;font-variant:normal;font-weight:normal;font-stretch:normal;font-size:4.77358px;font-family:Almendra;-inkscape-font-specification:'Almendra, Normal';font-variant-ligatures:normal;font-variant-caps:normal;font-variant-numeric:normal;font-variant-east-asian:normal;stroke-width:0.102763"
         x="106.37959"
         y="190.71965">pbfhogg: Deep forest green + gunmetal gray + blood-red accent (striking/processing energy).</tspan><tspan
         sodipodi:role="line"
         style="font-style:normal;font-variant:normal;font-weight:normal;font-stretch:normal;font-size:4.77358px;font-family:Almendra;-inkscape-font-specification:'Almendra, Normal';font-variant-ligatures:normal;font-variant-caps:normal;font-variant-numeric:normal;font-variant-east-asian:normal;stroke-width:0.102763"
         x="106.37959"
         y="196.68663"
         id="tspan39">elivagar: Icy cyan/blue + frost white + subtle silver (primordial rivers + Shortbread &quot;lean &amp; clean&quot;).</tspan><tspan
         sodipodi:role="line"
         style="font-style:normal;font-variant:normal;font-weight:normal;font-stretch:normal;font-size:4.77358px;font-family:Almendra;-inkscape-font-specification:'Almendra, Normal';font-variant-ligatures:normal;font-variant-caps:normal;font-variant-numeric:normal;font-variant-east-asian:normal;stroke-width:0.102763"
         x="106.37959"
         y="202.65359"
         id="tspan40">nidhogg: Obsidian black + deep emerald + glowing ember red (underworld roots + server guardian).</tspan></text><text
       xml:space="preserve"
       style="font-style:normal;font-variant:normal;font-weight:normal;font-stretch:normal;font-size:4.77358px;line-height:1.25;font-family:'EB Garamond';-inkscape-font-specification:'EB Garamond, Normal';font-variant-ligatures:normal;font-variant-caps:normal;font-variant-numeric:normal;font-variant-east-asian:normal;text-align:center;text-anchor:middle;stroke-width:0.102763"
       x="106.30347"
       y="212.88936"
       id="text46"><tspan
         sodipodi:role="line"
         id="tspan44"
         style="font-style:normal;font-variant:normal;font-weight:normal;font-stretch:normal;font-size:4.77358px;font-family:'EB Garamond';-inkscape-font-specification:'EB Garamond, Normal';font-variant-ligatures:normal;font-variant-caps:normal;font-variant-numeric:normal;font-variant-east-asian:normal;stroke-width:0.102763"
         x="106.30347"
         y="212.88936">pbfhogg: Deep forest green + gunmetal gray + blood-red accent (striking/processing energy).</tspan><tspan
         sodipodi:role="line"
         style="font-style:normal;font-variant:normal;font-weight:normal;font-stretch:normal;font-size:4.77358px;font-family:'EB Garamond';-inkscape-font-specification:'EB Garamond, Normal';font-variant-ligatures:normal;font-variant-caps:normal;font-variant-numeric:normal;font-variant-east-asian:normal;stroke-width:0.102763"
         x="106.30347"
         y="218.85634"
         id="tspan45">elivagar: Icy cyan/blue + frost white + subtle silver (primordial rivers + Shortbread &quot;lean &amp; clean&quot;).</tspan><tspan
         sodipodi:role="line"
         style="font-style:normal;font-variant:normal;font-weight:normal;font-stretch:normal;font-size:4.77358px;font-family:'EB Garamond';-inkscape-font-specification:'EB Garamond, Normal';font-variant-ligatures:normal;font-variant-caps:normal;font-variant-numeric:normal;font-variant-east-asian:normal;stroke-width:0.102763"
         x="106.30347"
         y="224.8233"
         id="tspan46">nidhogg: Obsidian black + deep emerald + glowing ember red (underworld roots + server guardian).</tspan></text><text
       xml:space="preserve"
       style="font-size:4.77357px;line-height:1.25;font-family:'EB Garamond';-inkscape-font-specification:'EB Garamond, Normal';text-align:center;text-anchor:middle;stroke-width:0.333333"
       x="-226.29987"
       y="88.375725"
       id="text51"><tspan
         sodipodi:role="line"
         id="tspan51"
         style="stroke-width:0.333333"
         x="-226.29987"
         y="88.375725">1. The &quot;Special Ops&quot; Palette</tspan><tspan
         sodipodi:role="line"
         style="stroke-width:0.333333"
         x="-226.29987"
         y="94.34269"
         id="tspan52" /><tspan
         sodipodi:role="line"
         style="stroke-width:0.333333"
         x="-226.29987"
         y="100.30965"
         id="tspan53">Theme: Rugged, tactical, and authoritative. Best for heavy-duty or administrative tools.</tspan><tspan
         sodipodi:role="line"
         style="stroke-width:0.333333"
         x="-226.29987"
         y="106.27661"
         id="tspan54">Element	Color Name	Hex Code	Usage</tspan><tspan
         sodipodi:role="line"
         style="stroke-width:0.333333"
         x="-226.29987"
         y="112.24358"
         id="tspan55">Primary	Deep Forest	#1B2E21	Sidebars, primary buttons</tspan><tspan
         sodipodi:role="line"
         style="stroke-width:0.333333"
         x="-226.29987"
         y="118.21054"
         id="tspan56">Secondary	Gunmetal	#2C3335	Main backgrounds, cards</tspan><tspan
         sodipodi:role="line"
         style="stroke-width:0.333333"
         x="-226.29987"
         y="124.1775"
         id="tspan57">Accent	Blood Red	#880808	Alerts, critical errors, &quot;Delete&quot;</tspan><tspan
         sodipodi:role="line"
         style="stroke-width:0.333333"
         x="-226.29987"
         y="130.14447"
         id="tspan58">Text	Silver Grey	#D1D1D1	Primary labels and icons</tspan><tspan
         sodipodi:role="line"
         style="stroke-width:0.333333"
         x="-226.29987"
         y="136.11142"
         id="tspan59">2. The &quot;Cryo-Tech&quot; Palette</tspan><tspan
         sodipodi:role="line"
         style="stroke-width:0.333333"
         x="-226.29987"
         y="142.07838"
         id="tspan60" /><tspan
         sodipodi:role="line"
         style="stroke-width:0.333333"
         x="-226.29987"
         y="148.04535"
         id="tspan61">Theme: Precision, speed, and clinical efficiency. Best for analytics or monitoring tools.</tspan><tspan
         sodipodi:role="line"
         style="stroke-width:0.333333"
         x="-226.29987"
         y="154.01231"
         id="tspan62">Element	Color Name	Hex Code	Usage</tspan><tspan
         sodipodi:role="line"
         style="stroke-width:0.333333"
         x="-226.29987"
         y="159.97928"
         id="tspan63">Primary	Icy Cyan	#00A3C4	Active states, primary text</tspan><tspan
         sodipodi:role="line"
         style="stroke-width:0.333333"
         x="-226.29987"
         y="165.94624"
         id="tspan64">Secondary	Frost White	#F0F8FF	Main background (light mode) or text</tspan><tspan
         sodipodi:role="line"
         style="stroke-width:0.333333"
         x="-226.29987"
         y="171.91321"
         id="tspan65">Accent	Subtle Silver	#BFC1C2	Borders, dividers, disabled states</tspan><tspan
         sodipodi:role="line"
         style="stroke-width:0.333333"
         x="-226.29987"
         y="177.88016"
         id="tspan66">Deep Note	Arctic Blue	#1A2A3A	Background (if dark mode)</tspan><tspan
         sodipodi:role="line"
         style="stroke-width:0.333333"
         x="-226.29987"
         y="183.84712"
         id="tspan67">3. The &quot;Infernal Core&quot; Palette</tspan><tspan
         sodipodi:role="line"
         style="stroke-width:0.333333"
         x="-226.29987"
         y="189.81409"
         id="tspan68" /><tspan
         sodipodi:role="line"
         style="stroke-width:0.333333"
         x="-226.29987"
         y="195.78105"
         id="tspan69">Theme: Power, luxury, and &quot;final boss&quot; energy. Best for advanced settings or high-performance modes.</tspan><tspan
         sodipodi:role="line"
         style="stroke-width:0.333333"
         x="-226.29987"
         y="201.74802"
         id="tspan70">Element	Color Name	Hex Code	Usage</tspan><tspan
         sodipodi:role="line"
         style="stroke-width:0.333333"
         x="-226.29987"
         y="207.71498"
         id="tspan71">Primary	Obsidian	#0B0B0C	Deepest background layers</tspan><tspan
         sodipodi:role="line"
         style="stroke-width:0.333333"
         x="-226.29987"
         y="213.68195"
         id="tspan72">Secondary	Deep Emerald	#043927	Subtle glows, secondary buttons</tspan><tspan
         sodipodi:role="line"
         style="stroke-width:0.333333"
         x="-226.29987"
         y="219.6489"
         id="tspan73">Accent	Ember Red	#FF4500	Highlights, hovering, CTA buttons</tspan><tspan
         sodipodi:role="line"
         style="stroke-width:0.333333"
         x="-226.29987"
         y="225.61586"
         id="tspan74">Mid-Tone	Charcoal	#1E1E1E	Section containers</tspan><tspan
         sodipodi:role="line"
         style="stroke-width:0.333333"
         x="-226.29987"
         y="231.58282"
         id="tspan75" /><tspan
         sodipodi:role="line"
         style="stroke-width:0.333333"
         x="-226.29987"
         y="237.54979"
         id="tspan76" /><tspan
         sodipodi:role="line"
         style="stroke-width:0.333333"
         x="-226.29987"
         y="243.51675"
         id="tspan77">The &quot;Glow&quot; Factor: For the Ember Red and Icy Cyan, use a slight CSS box-shadow or drop-shadow to give them that &quot;glowing&quot; feel against the dark backgrounds.</tspan><tspan
         sodipodi:role="line"
         style="stroke-width:0.333333"
         x="-226.29987"
         y="249.48372"
         id="tspan78" /><tspan
         sodipodi:role="line"
         style="stroke-width:0.333333"
         x="-226.29987"
         y="255.45068"
         id="tspan79">Balance: Since these are very dark and saturated palettes, ensure your text contrast ratios are high. Stick to the Silver/White tones for readability—don't put Blood Red text on Gunmetal!</tspan></text><rect
       style="opacity:1;fill:#1b2e21;fill-opacity:1;stroke:#ffffff;stroke-width:0.0320097;stroke-linecap:round;stroke-linejoin:round"
       id="rect79"
       width="12.504879"
       height="12.504879"
       x="89.237808"
       y="120.44139" /><rect
       style="opacity:1;fill:#2c3335;fill-opacity:1;stroke:#ffffff;stroke-width:0.0320097;stroke-linecap:round;stroke-linejoin:round"
       id="rect80"
       width="12.504879"
       height="12.504879"
       x="101.74268"
       y="120.44139" /><rect
       style="opacity:1;fill:#d1d1d1;fill-opacity:1;stroke:#ffffff;stroke-width:0.0320097;stroke-linecap:round;stroke-linejoin:round"
       id="rect81"
       width="12.504879"
       height="12.504879"
       x="101.74268"
       y="132.94627" /><rect
       style="opacity:1;fill:#880808;fill-opacity:1;stroke:#ffffff;stroke-width:0.0320097;stroke-linecap:round;stroke-linejoin:round"
       id="rect82"
       width="12.504879"
       height="12.504879"
       x="89.237808"
       y="132.94627" /><rect
       style="opacity:1;fill:#0b0b0c;fill-opacity:1;stroke:#ffffff;stroke-width:0.0320097;stroke-linecap:round;stroke-linejoin:round"
       id="rect83"
       width="12.504879"
       height="12.504879"
       x="165.67464"
       y="123.33841" /><rect
       style="opacity:1;fill:#043927;fill-opacity:1;stroke:#ffffff;stroke-width:0.0320097;stroke-linecap:round;stroke-linejoin:round"
       id="rect84"
       width="12.504879"
       height="12.504879"
       x="178.17952"
       y="123.33841" /><rect
       style="opacity:1;fill:#1e1e1e;fill-opacity:1;stroke:#ffffff;stroke-width:0.0320097;stroke-linecap:round;stroke-linejoin:round"
       id="rect85"
       width="12.504879"
       height="12.504879"
       x="178.17952"
       y="135.84329" /><rect
       style="opacity:1;fill:#ff4500;fill-opacity:1;stroke:#ffffff;stroke-width:0.0320097;stroke-linecap:round;stroke-linejoin:round"
       id="rect86"
       width="12.504879"
       height="12.504879"
       x="165.67464"
       y="135.84329" /><rect
       style="opacity:1;fill:#00a3c4;fill-opacity:1;stroke:#ffffff;stroke-width:0.0320097;stroke-linecap:round;stroke-linejoin:round"
       id="rect87"
       width="12.504879"
       height="12.504879"
       x="32.633141"
       y="119.44575" /><rect
       style="opacity:1;fill:#f0f8ff;fill-opacity:1;stroke:#ffffff;stroke-width:0.0320097;stroke-linecap:round;stroke-linejoin:round"
       id="rect88"
       width="12.504879"
       height="12.504879"
       x="45.138016"
       y="119.44575" /><rect
       style="opacity:1;fill:#1a2a3a;fill-opacity:1;stroke:#ffffff;stroke-width:0.0320097;stroke-linecap:round;stroke-linejoin:round"
       id="rect89"
       width="12.504879"
       height="12.504879"
       x="45.138016"
       y="131.95062" /><rect
       style="opacity:1;fill:#bfc1c2;fill-opacity:1;stroke:#ffffff;stroke-width:0.0320097;stroke-linecap:round;stroke-linejoin:round"
       id="rect90"
       width="12.504879"
       height="12.504879"
       x="32.633141"
       y="131.95062" /><path
       style="fill:#1a2a3a;fill-opacity:1;stroke-width:0.119015"
       d="m 18.775876,60.935278 c -0.216809,-0.25767 -0.23623,-0.48197 -0.07096,-0.81977 0.166,-0.33929 0.04686,-0.84131 -0.171843,-0.72425 -0.227034,0.12151 -0.431294,0.42506 -0.431294,0.64094 0,0.25191 -0.07354,0.27259 -0.153515,0.0432 -0.138483,-0.39726 0.0084,-0.64422 0.752123,-1.26459 0.681249,-0.56825 0.894023,-0.89671 0.806576,-1.24511 -0.03278,-0.1305 -0.04718,-0.11921 -0.291056,0.22808 -0.324434,0.46199 -0.676335,0.77841 -1.159847,1.04294 -0.26695,0.14604 -0.38982,0.24598 -0.412241,0.33531 -0.06567,0.26164 0.02223,0.73236 0.214511,1.14848 0.225639,0.48837 0.217567,0.53415 -0.04093,0.23214 -0.23335,-0.27261 -0.399021,-0.60445 -0.436839,-0.87497 -0.0156,-0.11148 -0.042,-0.23839 -0.05867,-0.28204 -0.01667,-0.0436 -0.02583,-0.0993 -0.0204,-0.12373 0.0132,-0.0587 -0.257186,0.13543 -0.383795,0.27552 -0.07602,0.0841 -0.09292,0.16083 -0.07115,0.32309 0.03032,0.22605 -0.02747,0.28004 -0.118216,0.11045 -0.200736,-0.37507 0.0072,-0.69871 0.792524,-1.23359 1.002316,-0.68267 1.079386,-0.79513 0.441741,-0.64461 -1.082968,0.25565 -1.765082,0.70335 -1.765082,1.15853 0,0.0448 -0.02381,0.0815 -0.05293,0.0815 -0.08283,0 -0.06196,-0.36159 0.03234,-0.56031 0.181663,-0.38282 0.765626,-0.73459 1.695218,-1.02116 0.964309,-0.29728 1.288415,-0.63801 1.310141,-1.37732 0.01339,-0.45501 -0.06063,-0.40592 0.67823,-0.44999 0.621522,-0.0371 0.621522,-0.0371 0.622684,0.29735 0.0025,0.76128 0.406449,1.20086 1.400574,1.52468 0.203648,0.0663 0.548791,0.20884 0.766984,0.31668 0.218192,0.10785 0.567643,0.26232 0.776558,0.34328 0.561315,0.21753 0.961701,0.61734 0.967833,0.96646 0.0019,0.12242 -0.09125,0.0674 -0.157626,-0.0928 -0.12342,-0.29796 -1.005777,-0.80996 -1.14901,-0.66673 -0.08295,0.083 0.111465,0.45508 0.380675,0.72862 0.160809,0.16339 0.292376,0.33538 0.292376,0.38219 0,0.11955 -0.04756,0.10617 -0.168311,-0.0474 -0.05728,-0.0729 -0.205821,-0.20238 -0.330036,-0.28785 -0.159906,-0.11001 -0.282562,-0.2633 -0.420066,-0.52498 -0.23275,-0.44293 -0.343305,-0.51904 -1.083397,-0.74594 -0.7974,-0.24446 -0.658462,0.003 0.353019,0.62774 0.847091,0.52353 1.075654,0.90268 0.84687,1.40482 -0.09962,0.21865 -0.144679,0.15528 -0.112343,-0.15799 0.02918,-0.28258 -0.291315,-0.76519 -0.508118,-0.76519 -0.108698,0 -0.100564,0.54815 0.01036,0.69818 0.125611,0.1699 0.09554,0.23866 -0.06151,0.14059 -0.05968,-0.0373 -0.117009,-0.0568 -0.127361,-0.0433 -0.01036,0.0135 -0.09502,0.14597 -0.188143,0.2945 -0.347631,0.55443 -0.481011,0.56192 -0.221047,0.0124 0.24919,-0.52675 0.145544,-0.68934 -0.651849,-1.02251 -0.355122,-0.14838 -0.339567,0.2423 0.01762,0.44306 0.225191,0.12657 0.316868,0.24975 0.316868,0.42576 0,0.1522 -0.08739,0.13688 -0.127348,-0.0223 -0.02141,-0.0852 -0.111976,-0.17122 -0.25699,-0.244 -0.381748,-0.1916 -0.461843,-0.29518 -0.463119,-0.59897 -0.0019,-0.3877 -0.36978,-0.67876 -0.492967,-0.38974 -0.04086,0.0958 -0.149579,0.26782 -0.241674,0.38229 -0.239192,0.29734 -0.206603,0.35134 0.312675,0.51801 0.749205,0.24046 0.874949,0.53254 0.433183,1.00618 -0.247649,0.26553 -0.345573,0.19146 -0.142323,-0.10765 0.242621,-0.35705 0.148354,-0.48756 -0.449806,-0.62272 -0.218085,-0.0493 -0.4582,-0.13314 -0.533583,-0.18635 -0.305475,-0.21563 -0.778952,0.57911 -0.573599,0.9628 0.101385,0.18945 0.02135,0.22346 -0.122763,0.0522 z m 0.617417,-1.75125 c 0.340394,-0.48019 0.2604,-0.6562 -0.14699,-0.32339 -0.377543,0.30842 -0.377543,0.30842 -0.359253,0.60978 0.01977,0.32585 0.107385,0.27629 0.506243,-0.28639 z m 2.569857,0.13657 c 0,-0.22716 -0.05785,-0.29208 -0.43828,-0.492 -0.4643,-0.24398 -0.858004,-0.62397 -1.111463,-1.07275 -0.194181,-0.34382 -0.194181,-0.34382 -0.193833,-0.0793 6.31e-4,0.53137 0.312232,0.91074 1.214617,1.4791 0.525183,0.33078 0.528959,0.33195 0.528959,0.16499 z m -2.706578,-7.50546 c 0.04105,-1.40543 -0.532983,-2.42345 -0.857563,-1.52081 -0.189001,0.52559 -0.460574,0.65778 -1.044151,0.50828 -0.437907,-0.11219 -0.448701,-0.1282 -0.293235,-0.43499 0.28337,-0.5592 0.609825,-0.72886 1.122061,-0.58314 0.15796,0.045 0.300208,0.0607 0.316098,0.0349 0.05053,-0.0818 -0.376431,-0.25869 -1.072244,-0.44435 -0.371031,-0.099 -0.741607,-0.20568 -0.823508,-0.23705 -0.33459,-0.12818 -0.497401,-0.0795 -0.613741,0.1835 -0.291846,0.65976 -0.583161,0.77884 -1.292748,0.52845 -0.459999,-0.16233 -0.44409,-0.13054 -0.230388,-0.46046 0.431188,-0.66567 0.693419,-0.769 1.298558,-0.5117 0.38958,0.16565 0.430739,0.0518 0.0831,-0.2299 -0.298761,-0.24208 -0.298761,-0.24208 -0.731483,-0.21508 -0.675179,0.0421 -0.847337,-0.089 -1.117356,-0.85096 -0.179339,-0.50608 -0.176529,-0.50908 0.478454,-0.50992 0.702481,-10e-4 0.936109,0.17707 1.080719,0.82327 0.09336,0.41718 0.744525,0.84537 1.521405,1.00044 0.229744,0.0459 -0.124349,-0.6793 -0.483348,-0.98987 -0.521584,-0.45122 -0.523586,-0.82938 -0.009,-1.6944 0.261234,-0.43913 0.264802,-0.43913 0.66971,0 0.655431,0.71082 0.679588,1.02427 0.137239,1.78067 -0.277667,0.38725 0.04528,0.84245 0.768506,1.08311 0.491034,0.1634 0.876623,0.41226 1.138993,0.7351 0.227294,0.27968 0.227294,0.27968 0.227294,-0.007 0,-0.48273 -0.250712,-0.78963 -0.68478,-0.83824 -0.550211,-0.0616 -0.699848,-0.26627 -0.760882,-1.04067 -0.02659,-0.33718 -0.02659,-0.33718 0.215969,-0.30394 0.667374,0.0915 0.965428,0.36738 1.005759,0.931 0.06483,0.9061 0.295193,0.71788 0.257672,-0.21054 -0.04345,-1.07559 -0.03164,-1.04045 -0.44445,-1.32238 -0.619116,-0.42285 -0.703051,-0.71616 -0.417786,-1.45993 0.224666,-0.58577 0.244472,-0.60266 0.499504,-0.42592 0.834567,0.57836 1.016962,1.00444 0.69837,1.63139 -0.269911,0.53114 -0.07159,1.05299 0.253573,0.66727 0.183842,-0.21808 0.223428,-0.30381 0.223674,-0.48436 0.0013,-0.73856 0.348522,-1.05065 1.255972,-1.12792 0.443042,-0.0377 0.440813,-0.0422 0.312258,0.62146 -0.146359,0.75555 -0.355817,0.95954 -1.02679,0.99997 -0.612118,0.0369 -0.85911,0.39261 -0.85911,1.23729 0,0.41905 0.279934,0.22507 0.334003,-0.23143 0.0629,-0.53101 0.312542,-0.75325 0.923807,-0.82241 0.465298,-0.0526 0.482527,-0.0395 0.425541,0.32386 -0.120515,0.76852 -0.324725,0.97497 -0.964404,0.97497 -0.397115,0 -0.397115,0 -0.529743,0.22631 -0.258695,0.44143 -0.233363,1.11315 0.02615,0.69326 0.128106,-0.20728 0.678874,-0.59213 1.058715,-0.73978 0.327472,-0.1273 0.323575,-0.12274 0.60668,-0.70945 0.358311,-0.74259 0.453614,-0.70616 0.209414,0.08 -0.07229,0.23274 -0.131795,0.42668 -0.13223,0.43099 -4.74e-4,0.004 0.183677,-0.038 0.409145,-0.0941 0.815235,-0.20259 1.080789,-0.40762 0.715783,-0.55264 -0.676531,-0.2688 -0.822694,-0.39476 -0.880968,-0.75917 -0.03088,-0.19331 0.0281,-0.76991 0.104555,-1.02193 0.03954,-0.13032 0.11576,-0.11742 0.529585,0.0896 0.697228,0.34883 0.878531,0.7049 0.68711,1.34948 -0.04674,0.15729 -0.08493,0.36177 -0.08493,0.45439 0,0.34899 -0.398542,0.62419 -1.295944,0.89487 -0.617877,0.18636 -1.072155,0.40401 -1.266165,0.60662 -0.228967,0.23912 0.01263,0.22416 0.473812,-0.0293 0.495676,-0.27246 0.81065,-0.18579 1.342805,0.3695 0.219835,0.22939 0.194617,0.27402 -0.285789,0.50572 -0.555498,0.2679 -0.771303,0.23877 -1.1457,-0.15468 -0.323607,-0.34009 -0.395189,-0.36624 -0.627137,-0.22923 -0.224186,0.13242 -0.290936,0.43977 -0.286572,1.3195 0.0038,0.74645 0.0038,0.74645 -0.486196,0.80666 -0.764805,0.094 -0.687419,0.16906 -0.663666,-0.64385 z"
       id="path90"
       sodipodi:nodetypes="cssssssssssssscsscssssssssccsscccsscssscssssssssssssscssssssssccssssssscsssssssccssssssscscscssssssssscssssssscssssscsssssssccscsccssscsssscsss" /><path
       style="fill:#00a3c4;fill-opacity:1;stroke-width:0.119015"
       d="m 11.695351,60.571188 c -0.516878,-0.63197 -0.55985,-1.08664 -0.138704,-1.46752 0.299487,-0.27086 0.349646,-0.78571 0.143144,-1.46925 -0.165691,-0.54847 -0.30358,-0.46426 -0.286136,0.17475 0.01857,0.68125 -0.193398,0.92342 -0.948369,1.08338 -0.5518476,0.11691 -0.5159616,0.14682 -0.4773096,-0.39769 0.05798,-0.81648 0.2074176,-1.00941 0.8640476,-1.11533 0.514459,-0.083 0.66791,-0.27755 0.726191,-0.92072 0.05671,-0.62566 -0.25176,-0.68916 -0.42472,-0.0874 -0.18976,0.66018 -0.321618,0.74858 -1.116561,0.74858 -0.6355798,0 -0.6101528,0.0225 -0.4552808,-0.40411 0.3106222,-0.85575 0.5639728,-1.04316 1.2082128,-0.89375 0.412808,0.0957 0.735721,-0.0263 1.037059,-0.39185 0.263456,-0.31962 -0.0083,-0.41226 -0.299842,-0.10223 -0.355677,0.37821 -0.70341,0.36461 -1.140907,-0.0446 -0.319539,-0.29889 -0.323082,-0.27391 0.0719,-0.50757 0.461401,-0.27296 0.702564,-0.26973 1.009845,0.0135 0.277098,0.25542 0.537517,0.23095 0.92548,-0.087 0.308551,-0.25283 0.211713,-0.32368 -0.313988,-0.22973 -0.640399,0.11444 -0.891521,-0.0284 -1.152711,-0.65584 -0.235573,-0.56587 -0.229024,-0.59311 0.153192,-0.63747 0.849182,-0.0986 1.211636,0.11414 1.374371,0.80655 0.09675,0.41163 0.596847,0.35351 1.690728,-0.19648 1.078906,-0.54246 2.076391,-0.75425 4.990154,-1.05955 2.125465,-0.2227 2.923199,-0.6141 3.853391,-1.89063 0.122151,-0.16763 0.228159,-0.31263 0.235573,-0.32223 0.0074,-0.01 0.111168,0.038 0.230565,0.1058 0.184878,0.10494 0.224338,0.11175 0.265946,0.0459 0.04206,-0.0667 0.09884,-0.0679 0.409025,-0.009 0.198097,0.0376 0.446049,0.0758 0.551008,0.0847 0.104953,0.009 0.243859,0.0446 0.308677,0.0794 0.274717,0.14702 0.31705,-0.71987 0.04339,-0.88899 -0.188401,-0.11644 -0.334804,-0.14629 -0.366597,-0.0748 -0.168849,0.37991 -1.457289,0.33318 -1.470855,-0.0534 -6.32e-4,-0.022 -0.07281,-0.13871 -0.160089,-0.2592 -0.20529,-0.28338 -0.209167,-0.2719 0.145462,-0.43088 0.770173,-0.34526 1.067191,-0.28889 1.451175,0.27544 0.163891,0.24086 0.572077,0.38005 0.572077,0.19506 0,-0.22701 -0.302071,-0.60731 -0.661279,-0.83253 -0.289003,-0.1812 -0.443225,-0.36239 -0.308455,-0.36239 0.09872,0 0.757162,0.40407 0.930065,0.57077 0.198355,0.19123 0.198355,0.19123 0.198355,-0.12552 0,-0.31676 0,-0.31676 -0.435702,-0.3751 -0.680832,-0.0911 -0.939584,-0.46079 -0.939584,-1.34225 0,-0.37212 0.03909,-0.38523 0.646418,-0.21683 0.635334,0.17617 0.83413,0.39972 0.834459,0.93834 1.13e-4,0.17721 0.03638,0.43904 0.08062,0.58185 0.12366,0.39925 0.10868,1.85728 -0.02577,2.50524 -0.15028,0.72442 -0.0846,0.67733 0.331672,-0.23784 0.382071,-0.83998 0.390414,-0.88978 0.227906,-1.36061 -0.259616,-0.75216 -0.188951,-0.98394 0.445783,-1.46222 0.504058,-0.37982 0.493201,-0.37756 0.594567,-0.1238 0.426634,1.06805 0.256996,1.65934 -0.553572,1.92953 -0.02571,0.009 -0.10789,0.23917 -0.182572,0.51241 -0.07468,0.27326 -0.181569,0.60364 -0.237531,0.7342 -0.05596,0.13055 -0.09239,0.24674 -0.08093,0.25818 0.05488,0.0549 0.538679,-0.19031 0.553862,-0.28069 0.133809,-0.79663 0.44044,-1.05867 1.177538,-1.00636 0.709195,0.0503 0.716281,0.0585 0.501329,0.58135 -0.323651,0.78714 -0.539949,0.91257 -1.324421,0.76802 -0.374845,-0.0691 -0.880178,0.18585 -1.234284,0.62265 -0.754641,0.93084 -0.727497,0.86611 -0.363174,0.86611 0.273063,0 0.2838,-0.006 0.374145,-0.19835 0.36661,-0.78184 0.701572,-0.92881 1.595633,-0.70014 0.541382,0.13846 0.545077,0.14403 0.338941,0.51074 -0.498026,0.88597 -0.75746,1.01428 -1.535597,0.75942 -0.679006,-0.22239 -1.004393,-0.126 -1.794555,0.53158 -0.509015,0.4236 -0.179061,0.59193 0.502541,0.25638 0.672097,-0.33087 1.014916,-0.22591 1.610872,0.49319 0.174874,0.21101 0.318314,0.39776 0.31875,0.41499 0.0025,0.10351 -0.896296,0.44316 -1.215798,0.45937 -0.508464,0.0258 -0.572132,-0.0251 -1.137249,-0.90921 -0.112096,-0.17537 -0.77827,-0.0512 -1.172157,0.21852 -0.803886,0.55044 -1.867167,0.94126 -2.900803,1.06623 -2.80864,0.33958 -3.212405,0.42255 -3.95194,0.81211 -1.174601,0.61872 -1.441652,2.29844 -0.529971,3.3335 0.0756,0.0858 0.06938,0.0926 -0.08535,0.0926 -0.273,0 -0.117705,0.20918 0.418966,0.56433 0.374852,0.24807 0.258013,0.2816 -0.512779,0.14719 -2.806372,-0.4894 -4.404057,-3.21707 -3.143222,-5.36633 0.170667,-0.29092 0.170667,-0.29092 -0.04838,-0.0793 -0.854878,0.82578 -0.812968,2.67292 0.08553,3.76941 0.308153,0.37606 0.140087,0.33292 -0.223611,-0.0574 -0.486778,-0.52241 -0.579795,-0.30083 -0.107442,0.25595 0.416832,0.49135 0.411274,0.70725 -0.03556,1.38006 -0.268162,0.40377 -0.274724,0.40484 -0.534859,0.0868 z"
       id="path91"
       sodipodi:nodetypes="csscssssssccssssscsscsssscccsccsccsssssssscsssscsssscsscscccsscsssssscsscssssscscsssscc" /><text
       xml:space="preserve"
       style="font-style:normal;font-variant:normal;font-weight:normal;font-stretch:normal;font-size:18.742px;line-height:1.25;font-family:Jomhuria;-inkscape-font-specification:'Jomhuria, Normal';font-variant-ligatures:normal;font-variant-caps:normal;font-variant-numeric:normal;font-variant-east-asian:normal;text-align:center;text-anchor:middle;fill:#1a2a3a;fill-opacity:1;stroke-width:1.27787"
       x="49.429329"
       y="166.60217"
       id="text91"><tspan
         sodipodi:role="line"
         id="tspan91"
         style="font-style:normal;font-variant:normal;font-weight:normal;font-stretch:normal;font-size:18.742px;font-family:Jomhuria;-inkscape-font-specification:'Jomhuria, Normal';font-variant-ligatures:normal;font-variant-caps:normal;font-variant-numeric:normal;font-variant-east-asian:normal;fill:#1a2a3a;fill-opacity:1;stroke-width:1.27787"
         x="49.429329"
         y="166.60217">Elivagar</tspan></text><text
       xml:space="preserve"
       style="font-style:normal;font-variant:normal;font-weight:normal;font-stretch:normal;font-size:18.742px;line-height:1.25;font-family:Jomhuria;-inkscape-font-specification:'Jomhuria, Normal';font-variant-ligatures:normal;font-variant-caps:normal;font-variant-numeric:normal;font-variant-east-asian:normal;text-align:center;text-anchor:middle;fill:#1b2e21;fill-opacity:1;stroke-width:1.27787"
       x="118.07222"
       y="55.308865"
       id="text92"><tspan
         sodipodi:role="line"
         id="tspan92"
         style="font-style:normal;font-variant:normal;font-weight:normal;font-stretch:normal;font-size:18.742px;font-family:Jomhuria;-inkscape-font-specification:'Jomhuria, Normal';font-variant-ligatures:normal;font-variant-caps:normal;font-variant-numeric:normal;font-variant-east-asian:normal;fill:#1b2e21;fill-opacity:1;stroke-width:1.27787"
         x="118.07222"
         y="55.308865">pbfhogg</tspan></text><path
       style="fill:url(#linearGradient93);stroke-width:0.119015"
       d="m 82.673275,56.043779 c -0.325862,-0.41852 -0.691947,-0.99261 -0.804044,-1.26089 -0.05596,-0.13391 -0.05564,-0.1347 0.08994,-0.22466 0.08034,-0.0496 0.240241,-0.16695 0.355324,-0.26068 0.209244,-0.17042 0.209244,-0.17042 0.724265,-0.07 0.283269,0.0552 0.56847,0.10042 0.63378,0.10042 0.176668,0 0.149858,0.0758 -0.136076,0.3846 -0.284425,0.3072 -0.277655,0.39269 0.09396,1.18686 0.150583,0.32181 0.150583,0.32181 -0.171565,0.34689 -0.609086,0.0474 -0.5864,0.0533 -0.785589,-0.20255 z m 7.458122,0.19329 c -0.08398,-0.031 -0.407876,-0.43318 -0.706265,-0.87695 -0.539822,-0.80283 -0.610021,-1.13336 -0.254905,-1.20023 0.0854,-0.016 0.385734,-0.0741 0.667418,-0.12893 0.281683,-0.0548 0.524696,-0.0997 0.540031,-0.0997 0.01535,0 0.04029,0.15621 0.05545,0.34713 0.05274,0.66332 0.264714,1.39184 0.525259,1.80506 0.0938,0.14877 0.0938,0.14877 -0.05545,0.15096 -0.0821,10e-4 -0.274232,0.008 -0.426969,0.0148 -0.152737,0.007 -0.307793,10e-4 -0.344575,-0.0121 z M 79.53148,56.063609 c -0.145847,-1.02607 -0.143119,-1.69527 0.0076,-1.87811 0.358551,-0.43482 0.39347,-0.59858 0.232876,-1.09215 -0.333876,-1.02613 -0.352116,-2.04711 -0.04901,-2.74246 0.02425,-0.0556 0.01067,-0.0694 -0.06817,-0.0694 -0.134637,0 -0.416693,-0.10305 -0.584468,-0.21354 -0.07637,-0.0503 -0.205581,-0.11339 -0.287141,-0.14022 -0.146895,-0.0483 -0.387281,-0.29054 -0.387281,-0.39023 0,-0.0396 0.02829,-0.0369 0.1227,0.0119 0.159306,0.0824 0.167352,0.0683 0.09025,-0.15797 -0.114856,-0.33709 -0.03663,-0.68206 0.232207,-1.02417 0.149238,-0.1899 0.136493,-0.19371 0.359404,0.10747 0.376948,0.50929 0.437288,0.81397 0.226902,1.14572 -0.143637,0.22649 -0.142841,0.20594 -0.0099,0.25621 0.356088,0.13467 0.468601,0.10362 0.639281,-0.17645 0.622141,-1.02088 1.633173,-1.54107 3.575832,-1.83981 0.447298,-0.0688 1.295526,-0.22085 1.884952,-0.33792 2.642639,-0.52486 3.13536,-0.49525 3.164254,0.1902 0.03189,0.75723 0.170036,1.0687 0.556976,1.25601 0.327263,0.15843 0.456241,0.0927 0.164945,-0.0841 -0.189021,-0.1147 -0.390401,-0.39112 -0.455395,-0.62509 -0.04749,-0.17084 -0.05286,-2.13061 -0.0057,-2.15961 0.128845,-0.0796 1.315762,0.77551 1.619809,1.16703 0.101416,0.1306 0.215237,0.23745 0.252935,0.23745 0.129047,0 0.749211,0.19722 1.014897,0.32275 0.467332,0.22081 0.642648,0.4276 1.166802,1.37625 0.351105,0.63547 0.328444,0.61529 1.317391,1.17338 0.385456,0.21752 0.139702,0.99665 -0.445417,1.41216 -0.232011,0.16476 -0.22999,0.15256 -0.08407,0.50642 0.115179,0.2793 0.115179,0.2793 -0.148764,0.34493 -0.33963,0.0845 -1.04743,0.36687 -1.603679,0.63987 -0.277895,0.13638 -0.4895,0.21509 -0.580294,0.21582 -0.147672,10e-4 -0.713376,0.10409 -1.709169,0.31085 -0.702829,0.14594 -0.706132,-0.0218 -0.01655,-0.84261 0.262434,-0.31241 0.262434,-0.31241 0.09414,-0.21819 -0.90282,0.50539 -1.522536,2.23913 -1.17875,3.2977 0.106601,0.32825 -0.827285,0.29019 -0.973284,-0.0397 -0.218647,-0.49399 -0.402628,-1.19177 -0.472688,-1.79269 -0.04547,-0.39014 -0.05116,-0.40707 -0.09786,-0.2926 -0.138281,0.33889 -2.256141,0.39711 -3.881729,0.10671 -0.45868,-0.0819 -0.453848,-0.073 -0.206572,-0.38328 0.421663,-0.52915 0.649493,-1.1541 0.610526,-1.67473 -0.02684,-0.35826 -0.09982,-0.56615 -0.104492,-0.29754 -0.02065,1.18962 -0.935321,2.36756 -2.410249,3.10406 -0.505681,0.2525 -0.646393,0.48572 -0.646393,1.07134 0,0.38462 -0.0025,0.38684 -0.476515,0.38684 -0.426924,0 -0.426924,0 -0.450892,-0.1686 z m 12.740647,-6.14118 c 0.03132,-0.16517 -0.372067,-0.51373 -0.594573,-0.51373 -0.130033,0 -0.09701,0.33706 0.04711,0.48121 0.136506,0.13651 0.523346,0.15949 0.54744,0.0325 z m -13.082544,-0.61349 c 0.03707,-0.11225 0.03038,-0.16454 -0.0425,-0.33404 -0.103241,-0.23999 -0.138792,-0.24957 -0.193605,-0.0522 -0.114749,0.41318 0.107346,0.77645 0.236135,0.38623 z m 10.931463,-0.96146 c 0.275646,-0.21994 -0.0097,-0.89134 -0.499794,-1.17621 -0.244718,-0.14222 -0.11653,0.83675 0.147887,1.12942 0.167592,0.18551 0.176553,0.1867 0.351907,0.0468 z m 5.188807,4.29358 c -0.482616,-0.0657 -0.469233,-0.0574 -0.349116,-0.21776 0.264379,-0.353 0.451979,-0.88919 0.453665,-1.29667 6.32e-4,-0.16647 6.32e-4,-0.16647 0.218553,-0.0915 0.217864,0.075 0.217864,0.075 0.502844,-0.022 0.336371,-0.11441 0.35043,-0.11579 0.35043,-0.0343 0,0.15053 -0.717343,1.72784 -0.780916,1.7171 -0.01781,-0.003 -0.195753,-0.0277 -0.39546,-0.0549 z m -1.205579,-0.16773 c -0.02166,-0.06 -0.06834,-0.17557 -0.103741,-0.2568 -0.06438,-0.14771 -0.06438,-0.14771 0.18472,-0.414 0.47097,-0.50346 0.64866,-1.27726 0.429015,-1.86818 -0.08405,-0.22612 -0.02829,-0.21247 0.162046,0.0397 0.589325,0.78069 0.559907,1.73736 -0.0742,2.41277 -0.231158,0.24621 -0.524892,0.28873 -0.597844,0.0865 z m 1.354571,-1.69123 c -0.110978,-0.0402 -0.143718,-0.0799 -0.185465,-0.2251 -0.05507,-0.19165 -0.177943,-0.96089 -0.15683,-0.982 0.0305,-0.0305 0.392928,0.52763 0.463928,0.7145 0.19185,0.50491 0.168943,0.59768 -0.121633,0.4926 z m -4.426705,-3.41827 c -0.108673,-0.0298 -0.220517,-0.0862 -0.248539,-0.12538 -0.129256,-0.18062 -0.611379,-0.62926 -0.856243,-0.79677 -0.250175,-0.17114 -0.26916,-0.19412 -0.247945,-0.30016 0.01263,-0.0632 0.02299,-0.15844 0.02299,-0.21173 0,-0.37808 1.201991,0.65572 1.542568,1.32672 0.09566,0.18846 0.09124,0.19069 -0.212805,0.10732 z"
       id="path92"
       sodipodi:nodetypes="ssssssssssssssssssssccssssssssssssssssssssssssssssssssssssssssssssccssssssssssssssccsssssssssssssssssssssss" /></g></svg>
