<?xml version="1.0" encoding="UTF-8" standalone="no"?>
<!-- Created with Inkscape (http://www.inkscape.org/) -->

<svg
   width="40.447662mm"
   height="8.9152079mm"
   viewBox="0 0 40.447662 8.9152079"
   version="1.1"
   id="svg1"
   sodipodi:docname="elivagar-logo-text.svg"
   xmlns:inkscape="http://www.inkscape.org/namespaces/inkscape"
   xmlns:sodipodi="http://sodipodi.sourceforge.net/DTD/sodipodi-0.dtd"
   xmlns="http://www.w3.org/2000/svg"
   xmlns:svg="http://www.w3.org/2000/svg">
  <sodipodi:namedview
     id="namedview1"
     pagecolor="#ffffff"
     bordercolor="#666666"
     borderopacity="1.0"
     inkscape:showpageshadow="2"
     inkscape:pageopacity="0.0"
     inkscape:pagecheckerboard="0"
     inkscape:deskcolor="#d1d1d1"
     inkscape:document-units="mm"
     showgrid="false"
     inkscape:zoom="2.0875421"
     inkscape:cx="-60.837097"
     inkscape:cy="176.28387"
     inkscape:window-width="3840"
     inkscape:window-height="2116"
     inkscape:window-maximized="1"
     inkscape:current-layer="layer1" />
  <defs
     id="defs1" />
  <g
     inkscape:label="Layer 1"
     inkscape:groupmode="layer"
     id="layer1"
     transform="translate(-125.33333,-89.666667)">
    <g
       id="g5"
       transform="matrix(0.44124844,0,0,0.44124844,121.14615,69.795385)">
      <path
         d="m 40.973802,61.009335 v -2.995326 l -4.528932,0.119813 v -3.187025 l 3.234951,0.239626 V 52.382798 H 36.44487 v -2.707774 l 4.109586,0.119813 0.239626,-2.827586 H 32.47906 v 14.042084 z m 1.090289,0 h 3.905904 V 45.313831 h -0.778784 l -3.845998,0.599065 v 1.114261 l 0.718878,0.431327 z m 5.487442,0 h 3.857979 V 50.825229 h -2.000878 l -2.575979,0.706897 v 1.281999 l 0.718878,0.443308 z M 49.288821,49.72295 h 0.45529 l 2.048802,-1.976915 V 47.32669 l -2.048802,-1.964934 h -0.45529 l -1.964933,1.964934 v 0.419345 z m 6.110492,11.286385 h 3.77411 l 3.055231,-10.184106 h -3.234951 l -0.886616,3.678259 -0.611046,3.175045 -0.55114,-3.175045 -0.766803,-3.678259 h -4.301287 z m 12.676188,-1.066336 0.383401,1.066336 h 3.282877 l -0.335477,-0.934542 v -4.876389 q 0,-1.317943 -0.203682,-2.168615 -0.203682,-0.862654 -0.694915,-1.413794 -0.479252,-0.563121 -1.258037,-0.790766 -0.778784,-0.239626 -1.976914,-0.239626 -1.353887,0 -2.659849,0.407364 -1.305962,0.395383 -2.12069,0.922561 l 0.766803,1.629456 q 0.45529,-0.239626 1.258037,-0.407364 0.802747,-0.179719 1.545587,-0.179719 0.862654,0 1.246056,0.299532 0.395383,0.299533 0.395383,1.030392 v 0.215663 q -0.407365,0 -0.850673,0.03594 -0.443308,0.03594 -1.006429,0.143776 -0.563121,0.107832 -1.078317,0.27557 -0.503215,0.155757 -1.006429,0.443308 -0.503215,0.27557 -0.862654,0.635009 -0.359439,0.359439 -0.587084,0.886616 -0.227644,0.515196 -0.227644,1.138224 0,3.199007 3.234951,3.199007 0.479252,0 0.934541,-0.143776 0.45529,-0.131794 0.766803,-0.323495 0.323496,-0.191701 0.563122,-0.383401 0.251607,-0.191701 0.37142,-0.335477 z m -0.946523,-0.790766 q -1.01841,0 -1.01841,-1.497663 0,-0.838691 0.431326,-1.234073 0.431327,-0.407365 1.162187,-0.407365 v 2.875512 q 0,0 -0.07189,0.07189 -0.07189,0.05991 -0.215664,0.131795 -0.131794,0.05991 -0.287551,0.05991 z m 10.411728,6.086501 q 4.984221,0 4.984221,-4.672708 v -8.003508 l 0.718878,-0.503215 V 50.933061 L 80.99132,50.825229 h -1.833139 l -0.203682,0.563121 q -1.090298,-0.658971 -2.575979,-0.658971 -0.982467,0 -1.761252,0.419345 -0.778784,0.407365 -1.270017,1.138224 -0.479252,0.718878 -0.73086,1.677382 -0.251607,0.946523 -0.251607,2.072765 0,2.408241 0.92256,3.762128 0.92256,1.353887 2.899475,1.353887 1.461718,0 2.480129,-1.054354 v 1.01841 q -0.01198,0.263589 -0.04793,0.479252 -0.02396,0.215664 -0.143776,0.479252 -0.119813,0.27557 -0.311514,0.45529 -0.1917,0.191701 -0.551139,0.311514 -0.347458,0.131794 -0.82671,0.131794 -0.479252,0 -1.150205,-0.191701 -0.670953,-0.191701 -0.970485,-0.419345 l -0.754822,1.641438 q 0.347457,0.383401 1.521625,0.802747 1.174167,0.431327 2.108709,0.431327 z m 0.383401,-6.26622 q -0.826709,0 -1.186148,-0.946523 -0.203682,-0.55114 -0.203682,-1.317943 v -1.857102 q 0.01198,-2.444185 1.605494,-2.456166 0.239626,0 0.527177,0.05991 v 6.314145 q -0.383402,0.203683 -0.742841,0.203683 z m 11.430151,0.970485 0.383402,1.066336 h 3.282876 l -0.335477,-0.934542 v -4.876389 q 0,-1.317943 -0.203682,-2.168615 -0.203682,-0.862654 -0.694915,-1.413794 -0.479252,-0.563121 -1.258037,-0.790766 -0.778784,-0.239626 -1.976914,-0.239626 -1.353887,0 -2.659849,0.407364 -1.305962,0.395383 -2.12069,0.922561 l 0.766803,1.629456 q 0.45529,-0.239626 1.258037,-0.407364 0.802747,-0.179719 1.545588,-0.179719 0.862653,0 1.246055,0.299532 0.395383,0.299533 0.395383,1.030392 v 0.215663 q -0.407365,0 -0.850673,0.03594 -0.443308,0.03594 -1.006429,0.143776 -0.563121,0.107832 -1.078317,0.27557 -0.503215,0.155757 -1.006429,0.443308 -0.503215,0.27557 -0.862654,0.635009 -0.359439,0.359439 -0.587084,0.886616 -0.227644,0.515196 -0.227644,1.138224 0,3.199007 3.234951,3.199007 0.479252,0 0.934541,-0.143776 0.45529,-0.131794 0.766804,-0.323495 0.323495,-0.191701 0.563121,-0.383401 0.251607,-0.191701 0.37142,-0.335477 z m -0.946523,-0.790766 q -1.01841,0 -1.01841,-1.497663 0,-0.838691 0.431327,-1.234073 0.431326,-0.407365 1.162186,-0.407365 v 2.875512 q 0,0 -0.07189,0.07189 -0.07189,0.05991 -0.215664,0.131795 -0.131794,0.05991 -0.287551,0.05991 z m 9.668885,1.857102 V 55.53388 q 0.347458,-0.64699 1.569551,-0.64699 0.850669,0 1.102279,0.227645 l 0.40736,-4.265343 q -0.32349,-0.107832 -0.62302,-0.107832 -2.659852,0 -3.151085,2.935419 l -0.347458,-2.85155 h -0.970485 l -2.57598,0.635009 v 1.353887 l 0.718878,0.443308 v 7.751902 z"
         id="text7"
         style="font-size:35.9439px;line-height:1.25;font-family:Jomhuria;-inkscape-font-specification:'Jomhuria, Normal';text-align:center;text-anchor:middle;fill:#1a2a3a;stroke-width:2.45073"
         aria-label="Elivagar" />
      <g
         id="g4">
        <path
           style="fill:#1a2a3a;fill-opacity:1;stroke-width:0.119015"
           d="m 18.775876,60.935278 c -0.216809,-0.25767 -0.23623,-0.48197 -0.07096,-0.81977 0.166,-0.33929 0.04686,-0.84131 -0.171843,-0.72425 -0.227034,0.12151 -0.431294,0.42506 -0.431294,0.64094 0,0.25191 -0.07354,0.27259 -0.153515,0.0432 -0.138483,-0.39726 0.0084,-0.64422 0.752123,-1.26459 0.681249,-0.56825 0.894023,-0.89671 0.806576,-1.24511 -0.03278,-0.1305 -0.04718,-0.11921 -0.291056,0.22808 -0.324434,0.46199 -0.676335,0.77841 -1.159847,1.04294 -0.26695,0.14604 -0.38982,0.24598 -0.412241,0.33531 -0.06567,0.26164 0.02223,0.73236 0.214511,1.14848 0.225639,0.48837 0.217567,0.53415 -0.04093,0.23214 -0.23335,-0.27261 -0.399021,-0.60445 -0.436839,-0.87497 -0.0156,-0.11148 -0.042,-0.23839 -0.05867,-0.28204 -0.01667,-0.0436 -0.02583,-0.0993 -0.0204,-0.12373 0.0132,-0.0587 -0.257186,0.13543 -0.383795,0.27552 -0.07602,0.0841 -0.09292,0.16083 -0.07115,0.32309 0.03032,0.22605 -0.02747,0.28004 -0.118216,0.11045 -0.200736,-0.37507 0.0072,-0.69871 0.792524,-1.23359 1.002316,-0.68267 1.079386,-0.79513 0.441741,-0.64461 -1.082968,0.25565 -1.765082,0.70335 -1.765082,1.15853 0,0.0448 -0.02381,0.0815 -0.05293,0.0815 -0.08283,0 -0.06196,-0.36159 0.03234,-0.56031 0.181663,-0.38282 0.765626,-0.73459 1.695218,-1.02116 0.964309,-0.29728 1.288415,-0.63801 1.310141,-1.37732 0.01339,-0.45501 -0.06063,-0.40592 0.67823,-0.44999 0.621522,-0.0371 0.621522,-0.0371 0.622684,0.29735 0.0025,0.76128 0.406449,1.20086 1.400574,1.52468 0.203648,0.0663 0.548791,0.20884 0.766984,0.31668 0.218192,0.10785 0.567643,0.26232 0.776558,0.34328 0.561315,0.21753 0.961701,0.61734 0.967833,0.96646 0.0019,0.12242 -0.09125,0.0674 -0.157626,-0.0928 -0.12342,-0.29796 -1.005777,-0.80996 -1.14901,-0.66673 -0.08295,0.083 0.111465,0.45508 0.380675,0.72862 0.160809,0.16339 0.292376,0.33538 0.292376,0.38219 0,0.11955 -0.04756,0.10617 -0.168311,-0.0474 -0.05728,-0.0729 -0.205821,-0.20238 -0.330036,-0.28785 -0.159906,-0.11001 -0.282562,-0.2633 -0.420066,-0.52498 -0.23275,-0.44293 -0.343305,-0.51904 -1.083397,-0.74594 -0.7974,-0.24446 -0.658462,0.003 0.353019,0.62774 0.847091,0.52353 1.075654,0.90268 0.84687,1.40482 -0.09962,0.21865 -0.144679,0.15528 -0.112343,-0.15799 0.02918,-0.28258 -0.291315,-0.76519 -0.508118,-0.76519 -0.108698,0 -0.100564,0.54815 0.01036,0.69818 0.125611,0.1699 0.09554,0.23866 -0.06151,0.14059 -0.05968,-0.0373 -0.117009,-0.0568 -0.127361,-0.0433 -0.01036,0.0135 -0.09502,0.14597 -0.188143,0.2945 -0.347631,0.55443 -0.481011,0.56192 -0.221047,0.0124 0.24919,-0.52675 0.145544,-0.68934 -0.651849,-1.02251 -0.355122,-0.14838 -0.339567,0.2423 0.01762,0.44306 0.225191,0.12657 0.316868,0.24975 0.316868,0.42576 0,0.1522 -0.08739,0.13688 -0.127348,-0.0223 -0.02141,-0.0852 -0.111976,-0.17122 -0.25699,-0.244 -0.381748,-0.1916 -0.461843,-0.29518 -0.463119,-0.59897 -0.0019,-0.3877 -0.36978,-0.67876 -0.492967,-0.38974 -0.04086,0.0958 -0.149579,0.26782 -0.241674,0.38229 -0.239192,0.29734 -0.206603,0.35134 0.312675,0.51801 0.749205,0.24046 0.874949,0.53254 0.433183,1.00618 -0.247649,0.26553 -0.345573,0.19146 -0.142323,-0.10765 0.242621,-0.35705 0.148354,-0.48756 -0.449806,-0.62272 -0.218085,-0.0493 -0.4582,-0.13314 -0.533583,-0.18635 -0.305475,-0.21563 -0.778952,0.57911 -0.573599,0.9628 0.101385,0.18945 0.02135,0.22346 -0.122763,0.0522 z m 0.617417,-1.75125 c 0.340394,-0.48019 0.2604,-0.6562 -0.14699,-0.32339 -0.377543,0.30842 -0.377543,0.30842 -0.359253,0.60978 0.01977,0.32585 0.107385,0.27629 0.506243,-0.28639 z m 2.569857,0.13657 c 0,-0.22716 -0.05785,-0.29208 -0.43828,-0.492 -0.4643,-0.24398 -0.858004,-0.62397 -1.111463,-1.07275 -0.194181,-0.34382 -0.194181,-0.34382 -0.193833,-0.0793 6.31e-4,0.53137 0.312232,0.91074 1.214617,1.4791 0.525183,0.33078 0.528959,0.33195 0.528959,0.16499 z m -2.706578,-7.50546 c 0.04105,-1.40543 -0.532983,-2.42345 -0.857563,-1.52081 -0.189001,0.52559 -0.460574,0.65778 -1.044151,0.50828 -0.437907,-0.11219 -0.448701,-0.1282 -0.293235,-0.43499 0.28337,-0.5592 0.609825,-0.72886 1.122061,-0.58314 0.15796,0.045 0.300208,0.0607 0.316098,0.0349 0.05053,-0.0818 -0.376431,-0.25869 -1.072244,-0.44435 -0.371031,-0.099 -0.741607,-0.20568 -0.823508,-0.23705 -0.33459,-0.12818 -0.497401,-0.0795 -0.613741,0.1835 -0.291846,0.65976 -0.583161,0.77884 -1.292748,0.52845 -0.459999,-0.16233 -0.44409,-0.13054 -0.230388,-0.46046 0.431188,-0.66567 0.693419,-0.769 1.298558,-0.5117 0.38958,0.16565 0.430739,0.0518 0.0831,-0.2299 -0.298761,-0.24208 -0.298761,-0.24208 -0.731483,-0.21508 -0.675179,0.0421 -0.847337,-0.089 -1.117356,-0.85096 -0.179339,-0.50608 -0.176529,-0.50908 0.478454,-0.50992 0.702481,-10e-4 0.936109,0.17707 1.080719,0.82327 0.09336,0.41718 0.744525,0.84537 1.521405,1.00044 0.229744,0.0459 -0.124349,-0.6793 -0.483348,-0.98987 -0.521584,-0.45122 -0.523586,-0.82938 -0.009,-1.6944 0.261234,-0.43913 0.264802,-0.43913 0.66971,0 0.655431,0.71082 0.679588,1.02427 0.137239,1.78067 -0.277667,0.38725 0.04528,0.84245 0.768506,1.08311 0.491034,0.1634 0.876623,0.41226 1.138993,0.7351 0.227294,0.27968 0.227294,0.27968 0.227294,-0.007 0,-0.48273 -0.250712,-0.78963 -0.68478,-0.83824 -0.550211,-0.0616 -0.699848,-0.26627 -0.760882,-1.04067 -0.02659,-0.33718 -0.02659,-0.33718 0.215969,-0.30394 0.667374,0.0915 0.965428,0.36738 1.005759,0.931 0.06483,0.9061 0.295193,0.71788 0.257672,-0.21054 -0.04345,-1.07559 -0.03164,-1.04045 -0.44445,-1.32238 -0.619116,-0.42285 -0.703051,-0.71616 -0.417786,-1.45993 0.224666,-0.58577 0.244472,-0.60266 0.499504,-0.42592 0.834567,0.57836 1.016962,1.00444 0.69837,1.63139 -0.269911,0.53114 -0.07159,1.05299 0.253573,0.66727 0.183842,-0.21808 0.223428,-0.30381 0.223674,-0.48436 0.0013,-0.73856 0.348522,-1.05065 1.255972,-1.12792 0.443042,-0.0377 0.440813,-0.0422 0.312258,0.62146 -0.146359,0.75555 -0.355817,0.95954 -1.02679,0.99997 -0.612118,0.0369 -0.85911,0.39261 -0.85911,1.23729 0,0.41905 0.279934,0.22507 0.334003,-0.23143 0.0629,-0.53101 0.312542,-0.75325 0.923807,-0.82241 0.465298,-0.0526 0.482527,-0.0395 0.425541,0.32386 -0.120515,0.76852 -0.324725,0.97497 -0.964404,0.97497 -0.397115,0 -0.397115,0 -0.529743,0.22631 -0.258695,0.44143 -0.233363,1.11315 0.02615,0.69326 0.128106,-0.20728 0.678874,-0.59213 1.058715,-0.73978 0.327472,-0.1273 0.323575,-0.12274 0.60668,-0.70945 0.358311,-0.74259 0.453614,-0.70616 0.209414,0.08 -0.07229,0.23274 -0.131795,0.42668 -0.13223,0.43099 -4.74e-4,0.004 0.183677,-0.038 0.409145,-0.0941 0.815235,-0.20259 1.080789,-0.40762 0.715783,-0.55264 -0.676531,-0.2688 -0.822694,-0.39476 -0.880968,-0.75917 -0.03088,-0.19331 0.0281,-0.76991 0.104555,-1.02193 0.03954,-0.13032 0.11576,-0.11742 0.529585,0.0896 0.697228,0.34883 0.878531,0.7049 0.68711,1.34948 -0.04674,0.15729 -0.08493,0.36177 -0.08493,0.45439 0,0.34899 -0.398542,0.62419 -1.295944,0.89487 -0.617877,0.18636 -1.072155,0.40401 -1.266165,0.60662 -0.228967,0.23912 0.01263,0.22416 0.473812,-0.0293 0.495676,-0.27246 0.81065,-0.18579 1.342805,0.3695 0.219835,0.22939 0.194617,0.27402 -0.285789,0.50572 -0.555498,0.2679 -0.771303,0.23877 -1.1457,-0.15468 -0.323607,-0.34009 -0.395189,-0.36624 -0.627137,-0.22923 -0.224186,0.13242 -0.290936,0.43977 -0.286572,1.3195 0.0038,0.74645 0.0038,0.74645 -0.486196,0.80666 -0.764805,0.094 -0.687419,0.16906 -0.663666,-0.64385 z"
           id="path90"
           sodipodi:nodetypes="cssssssssssssscsscssssssssccsscccsscssscssssssssssssscssssssssccssssssscsssssssccssssssscscscssssssssscssssssscssssscsssssssccscsccssscsssscsss" />
        <path
           style="fill:#00a3c4;fill-opacity:1;stroke-width:0.119015"
           d="m 11.695351,60.571188 c -0.516878,-0.63197 -0.55985,-1.08664 -0.138704,-1.46752 0.299487,-0.27086 0.349646,-0.78571 0.143144,-1.46925 -0.165691,-0.54847 -0.30358,-0.46426 -0.286136,0.17475 0.01857,0.68125 -0.193398,0.92342 -0.948369,1.08338 -0.5518476,0.11691 -0.5159616,0.14682 -0.4773096,-0.39769 0.05798,-0.81648 0.2074176,-1.00941 0.8640476,-1.11533 0.514459,-0.083 0.66791,-0.27755 0.726191,-0.92072 0.05671,-0.62566 -0.25176,-0.68916 -0.42472,-0.0874 -0.18976,0.66018 -0.321618,0.74858 -1.116561,0.74858 -0.6355798,0 -0.6101528,0.0225 -0.4552808,-0.40411 0.3106222,-0.85575 0.5639728,-1.04316 1.2082128,-0.89375 0.412808,0.0957 0.735721,-0.0263 1.037059,-0.39185 0.263456,-0.31962 -0.0083,-0.41226 -0.299842,-0.10223 -0.355677,0.37821 -0.70341,0.36461 -1.140907,-0.0446 -0.319539,-0.29889 -0.323082,-0.27391 0.0719,-0.50757 0.461401,-0.27296 0.702564,-0.26973 1.009845,0.0135 0.277098,0.25542 0.537517,0.23095 0.92548,-0.087 0.308551,-0.25283 0.211713,-0.32368 -0.313988,-0.22973 -0.640399,0.11444 -0.891521,-0.0284 -1.152711,-0.65584 -0.235573,-0.56587 -0.229024,-0.59311 0.153192,-0.63747 0.849182,-0.0986 1.211636,0.11414 1.374371,0.80655 0.09675,0.41163 0.596847,0.35351 1.690728,-0.19648 1.078906,-0.54246 2.076391,-0.75425 4.990154,-1.05955 2.125465,-0.2227 2.923199,-0.6141 3.853391,-1.89063 0.122151,-0.16763 0.228159,-0.31263 0.235573,-0.32223 0.0074,-0.01 0.111168,0.038 0.230565,0.1058 0.184878,0.10494 0.224338,0.11175 0.265946,0.0459 0.04206,-0.0667 0.09884,-0.0679 0.409025,-0.009 0.198097,0.0376 0.446049,0.0758 0.551008,0.0847 0.104953,0.009 0.243859,0.0446 0.308677,0.0794 0.274717,0.14702 0.31705,-0.71987 0.04339,-0.88899 -0.188401,-0.11644 -0.334804,-0.14629 -0.366597,-0.0748 -0.168849,0.37991 -1.457289,0.33318 -1.470855,-0.0534 -6.32e-4,-0.022 -0.07281,-0.13871 -0.160089,-0.2592 -0.20529,-0.28338 -0.209167,-0.2719 0.145462,-0.43088 0.770173,-0.34526 1.067191,-0.28889 1.451175,0.27544 0.163891,0.24086 0.572077,0.38005 0.572077,0.19506 0,-0.22701 -0.302071,-0.60731 -0.661279,-0.83253 -0.289003,-0.1812 -0.443225,-0.36239 -0.308455,-0.36239 0.09872,0 0.757162,0.40407 0.930065,0.57077 0.198355,0.19123 0.198355,0.19123 0.198355,-0.12552 0,-0.31676 0,-0.31676 -0.435702,-0.3751 -0.680832,-0.0911 -0.939584,-0.46079 -0.939584,-1.34225 0,-0.37212 0.03909,-0.38523 0.646418,-0.21683 0.635334,0.17617 0.83413,0.39972 0.834459,0.93834 1.13e-4,0.17721 0.03638,0.43904 0.08062,0.58185 0.12366,0.39925 0.10868,1.85728 -0.02577,2.50524 -0.15028,0.72442 -0.0846,0.67733 0.331672,-0.23784 0.382071,-0.83998 0.390414,-0.88978 0.227906,-1.36061 -0.259616,-0.75216 -0.188951,-0.98394 0.445783,-1.46222 0.504058,-0.37982 0.493201,-0.37756 0.594567,-0.1238 0.426634,1.06805 0.256996,1.65934 -0.553572,1.92953 -0.02571,0.009 -0.10789,0.23917 -0.182572,0.51241 -0.07468,0.27326 -0.181569,0.60364 -0.237531,0.7342 -0.05596,0.13055 -0.09239,0.24674 -0.08093,0.25818 0.05488,0.0549 0.538679,-0.19031 0.553862,-0.28069 0.133809,-0.79663 0.44044,-1.05867 1.177538,-1.00636 0.709195,0.0503 0.716281,0.0585 0.501329,0.58135 -0.323651,0.78714 -0.539949,0.91257 -1.324421,0.76802 -0.374845,-0.0691 -0.880178,0.18585 -1.234284,0.62265 -0.754641,0.93084 -0.727497,0.86611 -0.363174,0.86611 0.273063,0 0.2838,-0.006 0.374145,-0.19835 0.36661,-0.78184 0.701572,-0.92881 1.595633,-0.70014 0.541382,0.13846 0.545077,0.14403 0.338941,0.51074 -0.498026,0.88597 -0.75746,1.01428 -1.535597,0.75942 -0.679006,-0.22239 -1.004393,-0.126 -1.794555,0.53158 -0.509015,0.4236 -0.179061,0.59193 0.502541,0.25638 0.672097,-0.33087 1.014916,-0.22591 1.610872,0.49319 0.174874,0.21101 0.318314,0.39776 0.31875,0.41499 0.0025,0.10351 -0.896296,0.44316 -1.215798,0.45937 -0.508464,0.0258 -0.572132,-0.0251 -1.137249,-0.90921 -0.112096,-0.17537 -0.77827,-0.0512 -1.172157,0.21852 -0.803886,0.55044 -1.867167,0.94126 -2.900803,1.06623 -2.80864,0.33958 -3.212405,0.42255 -3.95194,0.81211 -1.174601,0.61872 -1.441652,2.29844 -0.529971,3.3335 0.0756,0.0858 0.06938,0.0926 -0.08535,0.0926 -0.273,0 -0.117705,0.20918 0.418966,0.56433 0.374852,0.24807 0.258013,0.2816 -0.512779,0.14719 -2.806372,-0.4894 -4.404057,-3.21707 -3.143222,-5.36633 0.170667,-0.29092 0.170667,-0.29092 -0.04838,-0.0793 -0.854878,0.82578 -0.812968,2.67292 0.08553,3.76941 0.308153,0.37606 0.140087,0.33292 -0.223611,-0.0574 -0.486778,-0.52241 -0.579795,-0.30083 -0.107442,0.25595 0.416832,0.49135 0.411274,0.70725 -0.03556,1.38006 -0.268162,0.40377 -0.274724,0.40484 -0.534859,0.0868 z"
           id="path91"
           sodipodi:nodetypes="csscssssssccssssscsscsssscccsccsccsssssssscsssscsssscsscscccsscsssssscsscssssscscsssscc" />
      </g>
    </g>
  </g>
</svg>
