<?xml version="1.0" encoding="UTF-8" standalone="no"?>
<!-- Created with Inkscape (http://www.inkscape.org/) -->

<svg
   width="210mm"
   height="297mm"
   viewBox="0 0 210 297"
   version="1.1"
   id="svg1"
   sodipodi:docname="elivagar.svg"
   xml:space="preserve"
   xmlns:inkscape="http://www.inkscape.org/namespaces/inkscape"
   xmlns:sodipodi="http://sodipodi.sourceforge.net/DTD/sodipodi-0.dtd"
   xmlns:xlink="http://www.w3.org/1999/xlink"
   xmlns="http://www.w3.org/2000/svg"
   xmlns:svg="http://www.w3.org/2000/svg"><sodipodi:namedview
     id="namedview1"
     pagecolor="#ffffff"
     bordercolor="#666666"
     borderopacity="1.0"
     inkscape:showpageshadow="2"
     inkscape:pageopacity="0.0"
     inkscape:pagecheckerboard="0"
     inkscape:deskcolor="#d1d1d1"
     inkscape:document-units="mm"
     showgrid="false"
     inkscape:zoom="8.4983165"
     inkscape:cx="105.78566"
     inkscape:cy="118.19988"
     inkscape:window-width="3840"
     inkscape:window-height="2116"
     inkscape:window-maximized="1"
     inkscape:current-layer="layer1"
     showguides="true"><sodipodi:guide
       position="79.257119,211.2658"
       orientation="0,-1"
       id="guide1"
       inkscape:locked="false" /><sodipodi:guide
       position="58.679514,194.37275"
       orientation="0,-1"
       id="guide2"
       inkscape:locked="false" /><sodipodi:guide
       position="8.4662944,257.92762"
       orientation="1,0"
       id="guide5"
       inkscape:locked="false" /></sodipodi:namedview><defs
     id="defs1"><linearGradient
       id="linearGradient91"
       inkscape:collect="always"><stop
         style="stop-color:#880808;stop-opacity:1;"
         offset="0"
         id="stop91" /><stop
         style="stop-color:#2c3335;stop-opacity:1;"
         offset="1"
         id="stop92" /></linearGradient><linearGradient
       inkscape:collect="always"
       xlink:href="#linearGradient91"
       id="linearGradient92"
       x1="77.769363"
       y1="172.13402"
       x2="84.25235"
       y2="155.24525"
       gradientUnits="userSpaceOnUse"
       gradientTransform="translate(-1.9665293,-140.33263)" /><linearGradient
       inkscape:collect="always"
       xlink:href="#linearGradient91"
       id="linearGradient93"
       gradientUnits="userSpaceOnUse"
       x1="77.769363"
       y1="172.13402"
       x2="84.25235"
       y2="155.24525"
       gradientTransform="translate(-1.1900431,-3.0978428)" /></defs><g
     inkscape:label="Layer 1"
     inkscape:groupmode="layer"
     id="layer1"><text
       xml:space="preserve"
       style="font-style:normal;font-variant:normal;font-weight:normal;font-stretch:normal;font-size:18.742px;line-height:1.25;font-family:Jomhuria;-inkscape-font-specification:'Jomhuria, Normal';font-variant-ligatures:normal;font-variant-caps:normal;font-variant-numeric:normal;font-variant-east-asian:normal;text-align:center;text-anchor:middle;stroke-width:1.27787;fill:#1b2e21;fill-opacity:1"
       x="111.64203"
       y="167.9381"
       id="text21"><tspan
         sodipodi:role="line"
         id="tspan21"
         style="font-style:normal;font-variant:normal;font-weight:normal;font-stretch:normal;font-size:18.742px;font-family:Jomhuria;-inkscape-font-specification:'Jomhuria, Normal';font-variant-ligatures:normal;font-variant-caps:normal;font-variant-numeric:normal;font-variant-east-asian:normal;stroke-width:1.27787;fill:#1b2e21;fill-opacity:1"
         x="111.64203"
         y="167.9381">pbfhogg</tspan></text><text
       xml:space="preserve"
       style="font-style:normal;font-variant:normal;font-weight:normal;font-stretch:normal;font-size:18.742px;line-height:1.25;font-family:Jomhuria;-inkscape-font-specification:'Jomhuria, Normal';font-variant-ligatures:normal;font-variant-caps:normal;font-variant-numeric:normal;font-variant-east-asian:normal;text-align:center;text-anchor:middle;stroke-width:1.27787;fill:#043927;fill-opacity:1"
       x="184.02219"
       y="168.32666"
       id="text27"><tspan
         sodipodi:role="line"
         id="tspan27"
         style="font-style:normal;font-variant:normal;font-weight:normal;font-stretch:normal;font-size:18.742px;font-family:Jomhuria;-inkscape-font-specification:'Jomhuria, Normal';font-variant-ligatures:normal;font-variant-caps:normal;font-variant-numeric:normal;font-variant-east-asian:normal;stroke-width:1.27787;fill:#043927;fill-opacity:1"
         x="184.02219"
         y="168.32666">Nidhogg</tspan></text><path
       style="fill:#043927;stroke-width:0.0768932;fill-opacity:1"
       d="m 154.66673,171.99896 c -0.69856,-0.0361 -1.37237,-0.19892 -2.04448,-0.4939 -0.21843,-0.0959 -0.21359,-0.0974 -0.4362,0.13452 -0.14296,0.14893 -0.90298,0.29023 -0.90266,0.16782 7e-5,-0.0356 0.27866,-0.3815 0.4293,-0.53301 0.0896,-0.0902 0.15374,-0.17175 0.14241,-0.1813 -0.0114,-0.01 -0.11864,-0.0928 -0.23847,-0.18506 -2.32618,-1.79066 -1.974,-4.9857 0.67013,-6.0794 0.58448,-0.24176 0.86518,-0.27365 2.62346,-0.29796 1.65837,-0.0229 1.84833,-0.0408 2.34842,-0.22036 2.17554,-0.78127 2.01352,-3.52408 -0.24667,-4.17599 -0.51418,-0.1483 -1.40642,-0.18477 -1.53481,-0.0627 -0.0705,0.067 0.3978,0.38734 0.67302,0.46034 0.13385,0.0355 0.11908,0.0559 -0.0913,0.12626 -0.3537,0.11824 -0.81103,0.094 -1.17279,-0.0622 -0.27673,-0.11948 -0.27368,-0.0847 0.0247,0.28164 0.14679,0.18022 0.14608,0.18088 -0.10412,0.0964 -1.03072,-0.34784 -2.93391,0.54947 -2.87619,1.35607 0.011,0.15443 0.007,0.17565 -0.0288,0.16565 -0.0228,-0.006 -0.10492,-0.0292 -0.18245,-0.0509 -0.4186,-0.11703 -0.86614,-0.57249 -0.93778,-0.95438 -0.0226,-0.12047 -0.0184,-0.1218 0.1971,-0.0621 0.10372,0.0288 0.20908,0.0523 0.23413,0.0523 0.06,0 1.72935,-1.32323 1.70282,-1.34976 -0.0492,-0.0492 -2.18819,0.75431 -2.31698,0.87036 -0.0619,0.0558 -0.12241,0.20331 -0.14823,0.36127 -0.0163,0.0998 -0.0163,0.0998 -0.14435,-0.0256 -0.57059,-0.55864 -0.60149,-1.19636 -0.0778,-1.60667 0.15678,-0.12285 0.15678,-0.12285 0.17266,-0.0512 0.0653,0.29413 -0.004,0.30349 0.68184,-0.0924 0.57255,-0.33054 0.57255,-0.33054 0.56355,-0.64718 -0.009,-0.31665 -0.009,-0.31665 0.16661,-0.40287 1.0717,-0.52622 1.84248,-1.22436 2.49407,-2.25902 0.0581,-0.0923 0.0655,0.23187 0.0117,0.51262 -0.0801,0.41729 1.00048,-1.09601 1.28109,-1.79417 0.0682,-0.16967 0.0982,-0.0532 0.0991,0.38446 0.001,0.64091 -0.2619,1.32519 -0.75285,1.9575 -0.0723,0.0931 -0.0228,0.0817 0.23361,-0.0536 0.79353,-0.41863 1.51576,-1.10572 1.89295,-1.80085 0.13025,-0.24004 0.14388,-0.21395 0.12473,0.23862 -0.0209,0.4943 -0.16643,0.94803 -0.43245,1.34842 -0.0548,0.0824 -0.0553,0.0868 -0.008,0.0676 0.91495,-0.37372 1.72998,-0.46706 2.54516,-0.29147 0.13663,0.0294 0.13663,0.0294 -0.0384,0.0921 -0.24629,0.0881 -0.47507,0.24559 -0.59826,0.41186 -0.11483,0.155 -0.11341,0.16062 0.0515,0.20576 0.0634,0.0174 0.19031,0.0586 0.28194,0.0917 0.11015,0.0397 0.25297,0.0656 0.42149,0.0761 0.63403,0.0399 1.26077,0.26081 1.76035,0.62051 0.31986,0.2303 0.31964,0.2268 0.0142,0.2268 -0.27177,0 -0.42246,0.0471 -0.60479,0.18912 -0.062,0.0483 -0.062,0.0483 0.0437,0.16101 0.0581,0.062 0.14876,0.16804 0.2014,0.23561 0.0527,0.0676 0.13097,0.14108 0.17405,0.16336 0.63982,0.33087 1.25468,1.01245 1.43579,1.59164 0.0187,0.0596 0.0187,0.0596 -0.0798,-0.005 -0.30343,-0.20029 -0.78195,-0.20934 -0.72584,-0.0137 0.0136,0.0474 0.0416,0.21496 0.0622,0.37233 0.0306,0.23332 0.0523,0.31116 0.11749,0.42175 0.31704,0.5377 0.53562,1.75658 0.36513,2.03616 -0.0293,0.0479 -0.0313,0.0482 -0.032,0.004 -0.001,-0.0897 -0.16356,-0.35317 -0.28085,-0.45645 -0.19889,-0.17514 -0.19595,-0.17572 -0.2459,0.0496 -0.32837,1.4813 -1.49772,2.77518 -2.96927,3.28551 -0.82309,0.28546 -1.31443,0.33013 -3.66864,0.33359 -1.75558,0.003 -2.31678,0.25513 -2.49654,1.12349 -0.11251,0.5435 0.28953,1.43924 0.60065,1.33824 0.91554,-0.29722 1.40424,-0.90772 1.39888,-1.7475 -0.002,-0.35033 -0.002,-0.35033 0.76697,-0.3534 0.76922,-0.003 0.76922,-0.003 0.76569,0.36315 -0.008,0.85203 0.34528,1.32059 1.31288,1.74026 0.56032,0.24302 1.74726,-1.28332 1.99535,-2.5659 0.0273,-0.14096 0.0273,-0.14096 0.28946,-0.27469 0.42657,-0.21755 0.92259,-0.61923 1.2529,-1.0146 0.0816,-0.0976 0.12421,-0.13284 0.12414,-0.10252 -0.005,2.13245 -1.06648,4.34178 -2.62708,5.46692 -0.0846,0.061 -0.15787,0.11409 -0.16285,0.11802 -0.005,0.004 0.0995,0.11096 0.23227,0.23786 0.50416,0.48198 0.51317,0.54144 0.0821,0.54144 -0.37725,0 -0.37725,0 -0.51497,-0.1522 -0.29661,-0.32775 -0.29531,-0.3274 -0.6266,-0.17065 -0.78304,0.37047 -1.78671,0.55978 -2.71359,0.51183 z m -0.0984,-2.10057 c 0.23865,-0.62066 0.20685,-0.96134 -0.0644,-0.69008 -0.22236,0.22236 -0.49389,0.41615 -0.73497,0.52455 -0.17545,0.0789 -0.1719,0.076 -0.12671,0.10452 0.0973,0.0615 0.77103,0.25949 0.83227,0.24459 0.0141,-0.003 0.0563,-0.086 0.0938,-0.18358 z m 1.79006,0.12687 c 0.23212,-0.0583 0.51348,-0.16674 0.49791,-0.19192 -0.008,-0.0129 -0.0743,-0.0537 -0.1473,-0.0907 -0.32476,-0.16418 -0.63666,-0.40364 -0.84386,-0.64786 -0.15314,-0.18052 -0.15544,0.16201 -0.005,0.642 0.12515,0.39745 0.10651,0.38664 0.49757,0.28844 z m -3.3672,-10.83906 c 0.39399,-0.19276 0.63441,-0.72385 0.26042,-0.57526 -0.5117,0.2033 -0.84041,0.45956 -0.84041,0.65518 0,0.0463 0.44813,-0.0154 0.57999,-0.0799 z m -3.46612,12.58297 c 0.0953,-0.24843 0.62618,-0.81799 0.98434,-1.05612 0.2384,-0.1585 0.2384,-0.1585 0.45202,0.0654 0.21362,0.22394 0.21362,0.22394 0.0658,0.30292 -0.27893,0.14903 -0.52346,0.36143 -0.72816,0.63246 -0.0816,0.10805 -0.81433,0.1604 -0.77399,0.0553 z m 10.35846,-0.0344 c -0.1039,-0.20091 -0.45911,-0.51571 -0.77413,-0.68604 -0.18373,-0.0993 -0.18373,-0.0993 0.0255,-0.3128 0.2092,-0.21345 0.2092,-0.21345 0.33751,-0.14273 0.38963,0.21477 0.72562,0.51913 0.99054,0.89728 0.24611,0.35132 0.2629,0.31948 -0.16862,0.31948 -0.3719,0 -0.3719,0 -0.41078,-0.0752 z m -10.36865,-6.96052 c 0,-0.26912 0,-0.26912 0.41651,-0.26969 0.50494,-6.4e-4 0.53985,-0.0131 0.81056,-0.28876 0.18782,-0.19125 0.18863,-0.19266 0.12815,-0.22433 -0.0335,-0.0176 -0.15481,-0.12163 -0.26965,-0.23132 -0.24443,-0.23346 -0.25606,-0.2369 -0.75882,-0.22435 -0.32684,0.008 -0.32684,0.008 -0.32679,-0.25652 8e-5,-0.44551 0.96222,-0.38605 1.46513,0.0905 0.26817,0.25415 0.19206,0.24721 0.92637,0.0844 0.31795,-0.0705 0.60198,-0.12815 0.63118,-0.12815 0.068,0 0.069,0.005 -0.0371,-0.18802 -0.0705,-0.12833 -0.0962,-0.21276 -0.11748,-0.38692 -0.0375,-0.30683 -0.0464,-0.29651 0.25543,-0.29651 0.28322,0 0.28549,0.002 0.28549,0.18233 0,0.31161 0.20803,0.5038 0.63792,0.58936 0.38214,0.0761 0.69786,0.2678 0.97667,0.59316 0.12455,0.14535 0.13781,0.12885 0.12112,-0.15076 -0.0238,-0.3994 -0.16049,-0.60852 -0.67202,-1.02835 -0.54141,-0.44433 -0.63732,-0.95468 -0.17942,-0.95468 0.26912,0 0.26912,0 0.26912,0.0905 0,0.1881 0.0563,0.25856 0.56002,0.70035 0.10216,0.0896 0.23271,0.22513 0.29012,0.30116 0.0574,0.076 0.11164,0.13826 0.12052,0.13826 0.009,10e-6 0.0162,-0.2784 0.0162,-0.61869 0,-0.6187 0,-0.6187 0.26913,-0.61678 0.26912,0.002 0.26912,0.002 0.27643,0.25985 0.004,0.14187 0.0125,0.25794 0.0189,0.25794 0.0205,0 0.76561,-0.56734 0.85396,-0.65023 0.12626,-0.11845 0.18358,-0.24722 0.18358,-0.41244 0,-0.14199 0,-0.14199 0.26912,-0.14199 0.30561,0 0.29765,-0.012 0.24297,0.36614 -0.0518,0.35852 -0.14504,0.47522 -0.72823,0.91195 -0.75833,0.56788 -0.8441,0.7046 -0.82917,1.32171 0.007,0.29973 0.007,0.29973 0.12188,0.12511 0.3514,-0.53531 0.86328,-0.92026 1.32829,-0.99894 0.41754,-0.0707 0.56912,-0.20498 0.56912,-0.50434 0,-0.14513 0,-0.14513 0.27234,-0.14513 0.27234,0 0.27234,0 0.25989,0.21146 -0.0319,0.54219 -0.32405,0.85122 -0.90388,0.9562 -0.39058,0.0707 -0.83842,0.41047 -1.03802,0.7875 -0.103,0.19458 -2.12214,0.18939 -2.29772,-0.006 -0.28653,-0.31868 -0.50303,-0.34136 -1.3835,-0.14493 -0.35415,0.079 -0.65704,0.14365 -0.6731,0.14365 -0.10691,0 -0.30441,0.1462 -0.65056,0.48159 -0.52391,0.50761 -0.61121,0.54322 -1.33244,0.5435 -0.37806,1.5e-4 -0.37806,1.5e-4 -0.37806,-0.26898 z"
       id="path29"
       sodipodi:nodetypes="ssscssssssssssssssssssssssssssssssssssssscssssssssssssssssssssssssssssssssssssssssssssssssssssssssssssssssssssssssssssssssssssssssssssssssssssssssssssssssssssss" /><path
       style="fill:#000000;stroke-width:0.119015"
       d="m 18.957335,172.23178 c -0.216809,-0.25767 -0.23623,-0.48197 -0.07096,-0.81977 0.166,-0.33929 0.04686,-0.84131 -0.171843,-0.72425 -0.227034,0.12151 -0.431294,0.42506 -0.431294,0.64094 0,0.25191 -0.07354,0.27259 -0.153515,0.0432 -0.138483,-0.39726 0.0084,-0.64422 0.752123,-1.26459 0.681249,-0.56825 0.894023,-0.89671 0.806576,-1.24511 -0.03278,-0.1305 -0.04718,-0.11921 -0.291056,0.22808 -0.324434,0.46199 -0.676335,0.77841 -1.159847,1.04294 -0.26695,0.14604 -0.38982,0.24598 -0.412241,0.33531 -0.06567,0.26164 0.02223,0.73236 0.214511,1.14848 0.225639,0.48837 0.217567,0.53415 -0.04093,0.23214 -0.23335,-0.27261 -0.399021,-0.60445 -0.436839,-0.87497 -0.0156,-0.11148 -0.042,-0.23839 -0.05867,-0.28204 -0.01667,-0.0436 -0.02583,-0.0993 -0.0204,-0.12373 0.0132,-0.0587 -0.257186,0.13543 -0.383795,0.27552 -0.07602,0.0841 -0.09292,0.16083 -0.07115,0.32309 0.03032,0.22605 -0.02747,0.28004 -0.118216,0.11045 -0.200736,-0.37507 0.0072,-0.69871 0.792524,-1.23359 1.002316,-0.68267 1.079386,-0.79513 0.441741,-0.64461 -1.082968,0.25565 -1.765082,0.70335 -1.765082,1.15853 0,0.0448 -0.02381,0.0815 -0.05293,0.0815 -0.08283,0 -0.06196,-0.36159 0.03234,-0.56031 0.181663,-0.38282 0.765626,-0.73459 1.695218,-1.02116 0.964309,-0.29728 1.288415,-0.63801 1.310141,-1.37732 0.01339,-0.45501 -0.06063,-0.40592 0.67823,-0.44999 0.621522,-0.0371 0.621522,-0.0371 0.622684,0.29735 0.0025,0.76128 0.406449,1.20086 1.400574,1.52468 0.203648,0.0663 0.548791,0.20884 0.766984,0.31668 0.218192,0.10785 0.567643,0.26232 0.776558,0.34328 0.561315,0.21753 0.961701,0.61734 0.967833,0.96646 0.0019,0.12242 -0.09125,0.0674 -0.157626,-0.0928 -0.12342,-0.29796 -1.005777,-0.80996 -1.14901,-0.66673 -0.08295,0.083 0.111465,0.45508 0.380675,0.72862 0.160809,0.16339 0.292376,0.33538 0.292376,0.38219 0,0.11955 -0.04756,0.10617 -0.168311,-0.0474 -0.05728,-0.0729 -0.205821,-0.20238 -0.330036,-0.28785 -0.159906,-0.11001 -0.282562,-0.2633 -0.420066,-0.52498 -0.23275,-0.44293 -0.343305,-0.51904 -1.083397,-0.74594 -0.7974,-0.24446 -0.658462,0.003 0.353019,0.62774 0.847091,0.52353 1.075654,0.90268 0.84687,1.40482 -0.09962,0.21865 -0.144679,0.15528 -0.112343,-0.15799 0.02918,-0.28258 -0.291315,-0.76519 -0.508118,-0.76519 -0.108698,0 -0.100564,0.54815 0.01036,0.69818 0.125611,0.1699 0.09554,0.23866 -0.06151,0.14059 -0.05968,-0.0373 -0.117009,-0.0568 -0.127361,-0.0433 -0.01036,0.0135 -0.09502,0.14597 -0.188143,0.2945 -0.347631,0.55443 -0.481011,0.56192 -0.221047,0.0124 0.24919,-0.52675 0.145544,-0.68934 -0.651849,-1.02251 -0.355122,-0.14838 -0.339567,0.2423 0.01762,0.44306 0.225191,0.12657 0.316868,0.24975 0.316868,0.42576 0,0.1522 -0.08739,0.13688 -0.127348,-0.0223 -0.02141,-0.0852 -0.111976,-0.17122 -0.25699,-0.244 -0.381748,-0.1916 -0.461843,-0.29518 -0.463119,-0.59897 -0.0019,-0.3877 -0.36978,-0.67876 -0.492967,-0.38974 -0.04086,0.0958 -0.149579,0.26782 -0.241674,0.38229 -0.239192,0.29734 -0.206603,0.35134 0.312675,0.51801 0.749205,0.24046 0.874949,0.53254 0.433183,1.00618 -0.247649,0.26553 -0.345573,0.19146 -0.142323,-0.10765 0.242621,-0.35705 0.148354,-0.48756 -0.449806,-0.62272 -0.218085,-0.0493 -0.4582,-0.13314 -0.533583,-0.18635 -0.305475,-0.21563 -0.778952,0.57911 -0.573599,0.9628 0.101385,0.18945 0.02135,0.22346 -0.122763,0.0522 z m 0.617417,-1.75125 c 0.340394,-0.48019 0.2604,-0.6562 -0.14699,-0.32339 -0.377543,0.30842 -0.377543,0.30842 -0.359253,0.60978 0.01977,0.32585 0.107385,0.27629 0.506243,-0.28639 z m 2.569857,0.13657 c 0,-0.22716 -0.05785,-0.29208 -0.43828,-0.492 -0.4643,-0.24398 -0.858004,-0.62397 -1.111463,-1.07275 -0.194181,-0.34382 -0.194181,-0.34382 -0.193833,-0.0793 6.31e-4,0.53137 0.312232,0.91074 1.214617,1.4791 0.525183,0.33078 0.528959,0.33195 0.528959,0.16499 z m -10.229038,1.25174 c -0.516878,-0.63197 -0.55985,-1.08664 -0.138704,-1.46752 0.299487,-0.27086 0.349646,-0.78571 0.143144,-1.46925 -0.165691,-0.54847 -0.30358,-0.46426 -0.286136,0.17475 0.01857,0.68125 -0.193398,0.92342 -0.948369,1.08338 -0.551848,0.11691 -0.515962,0.14682 -0.47731,-0.39769 0.05798,-0.81648 0.207418,-1.00941 0.864048,-1.11533 0.514459,-0.083 0.66791,-0.27755 0.726191,-0.92072 0.05671,-0.62566 -0.25176,-0.68916 -0.42472,-0.0874 -0.18976,0.66018 -0.321618,0.74858 -1.116561,0.74858 -0.6355802,0 -0.6101532,0.0225 -0.4552812,-0.40411 0.3106222,-0.85575 0.5639732,-1.04316 1.2082132,-0.89375 0.412808,0.0957 0.735721,-0.0263 1.037059,-0.39185 0.263456,-0.31962 -0.0083,-0.41226 -0.299842,-0.10223 -0.355677,0.37821 -0.70341,0.36461 -1.140907,-0.0446 -0.319539,-0.29889 -0.323082,-0.27391 0.0719,-0.50757 0.461401,-0.27296 0.702564,-0.26973 1.009845,0.0135 0.277098,0.25542 0.537517,0.23095 0.92548,-0.087 0.308551,-0.25283 0.211713,-0.32368 -0.313988,-0.22973 -0.640399,0.11444 -0.891521,-0.0284 -1.152711,-0.65584 -0.235573,-0.56587 -0.229024,-0.59311 0.153192,-0.63747 0.849182,-0.0986 1.211636,0.11414 1.374371,0.80655 0.09675,0.41163 0.596847,0.35351 1.690728,-0.19648 1.078906,-0.54246 2.076391,-0.75425 4.990154,-1.05955 2.125465,-0.2227 2.923199,-0.6141 3.853391,-1.89063 0.122151,-0.16763 0.228159,-0.31263 0.235573,-0.32223 0.0074,-0.01 0.111168,0.038 0.230565,0.1058 0.184878,0.10494 0.224338,0.11175 0.265946,0.0459 0.04206,-0.0667 0.09884,-0.0679 0.409025,-0.009 0.198097,0.0376 0.446049,0.0758 0.551008,0.0847 0.104953,0.009 0.243859,0.0446 0.308677,0.0794 0.274717,0.14702 0.31705,-0.71987 0.04339,-0.88899 -0.188401,-0.11644 -0.334804,-0.14629 -0.366597,-0.0748 -0.168849,0.37991 -1.457289,0.33318 -1.470855,-0.0534 -6.32e-4,-0.022 -0.07281,-0.13871 -0.160089,-0.2592 -0.20529,-0.28338 -0.209167,-0.2719 0.145462,-0.43088 0.770173,-0.34526 1.067191,-0.28889 1.451175,0.27544 0.163891,0.24086 0.572077,0.38005 0.572077,0.19506 0,-0.22701 -0.302071,-0.60731 -0.661279,-0.83253 -0.289003,-0.1812 -0.443225,-0.36239 -0.308455,-0.36239 0.09872,0 0.757162,0.40407 0.930065,0.57077 0.198355,0.19123 0.198355,0.19123 0.198355,-0.12552 0,-0.31676 0,-0.31676 -0.435702,-0.3751 -0.680832,-0.0911 -0.939584,-0.46079 -0.939584,-1.34225 0,-0.37212 0.03909,-0.38523 0.646418,-0.21683 0.635334,0.17617 0.83413,0.39972 0.834459,0.93834 1.13e-4,0.17721 0.03638,0.43904 0.08062,0.58185 0.12366,0.39925 0.10868,1.85728 -0.02577,2.50524 -0.15028,0.72442 -0.0846,0.67733 0.331672,-0.23784 0.382071,-0.83998 0.390414,-0.88978 0.227906,-1.36061 -0.259616,-0.75216 -0.188951,-0.98394 0.445783,-1.46222 0.504058,-0.37982 0.493201,-0.37756 0.594567,-0.1238 0.426634,1.06805 0.256996,1.65934 -0.553572,1.92953 -0.02571,0.009 -0.10789,0.23917 -0.182572,0.51241 -0.07468,0.27326 -0.181569,0.60364 -0.237531,0.7342 -0.05596,0.13055 -0.09239,0.24674 -0.08093,0.25818 0.05488,0.0549 0.538679,-0.19031 0.553862,-0.28069 0.133809,-0.79663 0.44044,-1.05867 1.177538,-1.00636 0.709195,0.0503 0.716281,0.0585 0.501329,0.58135 -0.323651,0.78714 -0.539949,0.91257 -1.324421,0.76802 -0.374845,-0.0691 -0.880178,0.18585 -1.234284,0.62265 -0.754641,0.93084 -0.727497,0.86611 -0.363174,0.86611 0.273063,0 0.2838,-0.006 0.374145,-0.19835 0.36661,-0.78184 0.701572,-0.92881 1.595633,-0.70014 0.541382,0.13846 0.545077,0.14403 0.338941,0.51074 -0.498026,0.88597 -0.75746,1.01428 -1.535597,0.75942 -0.679006,-0.22239 -1.004393,-0.126 -1.794555,0.53158 -0.509015,0.4236 -0.179061,0.59193 0.502541,0.25638 0.672097,-0.33087 1.014916,-0.22591 1.610872,0.49319 0.174874,0.21101 0.318314,0.39776 0.31875,0.41499 0.0025,0.10351 -0.896296,0.44316 -1.215798,0.45937 -0.508464,0.0258 -0.572132,-0.0251 -1.137249,-0.90921 -0.112096,-0.17537 -0.77827,-0.0512 -1.172157,0.21852 -0.803886,0.55044 -1.867167,0.94126 -2.900803,1.06623 -2.80864,0.33958 -3.212405,0.42255 -3.95194,0.81211 -1.174601,0.61872 -1.441652,2.29844 -0.529971,3.3335 0.0756,0.0858 0.06938,0.0926 -0.08535,0.0926 -0.273,0 -0.117705,0.20918 0.418966,0.56433 0.374852,0.24807 0.258013,0.2816 -0.512779,0.14719 -2.806372,-0.4894 -4.404057,-3.21707 -3.143222,-5.36633 0.170667,-0.29092 0.170667,-0.29092 -0.04838,-0.0793 -0.854878,0.82578 -0.812968,2.67292 0.08553,3.76941 0.308153,0.37606 0.140087,0.33292 -0.223611,-0.0574 -0.486778,-0.52241 -0.579795,-0.30083 -0.107442,0.25595 0.416832,0.49135 0.411274,0.70725 -0.03556,1.38006 -0.268162,0.40377 -0.274724,0.40484 -0.534859,0.0868 z m 7.52246,-8.7572 c 0.04105,-1.40543 -0.532983,-2.42345 -0.857563,-1.52081 -0.189001,0.52559 -0.460574,0.65778 -1.044151,0.50828 -0.437907,-0.11219 -0.448701,-0.1282 -0.293235,-0.43499 0.28337,-0.5592 0.609825,-0.72886 1.122061,-0.58314 0.15796,0.045 0.300208,0.0607 0.316098,0.0349 0.05053,-0.0818 -0.376431,-0.25869 -1.072244,-0.44435 -0.371031,-0.099 -0.741607,-0.20568 -0.823508,-0.23705 -0.33459,-0.12818 -0.497401,-0.0795 -0.613741,0.1835 -0.291846,0.65976 -0.583161,0.77884 -1.292748,0.52845 -0.459999,-0.16233 -0.44409,-0.13054 -0.230388,-0.46046 0.431188,-0.66567 0.693419,-0.769 1.298558,-0.5117 0.38958,0.16565 0.430739,0.0518 0.0831,-0.2299 -0.298761,-0.24208 -0.298761,-0.24208 -0.731483,-0.21508 -0.675179,0.0421 -0.847337,-0.089 -1.117356,-0.85096 -0.179339,-0.50608 -0.176529,-0.50908 0.478454,-0.50992 0.702481,-0.001 0.936109,0.17707 1.080719,0.82327 0.09336,0.41718 0.744525,0.84537 1.521405,1.00044 0.229744,0.0459 -0.124349,-0.6793 -0.483348,-0.98987 -0.521584,-0.45122 -0.523586,-0.82938 -0.009,-1.6944 0.261234,-0.43913 0.264802,-0.43913 0.66971,0 0.655431,0.71082 0.679588,1.02427 0.137239,1.78067 -0.277667,0.38725 0.04528,0.84245 0.768506,1.08311 0.491034,0.1634 0.876623,0.41226 1.138993,0.7351 0.227294,0.27968 0.227294,0.27968 0.227294,-0.007 0,-0.48273 -0.250712,-0.78963 -0.68478,-0.83824 -0.550211,-0.0616 -0.699848,-0.26627 -0.760882,-1.04067 -0.02659,-0.33718 -0.02659,-0.33718 0.215969,-0.30394 0.667374,0.0915 0.965428,0.36738 1.005759,0.931 0.06483,0.9061 0.295193,0.71788 0.257672,-0.21054 -0.04345,-1.07559 -0.03164,-1.04045 -0.44445,-1.32238 -0.619116,-0.42285 -0.703051,-0.71616 -0.417786,-1.45993 0.224666,-0.58577 0.244472,-0.60266 0.499504,-0.42592 0.834567,0.57836 1.016962,1.00444 0.69837,1.63139 -0.269911,0.53114 -0.07159,1.05299 0.253573,0.66727 0.183842,-0.21808 0.223428,-0.30381 0.223674,-0.48436 0.0013,-0.73856 0.348522,-1.05065 1.255972,-1.12792 0.443042,-0.0377 0.440813,-0.0422 0.312258,0.62146 -0.146359,0.75555 -0.355817,0.95954 -1.02679,0.99997 -0.612118,0.0369 -0.85911,0.39261 -0.85911,1.23729 0,0.41905 0.279934,0.22507 0.334003,-0.23143 0.0629,-0.53101 0.312542,-0.75325 0.923807,-0.82241 0.465298,-0.0526 0.482527,-0.0395 0.425541,0.32386 -0.120515,0.76852 -0.324725,0.97497 -0.964404,0.97497 -0.397115,0 -0.397115,0 -0.529743,0.22631 -0.258695,0.44143 -0.233363,1.11315 0.02615,0.69326 0.128106,-0.20728 0.678874,-0.59213 1.058715,-0.73978 0.327472,-0.1273 0.323575,-0.12274 0.60668,-0.70945 0.358311,-0.74259 0.453614,-0.70616 0.209414,0.08 -0.07229,0.23274 -0.131795,0.42668 -0.13223,0.43099 -4.74e-4,0.004 0.183677,-0.038 0.409145,-0.0941 0.815235,-0.20259 1.080789,-0.40762 0.715783,-0.55264 -0.676531,-0.2688 -0.822694,-0.39476 -0.880968,-0.75917 -0.03088,-0.19331 0.0281,-0.76991 0.104555,-1.02193 0.03954,-0.13032 0.11576,-0.11742 0.529585,0.0896 0.697228,0.34883 0.878531,0.7049 0.68711,1.34948 -0.04674,0.15729 -0.08493,0.36177 -0.08493,0.45439 0,0.34899 -0.398542,0.62419 -1.295944,0.89487 -0.617877,0.18636 -1.072155,0.40401 -1.266165,0.60662 -0.228967,0.23912 0.01263,0.22416 0.473812,-0.0293 0.495676,-0.27246 0.81065,-0.18579 1.342805,0.3695 0.219835,0.22939 0.194617,0.27402 -0.285789,0.50572 -0.555498,0.2679 -0.771303,0.23877 -1.1457,-0.15468 -0.323607,-0.34009 -0.395189,-0.36624 -0.627137,-0.22923 -0.224186,0.13242 -0.290936,0.43977 -0.286572,1.3195 0.0038,0.74645 0.0038,0.74645 -0.486196,0.80666 -0.764805,0.094 -0.687419,0.16906 -0.663666,-0.64385 z"
       id="path30" /><path
       style="fill:#000000;stroke-width:0.119015"
       d="m 0.57901072,101.13393 c -0.09287,-0.17352 -0.06145,-0.34604 0.102459,-0.56268 0.36056608,-0.47654 0.22002404,-0.863989 -0.19689,-0.54279 -0.47078,0.3627 -0.539437,0.45208 -0.541812,0.70528 -0.0013,0.15637 -0.01535,0.19088 -0.05324,0.13224 -0.166733,-0.25799 -0.02981,-0.59036 0.424967,-1.031459 0.362435,-0.35155 0.476098,-0.55877 0.47054,-0.85785 -0.0072,-0.3865 -0.03657,-0.39813 -0.419447,-0.16606 -0.378269,0.22924 -0.414002,0.282 -0.419447,0.61925 -0.0038,0.23686 -0.07162,0.32886 -0.503722,0.683569 -0.09985,0.082 -0.137744,0.15352 -0.119081,0.22487 0.01503,0.0576 0.0057,0.0913 -0.02059,0.075 -0.129547,-0.0801 -0.04213,-0.33683 0.190069,-0.558089 0.238434,-0.22724 0.346362,-0.6616 0.188616,-0.75909 -0.192734,-0.11912 -0.79691902,0.38193 -0.79691902,0.66087 0,0.0863 -0.02381,0.15685 -0.05293,0.15685 -0.08482,0 -0.05893,-0.27248 0.04831,-0.50864 0.12333802,-0.27161 0.34306602,-0.43915 0.85092502,-0.64885 0.674965,-0.2787 0.87601,-0.55863 0.93292,-1.29895 0.03631,-0.472279 0.02937,-0.490299 -0.151108,-0.393689 -0.274332,0.146819 -0.01661,-1.29446 0.36067404,-2.01704 0.89034704,-1.7052 2.45647904,-2.43999 5.91906504,-2.77706 2.639519,-0.25695 3.1288484,-0.37007 3.9795902,-0.91993 0.955448,-0.61753 1.023272,-1.53228 0.152686,-2.0594 -1.2796742,-0.77481 -2.3063692,-0.73773 -2.3081632,0.0833 -0.0013,0.58253 -0.210961,0.78809 -0.942785,0.92419 -0.407207,0.0757 -0.398858,0.0871 -0.332544,-0.45499 0.08402,-0.68691 0.245622,-0.85526 0.877628,-0.91428 0.682827,-0.0638 0.78557,-0.34597 0.176989,-0.48612 -0.90073,-0.20743 -1.424997,-0.0525 -1.477947,0.43692 -0.05918,0.54692 -0.289844,0.72553 -0.985006,0.76269 -0.502617,0.0269 -0.485136,0.0529 -0.325167,-0.48423 0.176257,-0.59184 0.351093,-0.73358 0.88249,-0.71547 0.509735,0.0174 0.963362,-0.1992 0.591011,-0.28218 -1.009163,-0.22485 -2.112757,0.0904 -2.167514,0.61918 -0.04339,0.41874 -0.186576,0.53239 -0.744297,0.59068 -0.324731,0.0339 -0.324731,0.0339 -0.286339,-0.19903 0.09316,-0.56525 0.271573,-0.75993 0.702192,-0.76622 0.244731,-0.004 0.325034,-0.0303 0.476698,-0.15869 0.184997,-0.1566 -0.924729,-0.20837 -2.012623,-0.0939 -0.391519,0.0412 -1.085405,-0.75075 -0.85748,-0.97867 0.29674,-0.29674 1.200091,0.052 1.300838,0.50218 0.07092,0.31692 0.224066,0.35371 0.966336,0.23216 0.447526,-0.0733 0.4288,-0.34081 -0.03979,-0.56847 -0.420956,-0.20452 -0.497982,-0.49608 -0.27319,-1.03408 0.08336,-0.19951 0.08336,-0.19951 0.398271,0.0143 0.439271,0.2983 0.530412,0.53858 0.342288,0.90237 -0.08946,0.173 -0.05993,0.27119 0.134536,0.44711 0.09833,0.0889 1.795794,0.1783 1.797538,0.0946 1.2e-4,-0.008 -0.191099,-0.30319 -0.345302,-0.53294 -0.0051,-0.008 -0.161263,-0.0412 -0.346431,-0.0738 -0.542027,-0.0955 -0.736252,-0.37957 -0.735121,-1.07531 6.31e-4,-0.44777 0.03714,-0.48961 0.352854,-0.40517 0.776622,0.20771 0.938188,0.39878 0.89233,1.0552 -0.05078,0.72666 0.301768,1.00849 1.594654,1.2748 1.005405,0.20712 1.9781652,0.48484 2.5249482,0.72089 0.510922,0.22056 0.546732,0.20579 0.177273,-0.0731 -0.414647,-0.31308 -0.76603,-0.4556 -1.7655872,-0.71617 -1.103164,-0.28757 -1.436662,-0.41112 -1.756144,-0.65058 -0.466928,-0.34996 -0.591485,-0.59611 -0.156868,-0.30999 0.435412,0.28665 1.876912,0.696 1.935262,0.54957 0.05766,-0.14476 -0.196372,-0.39266 -0.521861,-0.50921 -0.641851,-0.22984 -0.7704,-0.49626 -0.629593,-1.30482 0.09486,-0.54475 0.16204,-0.55035 0.898197,-0.075 0.43967,0.28391 0.470092,0.40243 0.338209,1.31778 -0.06233,0.43264 0.241144,0.63526 1.4786362,0.98716 0.08388,0.0239 0.09483,0.008 0.06684,-0.0965 -0.01838,-0.0688 -0.03379,-0.13866 -0.03417,-0.15528 -3.6e-4,-0.0166 -0.119429,-0.0839 -0.264506,-0.14946 -0.475554,-0.21493 -0.5812148,-0.51618 -0.389378,-1.11017 0.101063,-0.31293 0.108402,-0.31527 0.418001,-0.13383 0.487668,0.28579 0.605284,0.54111 0.470521,1.02141 -0.103128,0.36754 0.02766,0.68295 0.335411,0.80905 2.0345,0.83349 2.722456,2.34613 1.799735,3.95711 -0.106039,0.18515 -0.106039,0.18515 0.06126,0.0265 1.116649,-1.05923 0.689048,-2.87017 -0.898444,-3.80503 -0.533551,-0.31419 -0.490996,-0.36435 0.09827,-0.11582 0.301963,0.12734 0.431339,0.16089 0.431339,0.11179 0,-0.16067 -0.07588,-0.23949 -0.283143,-0.2941 -0.726134,-0.1913 -0.952638,-0.62488 -0.770381,-1.47472 0.06877,-0.32068 0.0634,-0.32014 0.601059,-0.0599 0.624162,0.30211 0.757636,0.57388 0.590379,1.20205 -0.08889,0.33384 0.0497,0.63733 0.513746,1.12496 0.154783,0.16264 0.349595,0.41241 0.432918,0.55503 0.283831,0.48578 0.488211,-0.13995 0.221742,-0.67886 -0.328394,-0.66414 -0.272438,-0.9198 0.317948,-1.45264 0.482628,-0.43559 0.512008,-0.42394 0.761842,0.30221 0.210077,0.61061 0.113372,0.93144 -0.386428,1.28203 -0.251129,0.17616 -0.314292,0.25223 -0.36181,0.43581 -0.03164,0.12232 -0.105408,0.39666 -0.163885,0.60963 -0.190214,0.69275 -0.101618,1.08124 0.210564,0.92333 0.325621,-0.16471 0.346526,-0.19277 0.456165,-0.61216 0.160367,-0.61345 0.385469,-0.75129 1.226966,-0.75129 0.542033,0 0.537505,-0.006 0.363547,0.48785 -0.294151,0.83519 -0.548545,1.02541 -1.225368,0.91622 -0.452029,-0.0729 -0.483291,-0.0609 -0.928872,0.35584 -0.23234,0.21734 -0.608827,0.7863 -0.555549,0.83958 0.145367,0.14537 0.40158,0.0718 0.561953,-0.16125 0.377542,-0.54873 0.77599,-0.60212 1.553882,-0.2082 0.254469,0.12885 0.254469,0.12885 -0.06849,0.49313 -0.525305,0.59252 -0.776333,0.63951 -1.392145,0.2606 -0.426748,-0.26259 -1.570844,0.20346 -1.570844,0.63988 0,0.12647 0.251647,0.13469 0.539709,0.0176 0.548785,-0.22298 0.933729,-0.0753 1.368674,0.52513 0.187878,0.25936 0.17387,0.28 -0.318352,0.469 -0.644107,0.24734 -0.961632,0.14151 -1.262351,-0.42073 -0.238813,-0.44648 -0.488173,-0.45964 -1.270516,-0.0671 -0.284766,0.14291 -0.748485,0.33633 -1.030504,0.42985 -0.575455,0.19081 -0.568779,0.18325 -0.333705,0.37802 0.171406,0.14202 0.171406,0.14202 0.561226,0.0397 0.487062,-0.12786 0.61885,-0.12792 0.828081,0 0.277415,0.16916 0.838698,1.09058 0.694379,1.13992 -1.145953,0.39177 -1.639817,0.20833 -1.940435,-0.72071 -0.125031,-0.3864 -0.738361,-0.49288 -1.9083332,-0.33128 -0.972576,0.13432 -0.912603,0.10259 -0.645072,0.34128 0.203654,0.18169 0.243966,0.19792 0.370273,0.1491 0.569064,-0.21994 0.943644,-0.0469 1.2657614,0.58454 0.3001308,0.58841 0.2967148,0.62279 -0.06648,0.66818 -0.9709974,0.12132 -1.2954254,-0.0816 -1.4276624,-0.89274 -0.07531,-0.46197 -1.135141,-0.58086 -2.519472,-0.28262 -1.762239,0.37967 -2.727603,0.94606 -3.283985,1.92679 -0.312599,0.550999 -0.348055,0.275839 -0.03922,-0.30415 0.211258,-0.39671 0.211258,-0.39671 -0.09396,-0.67235 -0.370071,-0.33422 -0.377959,-0.33507 -0.556395,-0.0599 -0.807006,1.244589 -0.638978,2.524869 0.374372,2.852479 0.596158,0.19273 0.733927,0.38489 0.255152,0.3559 -0.272552,-0.0169 -0.272552,-0.0169 -0.272552,0.28657 0,0.16689 -0.02381,0.30704 -0.05293,0.31144 -0.08254,0.0125 -0.183494,-0.22502 -0.184353,-0.43374 -6.32e-4,-0.20738 -0.07256,-0.29139 -0.486475,-0.56998 -0.61866004,-0.4164 -0.442833,0.52895 0.218755,1.17614 0.394519,0.385929 0.47882,0.573449 0.377549,0.839809 -0.07302,0.19205 -0.115917,0.18466 -0.07635,-0.0131 0.042,-0.21004 -0.05867,-0.35432 -0.460511,-0.65992 -0.455907,-0.346719 -0.473123,-0.349409 -0.472188,-0.0737 6.31e-4,0.22917 0.02318,0.28572 0.250276,0.63142 0.14776,0.22494 0.150931,0.37381 0.01067,0.50075 -0.107618,0.0974 -0.108073,0.097 -0.05286,-0.0482 0.06746,-0.17741 0.01288,-0.29896 -0.203407,-0.45297 -0.23202404,-0.16522 -0.56880608,0.2102 -0.42672908,0.47567 0.03587,0.067 0.0365,0.10231 0.0019,0.10231 -0.02912,0 -0.07754,-0.046 -0.10765,-0.10231 z"
       id="path31"
       sodipodi:nodetypes="ssssssssssssssssssssssssssssssssscsssssssssssssscscscsssssssssssssscsssscscsssssssssssssssssssssssssssssssssssccssscssssssssscsscssssscssssssss" /><text
       xml:space="preserve"
       style="font-style:normal;font-variant:normal;font-weight:normal;font-stretch:normal;font-size:4.77358px;line-height:1.25;font-family:Almendra;-inkscape-font-specification:'Almendra, Normal';font-variant-ligatures:normal;font-variant-caps:normal;font-variant-numeric:normal;font-variant-east-asian:normal;text-align:center;text-anchor:middle;stroke-width:0.102763"
       x="106.37959"
       y="190.71965"
       id="text38"><tspan
         sodipodi:role="line"
         id="tspan38"
         style="font-style:normal;font-variant:normal;font-weight:normal;font-stretch:normal;font-size:4.77358px;font-family:Almendra;-inkscape-font-specification:'Almendra, Normal';font-variant-ligatures:normal;font-variant-caps:normal;font-variant-numeric:normal;font-variant-east-asian:normal;stroke-width:0.102763"
         x="106.37959"
         y="190.71965">pbfhogg: Deep forest green + gunmetal gray + blood-red accent (striking/processing energy).</tspan><tspan
         sodipodi:role="line"
         style="font-style:normal;font-variant:normal;font-weight:normal;font-stretch:normal;font-size:4.77358px;font-family:Almendra;-inkscape-font-specification:'Almendra, Normal';font-variant-ligatures:normal;font-variant-caps:normal;font-variant-numeric:normal;font-variant-east-asian:normal;stroke-width:0.102763"
         x="106.37959"
         y="196.68663"
         id="tspan39">elivagar: Icy cyan/blue + frost white + subtle silver (primordial rivers + Shortbread &quot;lean &amp; clean&quot;).</tspan><tspan
         sodipodi:role="line"
         style="font-style:normal;font-variant:normal;font-weight:normal;font-stretch:normal;font-size:4.77358px;font-family:Almendra;-inkscape-font-specification:'Almendra, Normal';font-variant-ligatures:normal;font-variant-caps:normal;font-variant-numeric:normal;font-variant-east-asian:normal;stroke-width:0.102763"
         x="106.37959"
         y="202.65359"
         id="tspan40">nidhogg: Obsidian black + deep emerald + glowing ember red (underworld roots + server guardian).</tspan></text><text
       xml:space="preserve"
       style="font-style:normal;font-variant:normal;font-weight:normal;font-stretch:normal;font-size:4.77358px;line-height:1.25;font-family:'EB Garamond';-inkscape-font-specification:'EB Garamond, Normal';font-variant-ligatures:normal;font-variant-caps:normal;font-variant-numeric:normal;font-variant-east-asian:normal;text-align:center;text-anchor:middle;stroke-width:0.102763"
       x="106.30347"
       y="212.88936"
       id="text46"><tspan
         sodipodi:role="line"
         id="tspan44"
         style="font-style:normal;font-variant:normal;font-weight:normal;font-stretch:normal;font-size:4.77358px;font-family:'EB Garamond';-inkscape-font-specification:'EB Garamond, Normal';font-variant-ligatures:normal;font-variant-caps:normal;font-variant-numeric:normal;font-variant-east-asian:normal;stroke-width:0.102763"
         x="106.30347"
         y="212.88936">pbfhogg: Deep forest green + gunmetal gray + blood-red accent (striking/processing energy).</tspan><tspan
         sodipodi:role="line"
         style="font-style:normal;font-variant:normal;font-weight:normal;font-stretch:normal;font-size:4.77358px;font-family:'EB Garamond';-inkscape-font-specification:'EB Garamond, Normal';font-variant-ligatures:normal;font-variant-caps:normal;font-variant-numeric:normal;font-variant-east-asian:normal;stroke-width:0.102763"
         x="106.30347"
         y="218.85634"
         id="tspan45">elivagar: Icy cyan/blue + frost white + subtle silver (primordial rivers + Shortbread &quot;lean &amp; clean&quot;).</tspan><tspan
         sodipodi:role="line"
         style="font-style:normal;font-variant:normal;font-weight:normal;font-stretch:normal;font-size:4.77358px;font-family:'EB Garamond';-inkscape-font-specification:'EB Garamond, Normal';font-variant-ligatures:normal;font-variant-caps:normal;font-variant-numeric:normal;font-variant-east-asian:normal;stroke-width:0.102763"
         x="106.30347"
         y="224.8233"
         id="tspan46">nidhogg: Obsidian black + deep emerald + glowing ember red (underworld roots + server guardian).</tspan></text><text
       xml:space="preserve"
       style="font-size:4.77357px;line-height:1.25;font-family:'EB Garamond';-inkscape-font-specification:'EB Garamond, Normal';text-align:center;text-anchor:middle;stroke-width:0.333333"
       x="-226.29987"
       y="88.375725"
       id="text51"><tspan
         sodipodi:role="line"
         id="tspan51"
         style="stroke-width:0.333333"
         x="-226.29987"
         y="88.375725">1. The &quot;Special Ops&quot; Palette</tspan><tspan
         sodipodi:role="line"
         style="stroke-width:0.333333"
         x="-226.29987"
         y="94.34269"
         id="tspan52" /><tspan
         sodipodi:role="line"
         style="stroke-width:0.333333"
         x="-226.29987"
         y="100.30965"
         id="tspan53">Theme: Rugged, tactical, and authoritative. Best for heavy-duty or administrative tools.</tspan><tspan
         sodipodi:role="line"
         style="stroke-width:0.333333"
         x="-226.29987"
         y="106.27661"
         id="tspan54">Element	Color Name	Hex Code	Usage</tspan><tspan
         sodipodi:role="line"
         style="stroke-width:0.333333"
         x="-226.29987"
         y="112.24358"
         id="tspan55">Primary	Deep Forest	#1B2E21	Sidebars, primary buttons</tspan><tspan
         sodipodi:role="line"
         style="stroke-width:0.333333"
         x="-226.29987"
         y="118.21054"
         id="tspan56">Secondary	Gunmetal	#2C3335	Main backgrounds, cards</tspan><tspan
         sodipodi:role="line"
         style="stroke-width:0.333333"
         x="-226.29987"
         y="124.1775"
         id="tspan57">Accent	Blood Red	#880808	Alerts, critical errors, &quot;Delete&quot;</tspan><tspan
         sodipodi:role="line"
         style="stroke-width:0.333333"
         x="-226.29987"
         y="130.14447"
         id="tspan58">Text	Silver Grey	#D1D1D1	Primary labels and icons</tspan><tspan
         sodipodi:role="line"
         style="stroke-width:0.333333"
         x="-226.29987"
         y="136.11142"
         id="tspan59">2. The &quot;Cryo-Tech&quot; Palette</tspan><tspan
         sodipodi:role="line"
         style="stroke-width:0.333333"
         x="-226.29987"
         y="142.07838"
         id="tspan60" /><tspan
         sodipodi:role="line"
         style="stroke-width:0.333333"
         x="-226.29987"
         y="148.04535"
         id="tspan61">Theme: Precision, speed, and clinical efficiency. Best for analytics or monitoring tools.</tspan><tspan
         sodipodi:role="line"
         style="stroke-width:0.333333"
         x="-226.29987"
         y="154.01231"
         id="tspan62">Element	Color Name	Hex Code	Usage</tspan><tspan
         sodipodi:role="line"
         style="stroke-width:0.333333"
         x="-226.29987"
         y="159.97928"
         id="tspan63">Primary	Icy Cyan	#00A3C4	Active states, primary text</tspan><tspan
         sodipodi:role="line"
         style="stroke-width:0.333333"
         x="-226.29987"
         y="165.94624"
         id="tspan64">Secondary	Frost White	#F0F8FF	Main background (light mode) or text</tspan><tspan
         sodipodi:role="line"
         style="stroke-width:0.333333"
         x="-226.29987"
         y="171.91321"
         id="tspan65">Accent	Subtle Silver	#BFC1C2	Borders, dividers, disabled states</tspan><tspan
         sodipodi:role="line"
         style="stroke-width:0.333333"
         x="-226.29987"
         y="177.88016"
         id="tspan66">Deep Note	Arctic Blue	#1A2A3A	Background (if dark mode)</tspan><tspan
         sodipodi:role="line"
         style="stroke-width:0.333333"
         x="-226.29987"
         y="183.84712"
         id="tspan67">3. The &quot;Infernal Core&quot; Palette</tspan><tspan
         sodipodi:role="line"
         style="stroke-width:0.333333"
         x="-226.29987"
         y="189.81409"
         id="tspan68" /><tspan
         sodipodi:role="line"
         style="stroke-width:0.333333"
         x="-226.29987"
         y="195.78105"
         id="tspan69">Theme: Power, luxury, and &quot;final boss&quot; energy. Best for advanced settings or high-performance modes.</tspan><tspan
         sodipodi:role="line"
         style="stroke-width:0.333333"
         x="-226.29987"
         y="201.74802"
         id="tspan70">Element	Color Name	Hex Code	Usage</tspan><tspan
         sodipodi:role="line"
         style="stroke-width:0.333333"
         x="-226.29987"
         y="207.71498"
         id="tspan71">Primary	Obsidian	#0B0B0C	Deepest background layers</tspan><tspan
         sodipodi:role="line"
         style="stroke-width:0.333333"
         x="-226.29987"
         y="213.68195"
         id="tspan72">Secondary	Deep Emerald	#043927	Subtle glows, secondary buttons</tspan><tspan
         sodipodi:role="line"
         style="stroke-width:0.333333"
         x="-226.29987"
         y="219.6489"
         id="tspan73">Accent	Ember Red	#FF4500	Highlights, hovering, CTA buttons</tspan><tspan
         sodipodi:role="line"
         style="stroke-width:0.333333"
         x="-226.29987"
         y="225.61586"
         id="tspan74">Mid-Tone	Charcoal	#1E1E1E	Section containers</tspan><tspan
         sodipodi:role="line"
         style="stroke-width:0.333333"
         x="-226.29987"
         y="231.58282"
         id="tspan75" /><tspan
         sodipodi:role="line"
         style="stroke-width:0.333333"
         x="-226.29987"
         y="237.54979"
         id="tspan76" /><tspan
         sodipodi:role="line"
         style="stroke-width:0.333333"
         x="-226.29987"
         y="243.51675"
         id="tspan77">The &quot;Glow&quot; Factor: For the Ember Red and Icy Cyan, use a slight CSS box-shadow or drop-shadow to give them that &quot;glowing&quot; feel against the dark backgrounds.</tspan><tspan
         sodipodi:role="line"
         style="stroke-width:0.333333"
         x="-226.29987"
         y="249.48372"
         id="tspan78" /><tspan
         sodipodi:role="line"
         style="stroke-width:0.333333"
         x="-226.29987"
         y="255.45068"
         id="tspan79">Balance: Since these are very dark and saturated palettes, ensure your text contrast ratios are high. Stick to the Silver/White tones for readability—don't put Blood Red text on Gunmetal!</tspan></text><rect
       style="opacity:1;fill:#1b2e21;fill-opacity:1;stroke:#ffffff;stroke-width:0.0320097;stroke-linecap:round;stroke-linejoin:round"
       id="rect79"
       width="12.504879"
       height="12.504879"
       x="89.237808"
       y="120.44139" /><rect
       style="opacity:1;fill:#2c3335;fill-opacity:1;stroke:#ffffff;stroke-width:0.0320097;stroke-linecap:round;stroke-linejoin:round"
       id="rect80"
       width="12.504879"
       height="12.504879"
       x="101.74268"
       y="120.44139" /><rect
       style="opacity:1;fill:#d1d1d1;fill-opacity:1;stroke:#ffffff;stroke-width:0.0320097;stroke-linecap:round;stroke-linejoin:round"
       id="rect81"
       width="12.504879"
       height="12.504879"
       x="101.74268"
       y="132.94627" /><rect
       style="opacity:1;fill:#880808;fill-opacity:1;stroke:#ffffff;stroke-width:0.0320097;stroke-linecap:round;stroke-linejoin:round"
       id="rect82"
       width="12.504879"
       height="12.504879"
       x="89.237808"
       y="132.94627" /><rect
       style="opacity:1;fill:#0b0b0c;fill-opacity:1;stroke:#ffffff;stroke-width:0.0320097;stroke-linecap:round;stroke-linejoin:round"
       id="rect83"
       width="12.504879"
       height="12.504879"
       x="165.67464"
       y="123.33841" /><rect
       style="opacity:1;fill:#043927;fill-opacity:1;stroke:#ffffff;stroke-width:0.0320097;stroke-linecap:round;stroke-linejoin:round"
       id="rect84"
       width="12.504879"
       height="12.504879"
       x="178.17952"
       y="123.33841" /><rect
       style="opacity:1;fill:#1e1e1e;fill-opacity:1;stroke:#ffffff;stroke-width:0.0320097;stroke-linecap:round;stroke-linejoin:round"
       id="rect85"
       width="12.504879"
       height="12.504879"
       x="178.17952"
       y="135.84329" /><rect
       style="opacity:1;fill:#ff4500;fill-opacity:1;stroke:#ffffff;stroke-width:0.0320097;stroke-linecap:round;stroke-linejoin:round"
       id="rect86"
       width="12.504879"
       height="12.504879"
       x="165.67464"
       y="135.84329" /><rect
       style="opacity:1;fill:#00a3c4;fill-opacity:1;stroke:#ffffff;stroke-width:0.0320097;stroke-linecap:round;stroke-linejoin:round"
       id="rect87"
       width="12.504879"
       height="12.504879"
       x="32.633141"
       y="119.44575" /><rect
       style="opacity:1;fill:#f0f8ff;fill-opacity:1;stroke:#ffffff;stroke-width:0.0320097;stroke-linecap:round;stroke-linejoin:round"
       id="rect88"
       width="12.504879"
       height="12.504879"
       x="45.138016"
       y="119.44575" /><rect
       style="opacity:1;fill:#1a2a3a;fill-opacity:1;stroke:#ffffff;stroke-width:0.0320097;stroke-linecap:round;stroke-linejoin:round"
       id="rect89"
       width="12.504879"
       height="12.504879"
       x="45.138016"
       y="131.95062" /><rect
       style="opacity:1;fill:#bfc1c2;fill-opacity:1;stroke:#ffffff;stroke-width:0.0320097;stroke-linecap:round;stroke-linejoin:round"
       id="rect90"
       width="12.504879"
       height="12.504879"
       x="32.633141"
       y="131.95062" /><g
       id="g5"
       transform="matrix(0.44124844,0,0,0.44124844,4.2716807,25.582758)"><path
         d="m 40.973802,61.009335 v -2.995326 l -4.528932,0.119813 v -3.187025 l 3.234951,0.239626 V 52.382798 H 36.44487 v -2.707774 l 4.109586,0.119813 0.239626,-2.827586 H 32.47906 v 14.042084 z m 1.090289,0 h 3.905904 V 45.313831 h -0.778784 l -3.845998,0.599065 v 1.114261 l 0.718878,0.431327 z m 5.487442,0 h 3.857979 V 50.825229 h -2.000878 l -2.575979,0.706897 v 1.281999 l 0.718878,0.443308 z M 49.288821,49.72295 h 0.45529 l 2.048802,-1.976915 V 47.32669 l -2.048802,-1.964934 h -0.45529 l -1.964933,1.964934 v 0.419345 z m 6.110492,11.286385 h 3.77411 l 3.055231,-10.184106 h -3.234951 l -0.886616,3.678259 -0.611046,3.175045 -0.55114,-3.175045 -0.766803,-3.678259 h -4.301287 z m 12.676188,-1.066336 0.383401,1.066336 h 3.282877 l -0.335477,-0.934542 v -4.876389 q 0,-1.317943 -0.203682,-2.168615 -0.203682,-0.862654 -0.694915,-1.413794 -0.479252,-0.563121 -1.258037,-0.790766 -0.778784,-0.239626 -1.976914,-0.239626 -1.353887,0 -2.659849,0.407364 -1.305962,0.395383 -2.12069,0.922561 l 0.766803,1.629456 q 0.45529,-0.239626 1.258037,-0.407364 0.802747,-0.179719 1.545587,-0.179719 0.862654,0 1.246056,0.299532 0.395383,0.299533 0.395383,1.030392 v 0.215663 q -0.407365,0 -0.850673,0.03594 -0.443308,0.03594 -1.006429,0.143776 -0.563121,0.107832 -1.078317,0.27557 -0.503215,0.155757 -1.006429,0.443308 -0.503215,0.27557 -0.862654,0.635009 -0.359439,0.359439 -0.587084,0.886616 -0.227644,0.515196 -0.227644,1.138224 0,3.199007 3.234951,3.199007 0.479252,0 0.934541,-0.143776 0.45529,-0.131794 0.766803,-0.323495 0.323496,-0.191701 0.563122,-0.383401 0.251607,-0.191701 0.37142,-0.335477 z m -0.946523,-0.790766 q -1.01841,0 -1.01841,-1.497663 0,-0.838691 0.431326,-1.234073 0.431327,-0.407365 1.162187,-0.407365 v 2.875512 q 0,0 -0.07189,0.07189 -0.07189,0.05991 -0.215664,0.131795 -0.131794,0.05991 -0.287551,0.05991 z m 10.411728,6.086501 q 4.984221,0 4.984221,-4.672708 v -8.003508 l 0.718878,-0.503215 V 50.933061 L 80.99132,50.825229 h -1.833139 l -0.203682,0.563121 q -1.090298,-0.658971 -2.575979,-0.658971 -0.982467,0 -1.761252,0.419345 -0.778784,0.407365 -1.270017,1.138224 -0.479252,0.718878 -0.73086,1.677382 -0.251607,0.946523 -0.251607,2.072765 0,2.408241 0.92256,3.762128 0.92256,1.353887 2.899475,1.353887 1.461718,0 2.480129,-1.054354 v 1.01841 q -0.01198,0.263589 -0.04793,0.479252 -0.02396,0.215664 -0.143776,0.479252 -0.119813,0.27557 -0.311514,0.45529 -0.1917,0.191701 -0.551139,0.311514 -0.347458,0.131794 -0.82671,0.131794 -0.479252,0 -1.150205,-0.191701 -0.670953,-0.191701 -0.970485,-0.419345 l -0.754822,1.641438 q 0.347457,0.383401 1.521625,0.802747 1.174167,0.431327 2.108709,0.431327 z m 0.383401,-6.26622 q -0.826709,0 -1.186148,-0.946523 -0.203682,-0.55114 -0.203682,-1.317943 v -1.857102 q 0.01198,-2.444185 1.605494,-2.456166 0.239626,0 0.527177,0.05991 v 6.314145 q -0.383402,0.203683 -0.742841,0.203683 z m 11.430151,0.970485 0.383402,1.066336 h 3.282876 l -0.335477,-0.934542 v -4.876389 q 0,-1.317943 -0.203682,-2.168615 -0.203682,-0.862654 -0.694915,-1.413794 -0.479252,-0.563121 -1.258037,-0.790766 -0.778784,-0.239626 -1.976914,-0.239626 -1.353887,0 -2.659849,0.407364 -1.305962,0.395383 -2.12069,0.922561 l 0.766803,1.629456 q 0.45529,-0.239626 1.258037,-0.407364 0.802747,-0.179719 1.545588,-0.179719 0.862653,0 1.246055,0.299532 0.395383,0.299533 0.395383,1.030392 v 0.215663 q -0.407365,0 -0.850673,0.03594 -0.443308,0.03594 -1.006429,0.143776 -0.563121,0.107832 -1.078317,0.27557 -0.503215,0.155757 -1.006429,0.443308 -0.503215,0.27557 -0.862654,0.635009 -0.359439,0.359439 -0.587084,0.886616 -0.227644,0.515196 -0.227644,1.138224 0,3.199007 3.234951,3.199007 0.479252,0 0.934541,-0.143776 0.45529,-0.131794 0.766804,-0.323495 0.323495,-0.191701 0.563121,-0.383401 0.251607,-0.191701 0.37142,-0.335477 z m -0.946523,-0.790766 q -1.01841,0 -1.01841,-1.497663 0,-0.838691 0.431327,-1.234073 0.431326,-0.407365 1.162186,-0.407365 v 2.875512 q 0,0 -0.07189,0.07189 -0.07189,0.05991 -0.215664,0.131795 -0.131794,0.05991 -0.287551,0.05991 z m 9.668885,1.857102 V 55.53388 q 0.347458,-0.64699 1.569551,-0.64699 0.850669,0 1.102279,0.227645 l 0.40736,-4.265343 q -0.32349,-0.107832 -0.62302,-0.107832 -2.659852,0 -3.151085,2.935419 l -0.347458,-2.85155 h -0.970485 l -2.57598,0.635009 v 1.353887 l 0.718878,0.443308 v 7.751902 z"
         id="text7"
         style="font-size:35.9439px;line-height:1.25;font-family:Jomhuria;-inkscape-font-specification:'Jomhuria, Normal';text-align:center;text-anchor:middle;fill:#1a2a3a;stroke-width:2.45073"
         aria-label="Elivagar" /><g
         id="g4"><path
           style="fill:#1a2a3a;fill-opacity:1;stroke-width:0.119015"
           d="m 18.775876,60.935278 c -0.216809,-0.25767 -0.23623,-0.48197 -0.07096,-0.81977 0.166,-0.33929 0.04686,-0.84131 -0.171843,-0.72425 -0.227034,0.12151 -0.431294,0.42506 -0.431294,0.64094 0,0.25191 -0.07354,0.27259 -0.153515,0.0432 -0.138483,-0.39726 0.0084,-0.64422 0.752123,-1.26459 0.681249,-0.56825 0.894023,-0.89671 0.806576,-1.24511 -0.03278,-0.1305 -0.04718,-0.11921 -0.291056,0.22808 -0.324434,0.46199 -0.676335,0.77841 -1.159847,1.04294 -0.26695,0.14604 -0.38982,0.24598 -0.412241,0.33531 -0.06567,0.26164 0.02223,0.73236 0.214511,1.14848 0.225639,0.48837 0.217567,0.53415 -0.04093,0.23214 -0.23335,-0.27261 -0.399021,-0.60445 -0.436839,-0.87497 -0.0156,-0.11148 -0.042,-0.23839 -0.05867,-0.28204 -0.01667,-0.0436 -0.02583,-0.0993 -0.0204,-0.12373 0.0132,-0.0587 -0.257186,0.13543 -0.383795,0.27552 -0.07602,0.0841 -0.09292,0.16083 -0.07115,0.32309 0.03032,0.22605 -0.02747,0.28004 -0.118216,0.11045 -0.200736,-0.37507 0.0072,-0.69871 0.792524,-1.23359 1.002316,-0.68267 1.079386,-0.79513 0.441741,-0.64461 -1.082968,0.25565 -1.765082,0.70335 -1.765082,1.15853 0,0.0448 -0.02381,0.0815 -0.05293,0.0815 -0.08283,0 -0.06196,-0.36159 0.03234,-0.56031 0.181663,-0.38282 0.765626,-0.73459 1.695218,-1.02116 0.964309,-0.29728 1.288415,-0.63801 1.310141,-1.37732 0.01339,-0.45501 -0.06063,-0.40592 0.67823,-0.44999 0.621522,-0.0371 0.621522,-0.0371 0.622684,0.29735 0.0025,0.76128 0.406449,1.20086 1.400574,1.52468 0.203648,0.0663 0.548791,0.20884 0.766984,0.31668 0.218192,0.10785 0.567643,0.26232 0.776558,0.34328 0.561315,0.21753 0.961701,0.61734 0.967833,0.96646 0.0019,0.12242 -0.09125,0.0674 -0.157626,-0.0928 -0.12342,-0.29796 -1.005777,-0.80996 -1.14901,-0.66673 -0.08295,0.083 0.111465,0.45508 0.380675,0.72862 0.160809,0.16339 0.292376,0.33538 0.292376,0.38219 0,0.11955 -0.04756,0.10617 -0.168311,-0.0474 -0.05728,-0.0729 -0.205821,-0.20238 -0.330036,-0.28785 -0.159906,-0.11001 -0.282562,-0.2633 -0.420066,-0.52498 -0.23275,-0.44293 -0.343305,-0.51904 -1.083397,-0.74594 -0.7974,-0.24446 -0.658462,0.003 0.353019,0.62774 0.847091,0.52353 1.075654,0.90268 0.84687,1.40482 -0.09962,0.21865 -0.144679,0.15528 -0.112343,-0.15799 0.02918,-0.28258 -0.291315,-0.76519 -0.508118,-0.76519 -0.108698,0 -0.100564,0.54815 0.01036,0.69818 0.125611,0.1699 0.09554,0.23866 -0.06151,0.14059 -0.05968,-0.0373 -0.117009,-0.0568 -0.127361,-0.0433 -0.01036,0.0135 -0.09502,0.14597 -0.188143,0.2945 -0.347631,0.55443 -0.481011,0.56192 -0.221047,0.0124 0.24919,-0.52675 0.145544,-0.68934 -0.651849,-1.02251 -0.355122,-0.14838 -0.339567,0.2423 0.01762,0.44306 0.225191,0.12657 0.316868,0.24975 0.316868,0.42576 0,0.1522 -0.08739,0.13688 -0.127348,-0.0223 -0.02141,-0.0852 -0.111976,-0.17122 -0.25699,-0.244 -0.381748,-0.1916 -0.461843,-0.29518 -0.463119,-0.59897 -0.0019,-0.3877 -0.36978,-0.67876 -0.492967,-0.38974 -0.04086,0.0958 -0.149579,0.26782 -0.241674,0.38229 -0.239192,0.29734 -0.206603,0.35134 0.312675,0.51801 0.749205,0.24046 0.874949,0.53254 0.433183,1.00618 -0.247649,0.26553 -0.345573,0.19146 -0.142323,-0.10765 0.242621,-0.35705 0.148354,-0.48756 -0.449806,-0.62272 -0.218085,-0.0493 -0.4582,-0.13314 -0.533583,-0.18635 -0.305475,-0.21563 -0.778952,0.57911 -0.573599,0.9628 0.101385,0.18945 0.02135,0.22346 -0.122763,0.0522 z m 0.617417,-1.75125 c 0.340394,-0.48019 0.2604,-0.6562 -0.14699,-0.32339 -0.377543,0.30842 -0.377543,0.30842 -0.359253,0.60978 0.01977,0.32585 0.107385,0.27629 0.506243,-0.28639 z m 2.569857,0.13657 c 0,-0.22716 -0.05785,-0.29208 -0.43828,-0.492 -0.4643,-0.24398 -0.858004,-0.62397 -1.111463,-1.07275 -0.194181,-0.34382 -0.194181,-0.34382 -0.193833,-0.0793 6.31e-4,0.53137 0.312232,0.91074 1.214617,1.4791 0.525183,0.33078 0.528959,0.33195 0.528959,0.16499 z m -2.706578,-7.50546 c 0.04105,-1.40543 -0.532983,-2.42345 -0.857563,-1.52081 -0.189001,0.52559 -0.460574,0.65778 -1.044151,0.50828 -0.437907,-0.11219 -0.448701,-0.1282 -0.293235,-0.43499 0.28337,-0.5592 0.609825,-0.72886 1.122061,-0.58314 0.15796,0.045 0.300208,0.0607 0.316098,0.0349 0.05053,-0.0818 -0.376431,-0.25869 -1.072244,-0.44435 -0.371031,-0.099 -0.741607,-0.20568 -0.823508,-0.23705 -0.33459,-0.12818 -0.497401,-0.0795 -0.613741,0.1835 -0.291846,0.65976 -0.583161,0.77884 -1.292748,0.52845 -0.459999,-0.16233 -0.44409,-0.13054 -0.230388,-0.46046 0.431188,-0.66567 0.693419,-0.769 1.298558,-0.5117 0.38958,0.16565 0.430739,0.0518 0.0831,-0.2299 -0.298761,-0.24208 -0.298761,-0.24208 -0.731483,-0.21508 -0.675179,0.0421 -0.847337,-0.089 -1.117356,-0.85096 -0.179339,-0.50608 -0.176529,-0.50908 0.478454,-0.50992 0.702481,-10e-4 0.936109,0.17707 1.080719,0.82327 0.09336,0.41718 0.744525,0.84537 1.521405,1.00044 0.229744,0.0459 -0.124349,-0.6793 -0.483348,-0.98987 -0.521584,-0.45122 -0.523586,-0.82938 -0.009,-1.6944 0.261234,-0.43913 0.264802,-0.43913 0.66971,0 0.655431,0.71082 0.679588,1.02427 0.137239,1.78067 -0.277667,0.38725 0.04528,0.84245 0.768506,1.08311 0.491034,0.1634 0.876623,0.41226 1.138993,0.7351 0.227294,0.27968 0.227294,0.27968 0.227294,-0.007 0,-0.48273 -0.250712,-0.78963 -0.68478,-0.83824 -0.550211,-0.0616 -0.699848,-0.26627 -0.760882,-1.04067 -0.02659,-0.33718 -0.02659,-0.33718 0.215969,-0.30394 0.667374,0.0915 0.965428,0.36738 1.005759,0.931 0.06483,0.9061 0.295193,0.71788 0.257672,-0.21054 -0.04345,-1.07559 -0.03164,-1.04045 -0.44445,-1.32238 -0.619116,-0.42285 -0.703051,-0.71616 -0.417786,-1.45993 0.224666,-0.58577 0.244472,-0.60266 0.499504,-0.42592 0.834567,0.57836 1.016962,1.00444 0.69837,1.63139 -0.269911,0.53114 -0.07159,1.05299 0.253573,0.66727 0.183842,-0.21808 0.223428,-0.30381 0.223674,-0.48436 0.0013,-0.73856 0.348522,-1.05065 1.255972,-1.12792 0.443042,-0.0377 0.440813,-0.0422 0.312258,0.62146 -0.146359,0.75555 -0.355817,0.95954 -1.02679,0.99997 -0.612118,0.0369 -0.85911,0.39261 -0.85911,1.23729 0,0.41905 0.279934,0.22507 0.334003,-0.23143 0.0629,-0.53101 0.312542,-0.75325 0.923807,-0.82241 0.465298,-0.0526 0.482527,-0.0395 0.425541,0.32386 -0.120515,0.76852 -0.324725,0.97497 -0.964404,0.97497 -0.397115,0 -0.397115,0 -0.529743,0.22631 -0.258695,0.44143 -0.233363,1.11315 0.02615,0.69326 0.128106,-0.20728 0.678874,-0.59213 1.058715,-0.73978 0.327472,-0.1273 0.323575,-0.12274 0.60668,-0.70945 0.358311,-0.74259 0.453614,-0.70616 0.209414,0.08 -0.07229,0.23274 -0.131795,0.42668 -0.13223,0.43099 -4.74e-4,0.004 0.183677,-0.038 0.409145,-0.0941 0.815235,-0.20259 1.080789,-0.40762 0.715783,-0.55264 -0.676531,-0.2688 -0.822694,-0.39476 -0.880968,-0.75917 -0.03088,-0.19331 0.0281,-0.76991 0.104555,-1.02193 0.03954,-0.13032 0.11576,-0.11742 0.529585,0.0896 0.697228,0.34883 0.878531,0.7049 0.68711,1.34948 -0.04674,0.15729 -0.08493,0.36177 -0.08493,0.45439 0,0.34899 -0.398542,0.62419 -1.295944,0.89487 -0.617877,0.18636 -1.072155,0.40401 -1.266165,0.60662 -0.228967,0.23912 0.01263,0.22416 0.473812,-0.0293 0.495676,-0.27246 0.81065,-0.18579 1.342805,0.3695 0.219835,0.22939 0.194617,0.27402 -0.285789,0.50572 -0.555498,0.2679 -0.771303,0.23877 -1.1457,-0.15468 -0.323607,-0.34009 -0.395189,-0.36624 -0.627137,-0.22923 -0.224186,0.13242 -0.290936,0.43977 -0.286572,1.3195 0.0038,0.74645 0.0038,0.74645 -0.486196,0.80666 -0.764805,0.094 -0.687419,0.16906 -0.663666,-0.64385 z"
           id="path90"
           sodipodi:nodetypes="cssssssssssssscsscssssssssccsscccsscssscssssssssssssscssssssssccssssssscsssssssccssssssscscscssssssssscssssssscssssscsssssssccscsccssscsssscsss" /><path
           style="fill:#00a3c4;fill-opacity:1;stroke-width:0.119015"
           d="m 11.695351,60.571188 c -0.516878,-0.63197 -0.55985,-1.08664 -0.138704,-1.46752 0.299487,-0.27086 0.349646,-0.78571 0.143144,-1.46925 -0.165691,-0.54847 -0.30358,-0.46426 -0.286136,0.17475 0.01857,0.68125 -0.193398,0.92342 -0.948369,1.08338 -0.5518476,0.11691 -0.5159616,0.14682 -0.4773096,-0.39769 0.05798,-0.81648 0.2074176,-1.00941 0.8640476,-1.11533 0.514459,-0.083 0.66791,-0.27755 0.726191,-0.92072 0.05671,-0.62566 -0.25176,-0.68916 -0.42472,-0.0874 -0.18976,0.66018 -0.321618,0.74858 -1.116561,0.74858 -0.6355798,0 -0.6101528,0.0225 -0.4552808,-0.40411 0.3106222,-0.85575 0.5639728,-1.04316 1.2082128,-0.89375 0.412808,0.0957 0.735721,-0.0263 1.037059,-0.39185 0.263456,-0.31962 -0.0083,-0.41226 -0.299842,-0.10223 -0.355677,0.37821 -0.70341,0.36461 -1.140907,-0.0446 -0.319539,-0.29889 -0.323082,-0.27391 0.0719,-0.50757 0.461401,-0.27296 0.702564,-0.26973 1.009845,0.0135 0.277098,0.25542 0.537517,0.23095 0.92548,-0.087 0.308551,-0.25283 0.211713,-0.32368 -0.313988,-0.22973 -0.640399,0.11444 -0.891521,-0.0284 -1.152711,-0.65584 -0.235573,-0.56587 -0.229024,-0.59311 0.153192,-0.63747 0.849182,-0.0986 1.211636,0.11414 1.374371,0.80655 0.09675,0.41163 0.596847,0.35351 1.690728,-0.19648 1.078906,-0.54246 2.076391,-0.75425 4.990154,-1.05955 2.125465,-0.2227 2.923199,-0.6141 3.853391,-1.89063 0.122151,-0.16763 0.228159,-0.31263 0.235573,-0.32223 0.0074,-0.01 0.111168,0.038 0.230565,0.1058 0.184878,0.10494 0.224338,0.11175 0.265946,0.0459 0.04206,-0.0667 0.09884,-0.0679 0.409025,-0.009 0.198097,0.0376 0.446049,0.0758 0.551008,0.0847 0.104953,0.009 0.243859,0.0446 0.308677,0.0794 0.274717,0.14702 0.31705,-0.71987 0.04339,-0.88899 -0.188401,-0.11644 -0.334804,-0.14629 -0.366597,-0.0748 -0.168849,0.37991 -1.457289,0.33318 -1.470855,-0.0534 -6.32e-4,-0.022 -0.07281,-0.13871 -0.160089,-0.2592 -0.20529,-0.28338 -0.209167,-0.2719 0.145462,-0.43088 0.770173,-0.34526 1.067191,-0.28889 1.451175,0.27544 0.163891,0.24086 0.572077,0.38005 0.572077,0.19506 0,-0.22701 -0.302071,-0.60731 -0.661279,-0.83253 -0.289003,-0.1812 -0.443225,-0.36239 -0.308455,-0.36239 0.09872,0 0.757162,0.40407 0.930065,0.57077 0.198355,0.19123 0.198355,0.19123 0.198355,-0.12552 0,-0.31676 0,-0.31676 -0.435702,-0.3751 -0.680832,-0.0911 -0.939584,-0.46079 -0.939584,-1.34225 0,-0.37212 0.03909,-0.38523 0.646418,-0.21683 0.635334,0.17617 0.83413,0.39972 0.834459,0.93834 1.13e-4,0.17721 0.03638,0.43904 0.08062,0.58185 0.12366,0.39925 0.10868,1.85728 -0.02577,2.50524 -0.15028,0.72442 -0.0846,0.67733 0.331672,-0.23784 0.382071,-0.83998 0.390414,-0.88978 0.227906,-1.36061 -0.259616,-0.75216 -0.188951,-0.98394 0.445783,-1.46222 0.504058,-0.37982 0.493201,-0.37756 0.594567,-0.1238 0.426634,1.06805 0.256996,1.65934 -0.553572,1.92953 -0.02571,0.009 -0.10789,0.23917 -0.182572,0.51241 -0.07468,0.27326 -0.181569,0.60364 -0.237531,0.7342 -0.05596,0.13055 -0.09239,0.24674 -0.08093,0.25818 0.05488,0.0549 0.538679,-0.19031 0.553862,-0.28069 0.133809,-0.79663 0.44044,-1.05867 1.177538,-1.00636 0.709195,0.0503 0.716281,0.0585 0.501329,0.58135 -0.323651,0.78714 -0.539949,0.91257 -1.324421,0.76802 -0.374845,-0.0691 -0.880178,0.18585 -1.234284,0.62265 -0.754641,0.93084 -0.727497,0.86611 -0.363174,0.86611 0.273063,0 0.2838,-0.006 0.374145,-0.19835 0.36661,-0.78184 0.701572,-0.92881 1.595633,-0.70014 0.541382,0.13846 0.545077,0.14403 0.338941,0.51074 -0.498026,0.88597 -0.75746,1.01428 -1.535597,0.75942 -0.679006,-0.22239 -1.004393,-0.126 -1.794555,0.53158 -0.509015,0.4236 -0.179061,0.59193 0.502541,0.25638 0.672097,-0.33087 1.014916,-0.22591 1.610872,0.49319 0.174874,0.21101 0.318314,0.39776 0.31875,0.41499 0.0025,0.10351 -0.896296,0.44316 -1.215798,0.45937 -0.508464,0.0258 -0.572132,-0.0251 -1.137249,-0.90921 -0.112096,-0.17537 -0.77827,-0.0512 -1.172157,0.21852 -0.803886,0.55044 -1.867167,0.94126 -2.900803,1.06623 -2.80864,0.33958 -3.212405,0.42255 -3.95194,0.81211 -1.174601,0.61872 -1.441652,2.29844 -0.529971,3.3335 0.0756,0.0858 0.06938,0.0926 -0.08535,0.0926 -0.273,0 -0.117705,0.20918 0.418966,0.56433 0.374852,0.24807 0.258013,0.2816 -0.512779,0.14719 -2.806372,-0.4894 -4.404057,-3.21707 -3.143222,-5.36633 0.170667,-0.29092 0.170667,-0.29092 -0.04838,-0.0793 -0.854878,0.82578 -0.812968,2.67292 0.08553,3.76941 0.308153,0.37606 0.140087,0.33292 -0.223611,-0.0574 -0.486778,-0.52241 -0.579795,-0.30083 -0.107442,0.25595 0.416832,0.49135 0.411274,0.70725 -0.03556,1.38006 -0.268162,0.40377 -0.274724,0.40484 -0.534859,0.0868 z"
           id="path91"
           sodipodi:nodetypes="csscssssssccssssscsscsssscccsccsccsssssssscsssscsssscsscscccsscsssssscsscssssscscsssscc" /></g></g><text
       xml:space="preserve"
       style="font-style:normal;font-variant:normal;font-weight:normal;font-stretch:normal;font-size:18.742px;line-height:1.25;font-family:Jomhuria;-inkscape-font-specification:'Jomhuria, Normal';font-variant-ligatures:normal;font-variant-caps:normal;font-variant-numeric:normal;font-variant-east-asian:normal;text-align:center;text-anchor:middle;fill:#1a2a3a;fill-opacity:1;stroke-width:1.27787"
       x="49.429329"
       y="166.60217"
       id="text91"><tspan
         sodipodi:role="line"
         id="tspan91"
         style="font-style:normal;font-variant:normal;font-weight:normal;font-stretch:normal;font-size:18.742px;font-family:Jomhuria;-inkscape-font-specification:'Jomhuria, Normal';font-variant-ligatures:normal;font-variant-caps:normal;font-variant-numeric:normal;font-variant-east-asian:normal;fill:#1a2a3a;fill-opacity:1;stroke-width:1.27787"
         x="49.429329"
         y="166.60217">Elivagar</tspan></text><g
       id="g3"
       transform="matrix(0.79359975,0,0,0.79359975,-48.09736,15.268088)"><path
         id="path32"
         style="fill:url(#linearGradient92);stroke-width:0.119015"
         d="m 81.371362,18.145892 c -0.0418,0.0023 -0.06576,0.02756 -0.06576,0.08072 0,0.05329 -0.01016,0.14839 -0.02279,0.21159 -0.02121,0.10604 -0.0021,0.12899 0.248047,0.30013 0.244864,0.16751 0.726864,0.61626 0.85612,0.79688 0.02802,0.03918 0.140025,0.0952 0.248698,0.125 0.304045,0.08337 0.307899,0.08104 0.212239,-0.10742 -0.292683,-0.57664 -1.221109,-1.42073 -1.476562,-1.4069 z m -0.800782,0.24544 c -0.01049,-2.3e-4 -0.0187,0.0015 -0.02474,0.0052 -0.04716,0.029 -0.04163,1.98866 0.0059,2.1595 0.06499,0.23397 0.266057,0.5103 0.455078,0.625 0.291296,0.1768 0.16255,0.24242 -0.164713,0.08399 -0.38694,-0.18731 -0.525402,-0.49863 -0.557292,-1.25586 -0.02889,-0.68545 -0.521423,-0.71497 -3.164062,-0.19011 -0.589426,0.11707 -1.437468,0.26909 -1.884766,0.33789 -1.942659,0.29874 -2.954031,0.81897 -3.576172,1.83985 -0.17068,0.28007 -0.283235,0.3111 -0.639323,0.17643 -0.132941,-0.05027 -0.13322,-0.02937 0.01042,-0.25586 0.210386,-0.33175 0.149734,-0.63654 -0.227214,-1.14583 -0.222911,-0.30118 -0.210137,-0.29733 -0.359375,-0.10743 -0.268837,0.34211 -0.347278,0.687 -0.232422,1.02409 0.0771,0.22627 0.06946,0.23996 -0.08984,0.15756 -0.09441,-0.0488 -0.123047,-0.05132 -0.123047,-0.01172 0,0.09969 0.240475,0.34167 0.38737,0.38997 0.08156,0.02683 0.210739,0.09033 0.287109,0.14063 0.167775,0.11049 0.449998,0.21354 0.584635,0.21354 0.07884,0 0.09261,0.01341 0.06836,0.06901 -0.303106,0.69535 -0.285048,1.71671 0.04883,2.74284 0.160594,0.49357 0.125478,0.65697 -0.233073,1.09179 -0.150719,0.18284 -0.153009,0.85219 -0.0072,1.87826 0.02397,0.1686 0.0236,0.16862 0.450521,0.16862 0.474015,0 0.476563,-0.0021 0.476563,-0.38672 0,-0.58562 0.140803,-0.81912 0.646484,-1.07162 1.474928,-0.7365 1.927527,-1.09391 2.276042,-2.19856 0.03062,0.42727 0.01642,0.57995 -0.371745,1.06705 -0.247276,0.31028 -0.2523,0.30157 0.20638,0.38347 1.625588,0.2904 3.743881,0.23212 3.882162,-0.10677 0.01386,-0.03399 0.0238,-0.05671 0.03255,-0.0612 h 6.51e-4 l 6.51e-4,-6.5e-4 h 6.51e-4 6.51e-4 6.51e-4 c 2.19e-4,3e-5 0.0017,-6e-5 0.002,0 l 6.51e-4,6.5e-4 6.51e-4,6.5e-4 h 6.51e-4 c 0.01645,0.01529 0.03024,0.11512 0.05794,0.35286 0.07006,0.60092 0.254009,1.29898 0.472656,1.79297 0.145999,0.32989 1.079909,0.36797 0.973308,0.03972 -0.343786,-1.05857 0.276216,-2.79279 1.179036,-3.29818 0.06048,-0.03386 0.09934,-0.05529 0.111979,-0.05469 h 6.51e-4 6.51e-4 l 6.51e-4,6.5e-4 h 6.51e-4 l 6.51e-4,6.5e-4 6.51e-4,6.6e-4 v 6.5e-4 6.5e-4 6.5e-4 6.5e-4 c -0.0019,0.01967 -0.06677,0.09738 -0.210286,0.26823 -0.689582,0.82081 -0.685902,0.98904 0.01693,0.8431 0.995793,-0.20676 1.561312,-0.3102 1.708984,-0.3112 0.09079,-7.3e-4 0.302184,-0.07911 0.580079,-0.21549 0.556249,-0.273 1.263885,-0.55548 1.603515,-0.63998 0.263943,-0.06563 0.264268,-0.06575 0.149089,-0.34505 -0.14592,-0.35386 -0.148027,-0.34175 0.08398,-0.50651 0.585119,-0.41551 0.830769,-1.19459 0.445313,-1.41211 -0.988947,-0.55809 -0.965953,-0.53771 -1.317058,-1.17318 -0.524154,-0.94865 -0.699985,-1.15549 -1.167317,-1.3763 -0.265686,-0.12553 -0.885276,-0.32292 -1.014323,-0.32292 -0.0377,0 -0.15184,-0.10703 -0.253256,-0.23763 -0.289794,-0.37316 -1.381767,-1.16715 -1.595052,-1.17187 z m 0.608073,1.0625 c 0.0136,-4.6e-4 0.02837,0.0043 0.04557,0.01432 0.490094,0.28487 0.775646,0.95584 0.5,1.17578 -0.175354,0.1399 -0.18397,0.13864 -0.351562,-0.04687 -0.245825,-0.27209 -0.373857,-1.13718 -0.194011,-1.14323 z m -10.554036,1.62695 c 0.03071,-0.0066 0.06758,0.05576 0.125651,0.19076 0.07288,0.1695 0.07939,0.22173 0.04232,0.33398 -0.128789,0.39022 -0.350427,0.02711 -0.235677,-0.38607 0.02398,-0.08635 0.04382,-0.13351 0.06771,-0.13867 z m 12.65625,0.62435 c 0.222506,0 0.625721,0.3485 0.594401,0.51367 -0.02409,0.12699 -0.41102,0.10396 -0.547526,-0.03255 -0.14412,-0.14415 -0.176908,-0.48112 -0.04687,-0.48112 z m 3.440104,0.16536 -6.51e-4,6.6e-4 -6.51e-4,6.5e-4 c -0.02111,0.02111 0.101831,0.79012 0.156901,0.98177 0.04175,0.1452 0.07457,0.18506 0.185547,0.22526 0.290576,0.10508 0.313595,0.01207 0.121745,-0.49284 -0.06878,-0.18103 -0.411232,-0.71031 -0.460287,-0.7155 h -6.51e-4 -6.51e-4 -6.51e-4 z m -0.531901,0.20053 c -3.25e-4,7e-5 -9.94e-4,5.5e-4 -0.0013,6.5e-4 h -6.51e-4 c -2.75e-4,1.6e-4 -0.0017,0.0011 -0.002,0.0013 l -6.51e-4,6.5e-4 -6.51e-4,6.5e-4 -6.51e-4,6.5e-4 c -0.0095,0.01523 0.0017,0.06792 0.0345,0.15625 0.219645,0.59092 0.04193,1.36438 -0.429037,1.86784 -0.2491,0.26629 -0.249276,0.26635 -0.184896,0.41406 0.0354,0.08123 0.08186,0.19716 0.103516,0.25716 0.07295,0.20223 0.367149,0.15963 0.598307,-0.08658 0.634107,-0.67541 0.663544,-1.63207 0.07422,-2.41276 -0.102603,-0.13594 -0.166533,-0.20276 -0.190104,-0.19987 z m -9.449219,0.2539 h 0.108073 c -0.0081,0.03947 -0.0189,0.07778 -0.03255,0.11459 -0.0354,0.08847 -0.08333,0.15734 -0.143229,0.20638 -0.0953,0.07756 -0.191686,0.12903 -0.289714,0.15494 v 0.22657 c 0.08849,6.6e-4 0.193284,-0.03643 0.314453,-0.11198 0.07352,-0.04634 0.126238,-0.08408 0.157553,-0.11263 0.03131,-0.02854 0.07202,-0.07467 0.122395,-0.13868 0.06671,-0.0858 0.105646,-0.19656 0.116537,-0.33268 l 0.113932,0.0039 c -0.0068,0.0504 -0.01519,0.09709 -0.02604,0.14062 -0.02587,0.10346 -0.05941,0.18133 -0.10026,0.23308 -0.06535,0.08302 -0.113871,0.13929 -0.145182,0.16927 -0.04085,0.04086 -0.09652,0.0852 -0.167318,0.13281 -0.123891,0.08302 -0.252645,0.12915 -0.386068,0.13867 v 0.80925 h -0.140625 v -1.63021 h 0.140625 v 0.35742 c 0.01769,0 0.03686,-0.0035 0.05729,-0.01042 0.04901,-0.01766 0.10291,-0.05118 0.161458,-0.10156 0.08705,-0.07481 0.133154,-0.15824 0.138672,-0.24935 z m 2.565104,0.0046 h 0.140625 v 0.69857 c 0.02587,-0.0047 0.05285,-0.01184 0.08008,-0.02084 0.06263,-0.0204 0.119488,-0.04676 0.171223,-0.07942 0.06535,-0.03947 0.114463,-0.07957 0.147136,-0.12045 0.01089,-0.01233 0.03006,-0.04169 0.05729,-0.08789 0.04902,-0.08173 0.07476,-0.21108 0.07747,-0.38802 h 0.116537 c -0.0081,0.07082 -0.01654,0.13307 -0.02474,0.1875 -0.02178,0.1307 -0.04392,0.21337 -0.06706,0.2474 -0.02314,0.0326 -0.04651,0.06551 -0.06966,0.09831 -0.04902,0.05993 -0.105291,0.11081 -0.169271,0.15299 -0.08985,0.05993 -0.196478,0.10427 -0.319011,0.13281 v 0.8086 h -0.140625 z m 1.020834,0 h 0.141276 v 0.69857 c 0.02587,-0.0047 0.0522,-0.01184 0.07943,-0.02084 0.06263,-0.0204 0.119488,-0.04676 0.171224,-0.07942 0.06535,-0.03947 0.114455,-0.07957 0.147135,-0.12045 0.01089,-0.01233 0.03006,-0.04169 0.05729,-0.08789 0.04901,-0.08173 0.07475,-0.21108 0.07747,-0.38802 h 0.116536 c -0.0081,0.07082 -0.01653,0.13307 -0.02474,0.1875 -0.02178,0.1307 -0.0439,0.21337 -0.06706,0.2474 -0.02314,0.0326 -0.04651,0.06551 -0.06966,0.09831 -0.04902,0.05993 -0.10529,0.11081 -0.169271,0.15299 -0.08985,0.05993 -0.195827,0.10427 -0.318359,0.13281 v 0.8086 h -0.141276 z m -6.083334,0.0019 h 0.140625 c 0.170182,0 0.272605,0.0053 0.306641,0.01628 0.187881,0.05993 0.287286,0.19047 0.298177,0.39193 0.0028,0.05993 -0.01158,0.11921 -0.04297,0.17773 -0.02995,0.05853 -0.07007,0.10701 -0.120442,0.14518 -0.02723,0.02047 -0.0596,0.03608 -0.09635,0.04688 -0.01633,0.004 -0.05107,0.01178 -0.104166,0.02278 0.03676,0.0079 0.07267,0.01507 0.108073,0.02214 0.04085,0.01227 0.0786,0.03204 0.11263,0.05924 0.108915,0.08719 0.162819,0.19737 0.161458,0.33073 -0.0028,0.17019 -0.08185,0.29474 -0.236979,0.3737 -0.05854,0.02993 -0.187292,0.04375 -0.386068,0.04102 h -0.140625 z m 1.008464,0 h 0.141276 c 0.164736,0 0.266507,0.0053 0.30599,0.01628 0.18788,0.05993 0.287285,0.19047 0.298177,0.39193 0.0028,0.05993 -0.01158,0.11921 -0.04297,0.17773 -0.02995,0.05853 -0.07007,0.10701 -0.120443,0.14518 -0.04356,0.0326 -0.110008,0.05896 -0.19987,0.07943 0.0354,0.0047 0.07131,0.01183 0.108073,0.02083 0.03813,0.0079 0.07588,0.02472 0.11263,0.05078 0.108916,0.08034 0.162169,0.19051 0.160808,0.33073 -0.0028,0.17018 -0.0812,0.29473 -0.236328,0.3737 -0.05855,0.02993 -0.187306,0.04375 -0.386068,0.04102 h -0.141276 z m 2.501953,0 h 0.140625 v 0.64714 l 0.33724,-0.33659 0.0651,0.0651 -0.402344,0.40039 0.404297,0.40235 -0.06706,0.0651 -0.33724,-0.33724 v 0.72136 h -0.140625 v -0.71875 l -0.335286,0.33463 -0.06706,-0.06706 0.400391,-0.40039 -0.400391,-0.40234 0.0651,-0.06575 0.33724,0.33723 z m 1.155599,0 h 0.141276 v 1.62761 h -0.141276 v -0.66797 l -0.367188,0.26758 -0.05338,-0.07748 0.420573,-0.30859 v -0.31445 l -0.367188,0.26757 -0.05338,-0.07942 0.420573,-0.30664 z m 0.779948,0.07097 c 0.02451,0 0.0467,0.01195 0.06575,0.03515 0.02042,0.0218 0.0306,0.04513 0.0306,0.06966 0,0.0272 -0.0096,0.05057 -0.02865,0.07097 -0.01905,0.02046 -0.04183,0.0306 -0.06771,0.0306 -0.02451,0 -0.04605,-0.01014 -0.0651,-0.0306 -0.01769,-0.02174 -0.02669,-0.0451 -0.02669,-0.07097 0,-0.02453 0.009,-0.04786 0.02669,-0.06966 0.01905,-0.0232 0.0406,-0.03515 0.0651,-0.03515 z m 1.021484,0 c 0.02451,0 0.04604,0.01195 0.0651,0.03515 0.02042,0.0218 0.0306,0.04513 0.0306,0.06966 0,0.0272 -0.0096,0.05057 -0.02864,0.07097 -0.01905,0.02046 -0.04118,0.0306 -0.06706,0.0306 -0.02451,0 -0.0467,-0.01014 -0.06575,-0.0306 -0.01769,-0.02174 -0.02604,-0.0451 -0.02604,-0.07097 0,-0.02453 0.0083,-0.04786 0.02604,-0.06966 0.01905,-0.0232 0.04125,-0.03515 0.06575,-0.03515 z m -5.317708,0.04492 v 0.625 c 0.141592,0.004 0.260759,-0.03017 0.357422,-0.10222 0.06385,-0.04749 0.09616,-0.12214 0.09766,-0.22395 -1.34e-4,-0.06375 -0.01989,-0.12348 -0.05925,-0.17774 -0.03949,-0.05447 -0.08321,-0.08797 -0.130859,-0.10026 -0.04629,-0.01367 -0.134279,-0.02083 -0.264973,-0.02083 z m -1.009115,6.5e-4 v 0.61002 c 0.15929,0 0.278458,-0.0287 0.357422,-0.08723 0.06399,-0.0476 0.09695,-0.12246 0.09831,-0.22461 0,-0.064 -0.01976,-0.12328 -0.05925,-0.17774 -0.03949,-0.05446 -0.08321,-0.08797 -0.13086,-0.10026 -0.04629,-0.0136 -0.134929,-0.02018 -0.265625,-0.02018 z m 0.202474,0.20768 c 0.02178,0 0.04154,0.0102 0.05924,0.0306 0.01905,0.01907 0.02865,0.0406 0.02865,0.0638 0,0.02454 -0.009,0.04542 -0.02669,0.06315 -0.01633,0.01767 -0.03668,0.0267 -0.0612,0.0267 -0.02178,0 -0.04095,-0.009 -0.05729,-0.0267 -0.01633,-0.01906 -0.02474,-0.03995 -0.02474,-0.06315 0,-0.02313 0.0084,-0.04467 0.02474,-0.0638 0.01633,-0.0204 0.0355,-0.0306 0.05729,-0.0306 z m 13.455078,0.56315 c -0.04556,0.0045 -0.133246,0.03394 -0.301432,0.09115 -0.28498,0.097 -0.285391,0.09648 -0.503255,0.02148 -0.217921,-0.07497 -0.217467,-0.07467 -0.218099,0.0918 -0.0017,0.40748 -0.189397,0.94387 -0.453776,1.29687 -0.120117,0.16036 -0.133658,0.15175 0.348958,0.21745 0.199707,0.0272 0.378024,0.05169 0.395834,0.05469 l 6.51e-4,6.5e-4 6.51e-4,-6.5e-4 c 0.07778,-0.02576 0.779297,-1.56803 0.779297,-1.7168 0,-0.04074 -0.0033,-0.0611 -0.04883,-0.05664 z m -12.648437,0.01107 v 0.61849 c 0.151121,0 0.261886,-0.02033 0.332682,-0.0612 0.03676,-0.0218 0.06729,-0.05654 0.0918,-0.10417 0.02587,-0.049 0.03723,-0.10047 0.03451,-0.15494 -0.0055,-0.10348 -0.03541,-0.17715 -0.08984,-0.22071 -0.04221,-0.034 -0.09907,-0.05612 -0.171224,-0.06705 -0.04221,-0.0069 -0.108063,-0.01042 -0.197917,-0.01042 z m -1.009115,0.01628 v 0.60221 c 0.151122,0 0.261887,-0.02033 0.332683,-0.0612 0.03676,-0.0218 0.06794,-0.05654 0.09245,-0.10417 0.02587,-0.049 0.03723,-0.10047 0.0345,-0.15494 -0.0055,-0.09671 -0.0354,-0.16919 -0.08984,-0.2168 -0.05037,-0.04353 -0.173736,-0.0651 -0.369793,-0.0651 z m 0.210287,0.19791 c 0.02178,0 0.04154,0.01013 0.05924,0.0306 0.01905,0.01907 0.02865,0.0406 0.02865,0.0638 0,0.0232 -0.009,0.04409 -0.02669,0.06315 -0.01769,0.01767 -0.03806,0.0267 -0.0612,0.0267 -0.02178,0 -0.04154,-0.009 -0.05925,-0.0267 -0.01633,-0.01906 -0.02409,-0.03995 -0.02409,-0.06315 0,-0.02313 0.0078,-0.04466 0.02409,-0.0638 0.01769,-0.02047 0.03745,-0.0306 0.05925,-0.0306 z m 7.38737,2.78386 c -0.01533,0 -0.258031,0.04481 -0.539714,0.09961 -0.281684,0.05483 -0.581918,0.1129 -0.667318,0.1289 -0.355116,0.06687 -0.285264,0.39769 0.254558,1.20052 0.298389,0.44377 0.6224,0.84596 0.70638,0.87696 0.03678,0.0131 0.191664,0.01872 0.344401,0.01172 0.152737,-0.0068 0.344983,-0.01333 0.427083,-0.01433 0.14925,-0.0022 0.149139,-0.0023 0.05534,-0.15104 -0.260545,-0.41322 -0.472,-1.14202 -0.52474,-1.80534 -0.01398,-0.176 -0.03666,-0.32258 -0.05208,-0.3444 -2.58e-4,-3e-4 -10e-4,-0.0017 -0.0013,-0.002 h -6.51e-4 l -6.51e-4,-6.5e-4 h -6.51e-4 z m -7.779297,0.22786 c -0.114191,4.8e-4 -0.166155,0.04281 -0.283854,0.13867 -0.115083,0.09373 -0.274478,0.21082 -0.354818,0.26042 -0.14558,0.08996 -0.146455,0.0907 -0.09049,0.22461 0.112097,0.26828 0.478175,0.84255 0.804037,1.26107 0.199189,0.25585 0.176721,0.24987 0.785807,0.20247 0.322148,-0.02508 0.322458,-0.02519 0.171875,-0.347 -0.371615,-0.79417 -0.378826,-0.87965 -0.0944,-1.18685 0.285934,-0.3088 0.312736,-0.38477 0.136068,-0.38477 -0.06531,0 -0.350195,-0.04506 -0.633464,-0.10026 -0.225322,-0.04393 -0.35194,-0.06873 -0.440755,-0.06836 z" /><path
         d="m 93.669065,26.386079 q 0.5221,0 0.92468,-0.213873 0.40887,-0.220162 0.66678,-0.603875 0.2579,-0.383712 0.39,-0.880651 0.1321,-0.503229 0.1321,-1.094524 0,-1.258073 -0.49065,-1.968884 -0.48436,-0.710812 -1.52227,-0.710812 -0.42774,0 -0.74855,0.157259 -0.320811,0.157259 -0.547264,0.390003 V 21.039267 H 91.4234 l -1.352429,0.371132 v 0.673069 l 0.377422,0.232744 v 5.969558 h 2.025498 v -2.163886 q 0.226453,0.113226 0.528394,0.188711 0.30193,0.07548 0.66678,0.07548 z m -0.924688,-0.874361 q -0.0629,0 -0.132098,-0.0063 -0.0629,-0.0063 -0.138388,-0.02516 v -3.321313 q 0.220163,-0.125808 0.427744,-0.125808 0.30194,0 0.49065,0.276776 0.195,0.276777 0.195,0.84291 v 1.069362 q 0,1.289525 -0.842908,1.289525 z m 6.994888,0.874361 q 0.522105,0 0.924685,-0.213873 0.40888,-0.220162 0.66678,-0.603875 0.25791,-0.383712 0.39001,-0.880651 0.13209,-0.503229 0.13209,-1.094524 0,-1.258073 -0.49065,-1.968884 -0.48435,-0.710812 -1.522265,-0.710812 -0.24533,0 -0.46549,0.05661 -0.21387,0.05661 -0.38371,0.150969 -0.16984,0.09436 -0.28936,0.195002 -0.11952,0.100645 -0.22016,0.213872 v -3.384217 h -0.40888 l -2.0192,0.314518 v 0.585004 l 0.37742,0.226453 v 7.114405 h 2.05066 v -0.295647 q 0.55355,0.295647 1.25807,0.295647 z m -0.92468,-0.874361 q -0.0755,0 -0.15726,-0.0063 -0.0818,-0.01258 -0.17613,-0.03774 v -3.27099 q 0.23903,-0.16984 0.47177,-0.16984 0.30823,0 0.50323,0.295647 0.2013,0.289357 0.2013,0.830329 v 1.069362 q 0,1.289525 -0.84291,1.289525 z m 9.083275,0.874361 v -3.667284 q 0.006,-0.0063 0.0629,-0.05661 0.0629,-0.05032 0.0755,-0.0629 0.0189,-0.01258 0.0692,-0.05032 0.0566,-0.03774 0.0818,-0.05032 0.0314,-0.01258 0.0818,-0.03774 0.0503,-0.02516 0.0944,-0.03145 0.0503,-0.0063 0.10065,-0.0063 0.5221,0 0.50323,0.591295 v 3.371636 h 2.07582 V 23.19687 q 0,-0.04403 0.006,-0.119517 0,-0.07548 0,-0.113226 0,-1.107105 -0.35855,-1.578882 -0.35226,-0.471778 -1.21404,-0.471778 -0.24533,0 -0.50323,0.100646 -0.25162,0.09436 -0.43404,0.232744 -0.18242,0.132097 -0.33339,0.270485 -0.14468,0.138388 -0.22016,0.239034 l -0.0755,0.09436 V 18.14571 h -0.40887 l -2.01921,0.314518 v 0.585004 l 0.37743,0.226453 v 7.114405 z m -3.20808,0 v -4.239707 h 0.81145 v -1.107105 h -0.81145 v -0.899522 q 0,-0.748554 0.48436,-0.824038 0.0692,-0.01258 0.15096,-0.01258 0.32081,0 0.62275,0.150969 l 0.23903,-0.956136 q -0.0943,-0.09436 -0.47177,-0.207582 -0.37742,-0.113226 -0.80517,-0.113226 -0.47807,0 -0.86807,0.119517 -0.38371,0.113226 -0.70452,0.371131 -0.31452,0.257905 -0.49065,0.723392 -0.17613,0.465488 -0.17613,1.100815 v 0.547261 l -0.63533,0.270486 v 0.836619 h 0.61017 v 4.239707 z m 9.67459,-0.622746 q -0.57872,0 -0.57872,-1.18888 v -2.044369 q 0,-0.402583 0.15097,-0.622746 0.15097,-0.220163 0.42146,-0.220163 0.57871,0 0.57871,1.226622 v 1.987755 q 0,0.402584 -0.15097,0.635327 -0.14468,0.226454 -0.42145,0.226454 z m -0.0503,0.754844 q 1.49081,0 2.18275,-0.691941 0.69823,-0.69194 0.69823,-2.138724 0,-1.396462 -0.66049,-2.082112 -0.65419,-0.69194 -2.13243,-0.69194 -1.51598,0 -2.18905,0.723392 -0.67307,0.717102 -0.67307,2.138725 0,1.434203 0.66678,2.088402 0.66678,0.654198 2.10728,0.654198 z m 5.98843,2.088401 q 2.61679,0 2.61679,-2.453243 v -4.201964 l 0.37742,-0.264196 v -0.591294 l -1.18259,-0.05661 h -0.96242 l -0.10694,0.295648 q -0.57242,-0.34597 -1.35243,-0.34597 -0.51581,0 -0.92468,0.220162 -0.40888,0.213873 -0.66678,0.597585 -0.25161,0.377422 -0.38371,0.880651 -0.1321,0.496939 -0.1321,1.088234 0,1.264364 0.48436,1.975175 0.48436,0.710811 1.52227,0.710811 0.76742,0 1.3021,-0.553552 v 0.534681 q -0.006,0.138388 -0.0252,0.251615 -0.0126,0.113227 -0.0755,0.251615 -0.0629,0.144678 -0.16355,0.239034 -0.10065,0.100645 -0.28936,0.163549 -0.18242,0.06919 -0.43404,0.06919 -0.25161,0 -0.60387,-0.100646 -0.35226,-0.100646 -0.50952,-0.220163 l -0.39629,0.861781 q 0.18242,0.201291 0.79887,0.421454 0.61646,0.226453 1.10711,0.226453 z m 0.20129,-3.289861 q -0.43404,0 -0.62275,-0.496939 -0.10693,-0.289357 -0.10693,-0.691941 v -0.975006 q 0.006,-1.283235 0.84291,-1.289526 0.1258,0 0.27677,0.03145 v 3.315023 q -0.20129,0.106937 -0.39,0.106937 z m 5.70535,3.289861 q 2.6168,0 2.6168,-2.453243 v -4.201964 l 0.37742,-0.264196 v -0.591294 l -1.18259,-0.05661 h -0.96243 l -0.10693,0.295648 q -0.57243,-0.34597 -1.35243,-0.34597 -0.51581,0 -0.92468,0.220162 -0.40888,0.213873 -0.66678,0.597585 -0.25162,0.377422 -0.38372,0.880651 -0.13209,0.496939 -0.13209,1.088234 0,1.264364 0.48435,1.975175 0.48436,0.710811 1.52227,0.710811 0.76743,0 1.30211,-0.553552 v 0.534681 q -0.006,0.138388 -0.0252,0.251615 -0.0126,0.113227 -0.0755,0.251615 -0.0629,0.144678 -0.16355,0.239034 -0.10064,0.100645 -0.28935,0.163549 -0.18242,0.06919 -0.43404,0.06919 -0.25161,0 -0.60387,-0.100646 -0.35226,-0.100646 -0.50952,-0.220163 l -0.3963,0.861781 q 0.18242,0.201291 0.79888,0.421454 0.61646,0.226453 1.1071,0.226453 z m 0.2013,-3.289861 q -0.43404,0 -0.62275,-0.496939 -0.10694,-0.289357 -0.10694,-0.691941 v -0.975006 q 0.006,-1.283235 0.84291,-1.289526 0.12581,0 0.27678,0.03145 v 3.315023 q -0.20129,0.106937 -0.39,0.106937 z"
         id="text92"
         style="font-size:18.8711px;line-height:1.25;font-family:Jomhuria;-inkscape-font-specification:'Jomhuria, Normal';text-align:center;letter-spacing:0px;text-anchor:middle;fill:#1b2e21;stroke-width:1.28667"
         aria-label="pbfhogg" /></g><path
       style="fill:url(#linearGradient93);stroke-width:0.119015"
       d="m 75.053037,165.57517 c -0.325862,-0.41852 -0.691947,-0.99261 -0.804044,-1.26089 -0.05596,-0.13391 -0.05564,-0.1347 0.08994,-0.22466 0.08034,-0.0496 0.240241,-0.16695 0.355324,-0.26068 0.209244,-0.17042 0.209244,-0.17042 0.724265,-0.07 0.283269,0.0552 0.56847,0.10042 0.63378,0.10042 0.176668,0 0.149858,0.0758 -0.136076,0.3846 -0.284425,0.3072 -0.277655,0.39269 0.09396,1.18686 0.150583,0.32181 0.150583,0.32181 -0.171565,0.34689 -0.609086,0.0474 -0.5864,0.0533 -0.785589,-0.20255 z m 7.458122,0.19329 c -0.08398,-0.031 -0.407876,-0.43318 -0.706265,-0.87695 -0.539822,-0.80283 -0.610021,-1.13336 -0.254905,-1.20023 0.0854,-0.016 0.385734,-0.0741 0.667418,-0.12893 0.281683,-0.0548 0.524696,-0.0997 0.540031,-0.0997 0.01535,0 0.04029,0.15621 0.05545,0.34713 0.05274,0.66332 0.264714,1.39184 0.525259,1.80506 0.0938,0.14877 0.0938,0.14877 -0.05545,0.15096 -0.0821,10e-4 -0.274232,0.008 -0.426969,0.0148 -0.152737,0.007 -0.307793,0.001 -0.344575,-0.0121 z M 71.911242,165.595 c -0.145847,-1.02607 -0.143119,-1.69527 0.0076,-1.87811 0.358551,-0.43482 0.39347,-0.59858 0.232876,-1.09215 -0.333876,-1.02613 -0.352116,-2.04711 -0.04901,-2.74246 0.02425,-0.0556 0.01067,-0.0694 -0.06817,-0.0694 -0.134637,0 -0.416693,-0.10305 -0.584468,-0.21354 -0.07637,-0.0503 -0.205581,-0.11339 -0.287141,-0.14022 -0.146895,-0.0483 -0.387281,-0.29054 -0.387281,-0.39023 0,-0.0396 0.02829,-0.0369 0.1227,0.0119 0.159306,0.0824 0.167352,0.0683 0.09025,-0.15797 -0.114856,-0.33709 -0.03663,-0.68206 0.232207,-1.02417 0.149238,-0.1899 0.136493,-0.19371 0.359404,0.10747 0.376948,0.50929 0.437288,0.81397 0.226902,1.14572 -0.143637,0.22649 -0.142841,0.20594 -0.0099,0.25621 0.356088,0.13467 0.468601,0.10362 0.639281,-0.17645 0.622141,-1.02088 1.633173,-1.54107 3.575832,-1.83981 0.447298,-0.0688 1.295526,-0.22085 1.884952,-0.33792 2.642639,-0.52486 3.13536,-0.49525 3.164254,0.1902 0.03189,0.75723 0.170036,1.0687 0.556976,1.25601 0.327263,0.15843 0.456241,0.0927 0.164945,-0.0841 -0.189021,-0.1147 -0.390401,-0.39112 -0.455395,-0.62509 -0.04749,-0.17084 -0.05286,-2.13061 -0.0057,-2.15961 0.128845,-0.0796 1.315762,0.77551 1.619809,1.16703 0.101416,0.1306 0.215237,0.23745 0.252935,0.23745 0.129047,0 0.749211,0.19722 1.014897,0.32275 0.467332,0.22081 0.642648,0.4276 1.166802,1.37625 0.351105,0.63547 0.328444,0.61529 1.317391,1.17338 0.385456,0.21752 0.139702,0.99665 -0.445417,1.41216 -0.232011,0.16476 -0.22999,0.15256 -0.08407,0.50642 0.115179,0.2793 0.115179,0.2793 -0.148764,0.34493 -0.33963,0.0845 -1.04743,0.36687 -1.603679,0.63987 -0.277895,0.13638 -0.4895,0.21509 -0.580294,0.21582 -0.147672,10e-4 -0.713376,0.10409 -1.709169,0.31085 -0.702829,0.14594 -0.706132,-0.0218 -0.01655,-0.84261 0.262434,-0.31241 0.262434,-0.31241 0.09414,-0.21819 -0.90282,0.50539 -1.522536,2.23913 -1.17875,3.2977 0.106601,0.32825 -0.827285,0.29019 -0.973284,-0.0397 -0.218647,-0.49399 -0.402628,-1.19177 -0.472688,-1.79269 -0.04547,-0.39014 -0.05116,-0.40707 -0.09786,-0.2926 -0.138281,0.33889 -2.256141,0.39711 -3.881729,0.10671 -0.45868,-0.0819 -0.453848,-0.073 -0.206572,-0.38328 0.421663,-0.52915 0.649493,-1.1541 0.610526,-1.67473 -0.02684,-0.35826 -0.09982,-0.56615 -0.104492,-0.29754 -0.02065,1.18962 -0.935321,2.36756 -2.410249,3.10406 -0.505681,0.2525 -0.646393,0.48572 -0.646393,1.07134 0,0.38462 -0.0025,0.38684 -0.476515,0.38684 -0.426924,0 -0.426924,0 -0.450892,-0.1686 z m 12.740647,-6.14118 c 0.03132,-0.16517 -0.372067,-0.51373 -0.594573,-0.51373 -0.130033,0 -0.09701,0.33706 0.04711,0.48121 0.136506,0.13651 0.523346,0.15949 0.54744,0.0325 z m -13.082544,-0.61349 c 0.03707,-0.11225 0.03038,-0.16454 -0.0425,-0.33404 -0.103241,-0.23999 -0.138792,-0.24957 -0.193605,-0.0522 -0.114749,0.41318 0.107346,0.77645 0.236135,0.38623 z m 10.931463,-0.96146 c 0.275646,-0.21994 -0.0097,-0.89134 -0.499794,-1.17621 -0.244718,-0.14222 -0.11653,0.83675 0.147887,1.12942 0.167592,0.18551 0.176553,0.1867 0.351907,0.0468 z m 5.188807,4.29358 c -0.482616,-0.0657 -0.469233,-0.0574 -0.349116,-0.21776 0.264379,-0.353 0.451979,-0.88919 0.453665,-1.29667 6.32e-4,-0.16647 6.32e-4,-0.16647 0.218553,-0.0915 0.217864,0.075 0.217864,0.075 0.502844,-0.022 0.336371,-0.11441 0.35043,-0.11579 0.35043,-0.0343 0,0.15053 -0.717343,1.72784 -0.780916,1.7171 -0.01781,-0.003 -0.195753,-0.0277 -0.39546,-0.0549 z m -1.205579,-0.16773 c -0.02166,-0.06 -0.06834,-0.17557 -0.103741,-0.2568 -0.06438,-0.14771 -0.06438,-0.14771 0.18472,-0.414 0.47097,-0.50346 0.64866,-1.27726 0.429015,-1.86818 -0.08405,-0.22612 -0.02829,-0.21247 0.162046,0.0397 0.589325,0.78069 0.559907,1.73736 -0.0742,2.41277 -0.231158,0.24621 -0.524892,0.28873 -0.597844,0.0865 z m 1.354571,-1.69123 c -0.110978,-0.0402 -0.143718,-0.0799 -0.185465,-0.2251 -0.05507,-0.19165 -0.177943,-0.96089 -0.15683,-0.982 0.0305,-0.0305 0.392928,0.52763 0.463928,0.7145 0.19185,0.50491 0.168943,0.59768 -0.121633,0.4926 z m -4.426705,-3.41827 c -0.108673,-0.0298 -0.220517,-0.0862 -0.248539,-0.12538 -0.129256,-0.18062 -0.611379,-0.62926 -0.856243,-0.79677 -0.250175,-0.17114 -0.26916,-0.19412 -0.247945,-0.30016 0.01263,-0.0632 0.02299,-0.15844 0.02299,-0.21173 0,-0.37808 1.201991,0.65572 1.542568,1.32672 0.09566,0.18846 0.09124,0.19069 -0.212805,0.10732 z"
       id="path92"
       sodipodi:nodetypes="ssssssssssssssssssssccssssssssssssssssssssssssssssssssssssssssssssccssssssssssssssccsssssssssssssssssssssss" /><g
       id="g2"
       transform="matrix(0.41374206,0,0,0.41374206,-50.423249,-2.9901013)"><path
         style="fill:#043927;fill-opacity:1;stroke-width:0.0768932"
         d="m 147.47725,63.924969 c -0.69856,-0.0361 -1.37237,-0.19892 -2.04448,-0.4939 -0.21843,-0.0959 -0.21359,-0.0974 -0.4362,0.13452 -0.14296,0.14893 -0.90298,0.29023 -0.90266,0.16782 7e-5,-0.0356 0.27866,-0.3815 0.4293,-0.53301 0.0896,-0.0902 0.15374,-0.17175 0.14241,-0.1813 -0.0114,-0.01 -0.11864,-0.0928 -0.23847,-0.18506 -2.32618,-1.79066 -1.974,-4.9857 0.67013,-6.0794 0.58448,-0.24176 0.86518,-0.27365 2.62346,-0.29796 1.65837,-0.0229 1.84833,-0.0408 2.34842,-0.22036 2.17554,-0.78127 2.01352,-3.52408 -0.24667,-4.17599 -0.51418,-0.1483 -1.40642,-0.18477 -1.53481,-0.0627 -0.0705,0.067 0.3978,0.38734 0.67302,0.46034 0.13385,0.0355 0.11908,0.0559 -0.0913,0.12626 -0.3537,0.11824 -0.81103,0.094 -1.17279,-0.0622 -0.27673,-0.11948 -0.27368,-0.0847 0.0247,0.28164 0.14679,0.18022 0.14608,0.18088 -0.10412,0.0964 -1.03072,-0.34784 -2.93391,0.54947 -2.87619,1.35607 0.011,0.15443 0.007,0.17565 -0.0288,0.16565 -0.0228,-0.006 -0.10492,-0.0292 -0.18245,-0.0509 -0.4186,-0.11703 -0.86614,-0.57249 -0.93778,-0.95438 -0.0226,-0.12047 -0.0184,-0.1218 0.1971,-0.0621 0.10372,0.0288 0.20908,0.0523 0.23413,0.0523 0.06,0 1.72935,-1.32323 1.70282,-1.34976 -0.0492,-0.0492 -2.18819,0.75431 -2.31698,0.87036 -0.0619,0.0558 -0.12241,0.20331 -0.14823,0.36127 -0.0163,0.0998 -0.0163,0.0998 -0.14435,-0.0256 -0.57059,-0.55864 -0.60149,-1.19636 -0.0778,-1.60667 0.15678,-0.12285 0.15678,-0.12285 0.17266,-0.0512 0.0653,0.29413 -0.004,0.30349 0.68184,-0.0924 0.57255,-0.33054 0.57255,-0.33054 0.56355,-0.64718 -0.009,-0.31665 -0.009,-0.31665 0.16661,-0.40287 1.0717,-0.52622 1.84248,-1.22436 2.49407,-2.25902 0.0581,-0.0923 0.0655,0.23187 0.0117,0.51262 -0.0801,0.41729 1.00048,-1.09601 1.28109,-1.79417 0.0682,-0.16967 0.0982,-0.0532 0.0991,0.38446 0.001,0.64091 -0.2619,1.32519 -0.75285,1.9575 -0.0723,0.0931 -0.0228,0.0817 0.23361,-0.0536 0.79353,-0.41863 1.51576,-1.10572 1.89295,-1.80085 0.13025,-0.24004 0.14388,-0.21395 0.12473,0.23862 -0.0209,0.4943 -0.16643,0.94803 -0.43245,1.34842 -0.0548,0.0824 -0.0553,0.0868 -0.008,0.0676 0.91495,-0.37372 1.72998,-0.46706 2.54516,-0.29147 0.13663,0.0294 0.13663,0.0294 -0.0384,0.0921 -0.24629,0.0881 -0.47507,0.24559 -0.59826,0.41186 -0.11483,0.155 -0.11341,0.16062 0.0515,0.20576 0.0634,0.0174 0.19031,0.0586 0.28194,0.0917 0.11015,0.0397 0.25297,0.0656 0.42149,0.0761 0.63403,0.0399 1.26077,0.26081 1.76035,0.62051 0.31986,0.2303 0.31964,0.2268 0.0142,0.2268 -0.27177,0 -0.42246,0.0471 -0.60479,0.18912 -0.062,0.0483 -0.062,0.0483 0.0437,0.16101 0.0581,0.062 0.14876,0.16804 0.2014,0.23561 0.0527,0.0676 0.13097,0.14108 0.17405,0.16336 0.63982,0.33087 1.25468,1.01245 1.43579,1.59164 0.0187,0.0596 0.0187,0.0596 -0.0798,-0.005 -0.30343,-0.20029 -0.78195,-0.20934 -0.72584,-0.0137 0.0136,0.0474 0.0416,0.21496 0.0622,0.37233 0.0306,0.23332 0.0523,0.31116 0.11749,0.42175 0.31704,0.5377 0.53562,1.75658 0.36513,2.03616 -0.0293,0.0479 -0.0313,0.0482 -0.032,0.004 -0.001,-0.0897 -0.16356,-0.35317 -0.28085,-0.45645 -0.19889,-0.17514 -0.19595,-0.17572 -0.2459,0.0496 -0.32837,1.4813 -1.49772,2.77518 -2.96927,3.28551 -0.82309,0.28546 -1.31443,0.33013 -3.66864,0.33359 -1.75558,0.003 -2.31678,0.25513 -2.49654,1.12349 -0.11251,0.5435 0.28953,1.43924 0.60065,1.33824 0.91554,-0.29722 1.40424,-0.90772 1.39888,-1.7475 -0.002,-0.35033 -0.002,-0.35033 0.76697,-0.3534 0.76922,-0.003 0.76922,-0.003 0.76569,0.36315 -0.008,0.85203 0.34528,1.32059 1.31288,1.74026 0.56032,0.24302 1.74726,-1.28332 1.99535,-2.5659 0.0273,-0.14096 0.0273,-0.14096 0.28946,-0.27469 0.42657,-0.21755 0.92259,-0.61923 1.2529,-1.0146 0.0816,-0.0976 0.12421,-0.13284 0.12414,-0.10252 -0.005,2.13245 -1.06648,4.34178 -2.62708,5.46692 -0.0846,0.061 -0.15787,0.11409 -0.16285,0.11802 -0.005,0.004 0.0995,0.11096 0.23227,0.23786 0.50416,0.48198 0.51317,0.54144 0.0821,0.54144 -0.37725,0 -0.37725,0 -0.51497,-0.1522 -0.29661,-0.32775 -0.29531,-0.3274 -0.6266,-0.17065 -0.78304,0.37047 -1.78671,0.55978 -2.71359,0.51183 z m -0.0984,-2.10057 c 0.23865,-0.62066 0.20685,-0.96134 -0.0644,-0.69008 -0.22236,0.22236 -0.49389,0.41615 -0.73497,0.52455 -0.17545,0.0789 -0.1719,0.076 -0.12671,0.10452 0.0973,0.0615 0.77103,0.25949 0.83227,0.24459 0.0141,-0.003 0.0563,-0.086 0.0938,-0.18358 z m 1.79006,0.12687 c 0.23212,-0.0583 0.51348,-0.16674 0.49791,-0.19192 -0.008,-0.0129 -0.0743,-0.0537 -0.1473,-0.0907 -0.32476,-0.16418 -0.63666,-0.40364 -0.84386,-0.64786 -0.15314,-0.18052 -0.15544,0.16201 -0.005,0.642 0.12515,0.39745 0.10651,0.38664 0.49757,0.28844 z m -3.3672,-10.83906 c 0.39399,-0.19276 0.63441,-0.72385 0.26042,-0.57526 -0.5117,0.2033 -0.84041,0.45956 -0.84041,0.65518 0,0.0463 0.44813,-0.0154 0.57999,-0.0799 z m -3.46612,12.58297 c 0.0953,-0.24843 0.62618,-0.81799 0.98434,-1.05612 0.2384,-0.1585 0.2384,-0.1585 0.45202,0.0654 0.21362,0.22394 0.21362,0.22394 0.0658,0.30292 -0.27893,0.14903 -0.52346,0.36143 -0.72816,0.63246 -0.0816,0.10805 -0.81433,0.1604 -0.77399,0.0553 z m 10.35846,-0.0344 c -0.1039,-0.20091 -0.45911,-0.51571 -0.77413,-0.68604 -0.18373,-0.0993 -0.18373,-0.0993 0.0255,-0.3128 0.2092,-0.21345 0.2092,-0.21345 0.33751,-0.14273 0.38963,0.21477 0.72562,0.51913 0.99054,0.89728 0.24611,0.35132 0.2629,0.31948 -0.16862,0.31948 -0.3719,0 -0.3719,0 -0.41078,-0.0752 z m -10.36865,-6.96052 c 0,-0.26912 0,-0.26912 0.41651,-0.26969 0.50494,-6.4e-4 0.53985,-0.0131 0.81056,-0.28876 0.18782,-0.19125 0.18863,-0.19266 0.12815,-0.22433 -0.0335,-0.0176 -0.15481,-0.12163 -0.26965,-0.23132 -0.24443,-0.23346 -0.25606,-0.2369 -0.75882,-0.22435 -0.32684,0.008 -0.32684,0.008 -0.32679,-0.25652 8e-5,-0.44551 0.96222,-0.38605 1.46513,0.0905 0.26817,0.25415 0.19206,0.24721 0.92637,0.0844 0.31795,-0.0705 0.60198,-0.12815 0.63118,-0.12815 0.068,0 0.069,0.005 -0.0371,-0.18802 -0.0705,-0.12833 -0.0962,-0.21276 -0.11748,-0.38692 -0.0375,-0.30683 -0.0464,-0.29651 0.25543,-0.29651 0.28322,0 0.28549,0.002 0.28549,0.18233 0,0.31161 0.20803,0.5038 0.63792,0.58936 0.38214,0.0761 0.69786,0.2678 0.97667,0.59316 0.12455,0.14535 0.13781,0.12885 0.12112,-0.15076 -0.0238,-0.3994 -0.16049,-0.60852 -0.67202,-1.02835 -0.54141,-0.44433 -0.63732,-0.95468 -0.17942,-0.95468 0.26912,0 0.26912,0 0.26912,0.0905 0,0.1881 0.0563,0.25856 0.56002,0.70035 0.10216,0.0896 0.23271,0.22513 0.29012,0.30116 0.0574,0.076 0.11164,0.13826 0.12052,0.13826 0.009,1e-5 0.0162,-0.2784 0.0162,-0.61869 0,-0.6187 0,-0.6187 0.26913,-0.61678 0.26912,0.002 0.26912,0.002 0.27643,0.25985 0.004,0.14187 0.0125,0.25794 0.0189,0.25794 0.0205,0 0.76561,-0.56734 0.85396,-0.65023 0.12626,-0.11845 0.18358,-0.24722 0.18358,-0.41244 0,-0.14199 0,-0.14199 0.26912,-0.14199 0.30561,0 0.29765,-0.012 0.24297,0.36614 -0.0518,0.35852 -0.14504,0.47522 -0.72823,0.91195 -0.75833,0.56788 -0.8441,0.7046 -0.82917,1.32171 0.007,0.29973 0.007,0.29973 0.12188,0.12511 0.3514,-0.53531 0.86328,-0.92026 1.32829,-0.99894 0.41754,-0.0707 0.56912,-0.20498 0.56912,-0.50434 0,-0.14513 0,-0.14513 0.27234,-0.14513 0.27234,0 0.27234,0 0.25989,0.21146 -0.0319,0.54219 -0.32405,0.85122 -0.90388,0.9562 -0.39058,0.0707 -0.83842,0.41047 -1.03802,0.7875 -0.103,0.19458 -2.12214,0.18939 -2.29772,-0.006 -0.28653,-0.31868 -0.50303,-0.34136 -1.3835,-0.14493 -0.35415,0.079 -0.65704,0.14365 -0.6731,0.14365 -0.10691,0 -0.30441,0.1462 -0.65056,0.48159 -0.52391,0.50761 -0.61121,0.54322 -1.33244,0.5435 -0.37806,1.5e-4 -0.37806,1.5e-4 -0.37806,-0.26898 z"
         id="path1"
         sodipodi:nodetypes="ssscssssssssssssssssssssssssssssssssssssscssssssssssssssssssssssssssssssssssssssssssssssssssssssssssssssssssssssssssssssssssssssssssssssssssssssssssssssssssssss" /><path
         d="m 164.06968,63.813171 v -4.757873 l -0.76075,-4.951284 1.89542,3.739251 3.06876,5.969906 h 3.93266 V 48.701442 h -4.11317 v 4.048706 l 0.6318,5.737815 -2.26934,-4.886813 -2.37249,-4.899708 h -4.74498 l 0.63181,1.212033 v 13.899696 z m 10.00572,0 h 4.15186 V 52.8533 h -2.1533 l -2.7722,0.760744 v 1.379654 l 0.77364,0.477077 z m 1.86962,-12.146116 h 0.48997 l 2.20487,-2.127505 v -0.451289 l -2.20487,-2.11461 h -0.48997 l -2.11461,2.11461 v 0.451289 z m 11.28225,12.146116 h 3.28797 V 46.922075 h -1.00573 l -4.56447,0.644698 v 1.418337 l 1.41834,0.477076 v 3.906872 q -0.47708,-0.257879 -1.13467,-0.438394 -0.65759,-0.180516 -1.4957,-0.180516 -1.40544,0 -2.39828,0.773638 -0.99283,0.773638 -1.45702,2.050141 -0.46418,1.263608 -0.46418,2.888248 0,2.591688 0.99284,4.048706 0.99283,1.457018 3.12034,1.457018 0.55444,0 1.0573,-0.154728 0.50287,-0.154727 0.83811,-0.361031 0.33524,-0.206303 0.6318,-0.477076 0.29656,-0.283668 0.4255,-0.464183 0.14184,-0.180516 0.24499,-0.361031 z m -1.81804,-2.372489 q -0.6576,0 -1.0831,-0.618911 -0.4255,-0.61891 -0.4255,-1.830943 v -1.805155 q 0.0129,-2.63037 1.72779,-2.643264 0.33525,0 0.73496,0.09026 v 6.485665 q -0.23209,0.154728 -0.47708,0.244986 -0.24498,0.07736 -0.47707,0.07736 z m 10.83093,2.372489 v -7.517182 q 0.0129,-0.01289 0.12894,-0.116046 0.12894,-0.103152 0.15472,-0.12894 0.0387,-0.02579 0.14184,-0.103151 0.11604,-0.07736 0.16762,-0.103152 0.0645,-0.02579 0.16762,-0.07736 0.10315,-0.05158 0.19341,-0.06447 0.10315,-0.01289 0.2063,-0.01289 1.0702,0 1.03152,1.212033 v 6.911166 h 4.25501 V 57.27593 q 0,-0.09026 0.0129,-0.244985 0,-0.154728 0,-0.232091 0,-2.269339 -0.73495,-3.236386 -0.72206,-0.967048 -2.48854,-0.967048 -0.50286,0 -1.03151,0.206304 -0.51576,0.193409 -0.88969,0.477077 -0.37392,0.270773 -0.68338,0.55444 -0.29656,0.283667 -0.45129,0.489971 l -0.15472,0.193409 v -7.594546 h -0.83811 l -4.13897,0.644698 v 1.199139 l 0.77364,0.464183 v 14.583076 z m 13.25501,-1.276502 q -1.18625,0 -1.18625,-2.43696 V 55.90917 q 0,-0.825214 0.30946,-1.276503 0.30945,-0.451289 0.86389,-0.451289 1.18625,0 1.18625,2.514324 v 4.074493 q 0,0.825214 -0.30946,1.302291 -0.29656,0.464183 -0.86389,0.464183 z m -0.10316,1.547276 q 3.05587,0 4.47421,-1.418337 1.43123,-1.418336 1.43123,-4.383948 0,-2.862461 -1.35387,-4.267903 -1.34097,-1.418337 -4.37105,-1.418337 -3.10745,0 -4.4871,1.482807 -1.37966,1.469912 -1.37966,4.383948 0,2.939825 1.36677,4.280797 1.36676,1.340973 4.31947,1.340973 z m 12.27506,4.280797 q 5.36389,0 5.36389,-5.028647 v -8.61317 l 0.77364,-0.541547 V 52.969345 L 225.38054,52.8533 h -1.97278 l -0.2192,0.606016 q -1.17335,-0.709168 -2.7722,-0.709168 -1.05731,0 -1.89541,0.451289 -0.83811,0.438395 -1.36676,1.224927 -0.51576,0.773638 -0.78654,1.805155 -0.27077,1.018623 -0.27077,2.230656 0,2.591688 0.99284,4.048706 0.99283,1.457018 3.12034,1.457018 1.57306,0 2.66905,-1.134669 v 1.095987 q -0.0129,0.283667 -0.0516,0.515759 -0.0258,0.232091 -0.15473,0.515758 -0.12894,0.296562 -0.33524,0.489971 -0.2063,0.206304 -0.59312,0.335243 -0.37393,0.141834 -0.88969,0.141834 -0.51575,0 -1.23782,-0.206304 -0.72206,-0.206303 -1.04441,-0.451288 l -0.81232,1.766473 q 0.37393,0.412607 1.63754,0.863896 1.2636,0.464183 2.26933,0.464183 z m 0.41261,-6.743545 q -0.88968,0 -1.2765,-1.018623 -0.2192,-0.593123 -0.2192,-1.418337 v -1.998564 q 0.0129,-2.63037 1.72779,-2.643264 0.25788,0 0.56734,0.06447 V 61.402 q -0.41261,0.219197 -0.79943,0.219197 z m 11.69482,6.743545 q 5.36389,0 5.36389,-5.028647 v -8.61317 l 0.77364,-0.541547 V 52.969345 L 237.48797,52.8533 h -1.97278 l -0.2192,0.606016 q -1.17335,-0.709168 -2.7722,-0.709168 -1.05731,0 -1.89541,0.451289 -0.83811,0.438395 -1.36676,1.224927 -0.51576,0.773638 -0.78654,1.805155 -0.27077,1.018623 -0.27077,2.230656 0,2.591688 0.99284,4.048706 0.99283,1.457018 3.12034,1.457018 1.57306,0 2.66905,-1.134669 v 1.095987 q -0.0129,0.283667 -0.0516,0.515759 -0.0258,0.232091 -0.15473,0.515758 -0.12894,0.296562 -0.33524,0.489971 -0.2063,0.206304 -0.59312,0.335243 -0.37393,0.141834 -0.88969,0.141834 -0.51575,0 -1.23782,-0.206304 -0.72206,-0.206303 -1.04441,-0.451288 l -0.81232,1.766473 q 0.37393,0.412607 1.63754,0.863896 1.2636,0.464183 2.26933,0.464183 z m 0.41261,-6.743545 q -0.88968,0 -1.2765,-1.018623 -0.2192,-0.593123 -0.2192,-1.418337 v -1.998564 q 0.0129,-2.63037 1.72779,-2.643264 0.25788,0 0.56734,0.06447 V 61.402 q -0.41261,0.219197 -0.79943,0.219197 z"
         id="text1"
         style="font-size:38.6819px;line-height:1.25;font-family:Jomhuria;-inkscape-font-specification:'Jomhuria, Normal';text-align:center;text-anchor:middle;fill:#043927;stroke-width:2.63741"
         aria-label="Nidhogg" /></g></g></svg>
