<?xml version="1.0" encoding="UTF-8" standalone="no"?>
<svg
   width="31.847721mm"
   height="27.162796mm"
   viewBox="0 0 31.847721 27.162796"
   version="1.1"
   id="svg1"
   sodipodi:docname="kvakk-logo.svg"
   xmlns:inkscape="http://www.inkscape.org/namespaces/inkscape"
   xmlns:sodipodi="http://sodipodi.sourceforge.net/DTD/sodipodi-0.dtd"
   xmlns="http://www.w3.org/2000/svg"
   xmlns:svg="http://www.w3.org/2000/svg">
  <defs
     id="defs1" />
  <sodipodi:namedview
     id="namedview1"
     pagecolor="#ffffff"
     bordercolor="#666666"
     borderopacity="1.0"
     inkscape:showpageshadow="2"
     inkscape:pageopacity="0.0"
     inkscape:pagecheckerboard="0"
     inkscape:deskcolor="#d1d1d1"
     inkscape:document-units="mm"
     showgrid="false"
     inkscape:zoom="3.783204"
     inkscape:cx="181.85644"
     inkscape:cy="96.611232"
     inkscape:window-width="3840"
     inkscape:window-height="2116"
     inkscape:window-maximized="1"
     inkscape:current-layer="g1" />
  <g
     id="g1"
     transform="translate(-4.3971874,-21.168753)">
    <path
       d="M 14.583265,48.331549 V 41.540854 L 4.3971874,31.354803 H 17.978579 c -6.790719,-6.7907 -5.658948,-10.18605 3.395312,-10.18605 l 6.790765,6.790696 h -6.790765 c 9.054261,9.05427 7.922491,13.581405 -3.395312,13.581405 v 3.395341 l 6.790763,3.395354"
       style="fill:#d07810;fill-opacity:1;stroke-width:10.186"
       id="path1"
       sodipodi:nodetypes="cccccccccc" />
    <path
       fill="#5d0a0a"
       d="m 33.748902,33.633869 c 0.228159,0.153902 0.530327,0.09223 0.708899,-0.160355 1.127699,-1.614702 1.787107,-3.691569 1.787107,-5.891653 0,-2.200084 -0.665499,-4.282533 -1.787107,-5.897537 -0.178572,-0.252599 -0.48074,-0.314203 -0.708899,-0.154168 -0.23406,0.160355 -0.271141,0.468372 -0.09204,0.727481 0.992128,1.460223 1.608515,3.334024 1.608515,5.324532 0,1.990505 -0.597771,3.888453 -1.608515,5.324528 -0.178952,0.25262 -0.141757,0.560614 0.09204,0.727154 m -2.483336,-1.682166 c 0.240228,0.159975 0.536248,0.09849 0.708614,-0.148019 0.813557,-1.133943 1.287864,-2.643691 1.287864,-4.221547 0,-1.583731 -0.468102,-3.093491 -1.287864,-4.22743 -0.178572,-0.240539 -0.468386,-0.302144 -0.708899,-0.141776 -0.23406,0.160354 -0.270875,0.462177 -0.08653,0.727481 0.671818,0.985657 1.090884,2.27995 1.090884,3.64173 0,1.362082 -0.406712,2.668456 -1.090884,3.642351 -0.178572,0.264993 -0.14802,0.566819 0.08653,0.727155 m -2.459177,-1.664487 c 0.209201,0.148019 0.511369,0.09849 0.690359,-0.141757 0.480475,-0.646996 0.76989,-1.596123 0.76989,-2.563823 0,-0.967382 -0.295583,-1.910019 -0.770156,-2.569704 -0.178572,-0.240228 -0.474573,-0.289757 -0.690358,-0.141757 -0.270857,0.178572 -0.30177,0.493133 -0.104373,0.764312 0.357543,0.480436 0.573044,1.213797 0.573044,1.947168 0,0.73336 -0.227874,1.46672 -0.578965,1.95367 -0.185214,0.264993 -0.154471,0.567123 0.109876,0.751939"
       id="path1-5"
       style="fill:#d07810;fill-opacity:1;stroke-width:0.309565"
       sodipodi:nodetypes="ccscccsccccscccsccccscccscc" />
  </g>
</svg>
