<?xml version="1.0" encoding="UTF-8" standalone="no"?>
<!-- Created with Inkscape (http://www.inkscape.org/) -->

<svg
   width="12.93967mm"
   height="17.085686mm"
   viewBox="0 0 12.93967 17.085686"
   version="1.1"
   id="svg1"
   sodipodi:docname="nidhogg-logo.svg"
   xmlns:inkscape="http://www.inkscape.org/namespaces/inkscape"
   xmlns:sodipodi="http://sodipodi.sourceforge.net/DTD/sodipodi-0.dtd"
   xmlns="http://www.w3.org/2000/svg"
   xmlns:svg="http://www.w3.org/2000/svg">
  <sodipodi:namedview
     id="namedview1"
     pagecolor="#ffffff"
     bordercolor="#666666"
     borderopacity="1.0"
     inkscape:showpageshadow="2"
     inkscape:pageopacity="0.0"
     inkscape:pagecheckerboard="0"
     inkscape:deskcolor="#d1d1d1"
     inkscape:document-units="mm"
     showgrid="false"
     inkscape:zoom="11.808921"
     inkscape:cx="38.614873"
     inkscape:cy="56.143993"
     inkscape:window-width="3840"
     inkscape:window-height="2116"
     inkscape:window-maximized="1"
     inkscape:current-layer="layer1" />
  <defs
     id="defs1" />
  <g
     inkscape:label="Layer 1"
     inkscape:groupmode="layer"
     id="layer1"
     transform="translate(-108.33333,-84.666671)">
    <path
       style="fill:#043927;fill-opacity:1;stroke-width:0.0768932"
       d="m 113.48522,101.74412 c -0.69856,-0.0361 -1.37237,-0.19892 -2.04448,-0.4939 -0.21843,-0.0959 -0.21359,-0.0974 -0.4362,0.13452 -0.14296,0.14893 -0.90298,0.29023 -0.90266,0.16782 7e-5,-0.0356 0.27866,-0.3815 0.4293,-0.53301 0.0896,-0.0902 0.15374,-0.17175 0.14241,-0.1813 -0.0114,-0.01 -0.11864,-0.0928 -0.23847,-0.18506 -2.32618,-1.790663 -1.974,-4.985703 0.67013,-6.079403 0.58448,-0.24176 0.86518,-0.27365 2.62346,-0.29796 1.65837,-0.0229 1.84833,-0.0408 2.34842,-0.22036 2.17554,-0.78127 2.01352,-3.52408 -0.24667,-4.17599 -0.51418,-0.1483 -1.40642,-0.18477 -1.53481,-0.0627 -0.0705,0.067 0.3978,0.38734 0.67302,0.46034 0.13385,0.0355 0.11908,0.0559 -0.0913,0.12626 -0.3537,0.11824 -0.81103,0.094 -1.17279,-0.0622 -0.27673,-0.11948 -0.27368,-0.0847 0.0247,0.28164 0.14679,0.18022 0.14608,0.18088 -0.10412,0.0964 -1.03072,-0.34784 -2.93391,0.54947 -2.87619,1.35607 0.011,0.15443 0.007,0.17565 -0.0288,0.16565 -0.0228,-0.006 -0.10492,-0.0292 -0.18245,-0.0509 -0.4186,-0.11703 -0.86614,-0.57249 -0.93778,-0.95438 -0.0226,-0.12047 -0.0184,-0.1218 0.1971,-0.0621 0.10372,0.0288 0.20908,0.0523 0.23413,0.0523 0.06,0 1.72935,-1.32323 1.70282,-1.34976 -0.0492,-0.0492 -2.18819,0.75431 -2.31698,0.87036 -0.0619,0.0558 -0.12241,0.20331 -0.14823,0.36127 -0.0163,0.0998 -0.0163,0.0998 -0.14435,-0.0256 -0.57059,-0.55864 -0.60149,-1.19636 -0.0778,-1.60667 0.15678,-0.12285 0.15678,-0.12285 0.17266,-0.0512 0.0653,0.29413 -0.004,0.30349 0.68184,-0.0924 0.57255,-0.33054 0.57255,-0.33054 0.56355,-0.64718 -0.009,-0.31665 -0.009,-0.31665 0.16661,-0.40287 1.0717,-0.52622 1.84248,-1.22436 2.49407,-2.25902 0.0581,-0.0923 0.0655,0.23187 0.0117,0.51262 -0.0801,0.41729 1.00048,-1.09601 1.28109,-1.79417 0.0682,-0.16967 0.0982,-0.0532 0.0991,0.38446 10e-4,0.64091 -0.2619,1.32519 -0.75285,1.9575 -0.0723,0.0931 -0.0228,0.0817 0.23361,-0.0536 0.79353,-0.41863 1.51576,-1.10572 1.89295,-1.80085 0.13025,-0.24004 0.14388,-0.21395 0.12473,0.23862 -0.0209,0.4943 -0.16643,0.94803 -0.43245,1.34842 -0.0548,0.0824 -0.0553,0.0868 -0.008,0.0676 0.91495,-0.37372 1.72998,-0.46706 2.54516,-0.29147 0.13663,0.0294 0.13663,0.0294 -0.0384,0.0921 -0.24629,0.0881 -0.47507,0.24559 -0.59826,0.41186 -0.11483,0.155 -0.11341,0.16062 0.0515,0.20576 0.0634,0.0174 0.19031,0.0586 0.28194,0.0917 0.11015,0.0397 0.25297,0.0656 0.42149,0.0761 0.63403,0.0399 1.26077,0.26081 1.76035,0.62051 0.31986,0.2303 0.31964,0.2268 0.0142,0.2268 -0.27177,0 -0.42246,0.0471 -0.60479,0.18912 -0.062,0.0483 -0.062,0.0483 0.0437,0.16101 0.0581,0.062 0.14876,0.16804 0.2014,0.23561 0.0527,0.0676 0.13097,0.14108 0.17405,0.16336 0.63982,0.33087 1.25468,1.01245 1.43579,1.59164 0.0187,0.0596 0.0187,0.0596 -0.0798,-0.005 -0.30343,-0.20029 -0.78195,-0.20934 -0.72584,-0.0137 0.0136,0.0474 0.0416,0.21496 0.0622,0.37233 0.0306,0.23332 0.0523,0.31116 0.11749,0.42175 0.31704,0.5377 0.53562,1.75658 0.36513,2.03616 -0.0293,0.0479 -0.0313,0.0482 -0.032,0.004 -0.001,-0.0897 -0.16356,-0.35317 -0.28085,-0.45645 -0.19889,-0.17514 -0.19595,-0.17572 -0.2459,0.0496 -0.32837,1.4813 -1.49772,2.77518 -2.96927,3.28551 -0.82309,0.28546 -1.31443,0.33013 -3.66864,0.33359 -1.75558,0.003 -2.31678,0.25513 -2.49654,1.12349 -0.11251,0.5435 0.28953,1.43924 0.60065,1.33824 0.91554,-0.29722 1.40424,-0.90772 1.39888,-1.7475 -0.002,-0.35033 -0.002,-0.35033 0.76697,-0.3534 0.76922,-0.003 0.76922,-0.003 0.76569,0.36315 -0.008,0.85203 0.34528,1.32059 1.31288,1.74026 0.56032,0.24302 1.74726,-1.28332 1.99535,-2.5659 0.0273,-0.14096 0.0273,-0.14096 0.28946,-0.27469 0.42657,-0.21755 0.92259,-0.61923 1.2529,-1.0146 0.0816,-0.0976 0.12421,-0.13284 0.12414,-0.10252 -0.005,2.13245 -1.06648,4.34178 -2.62708,5.466923 -0.0846,0.061 -0.15787,0.11409 -0.16285,0.11802 -0.005,0.004 0.0995,0.11096 0.23227,0.23786 0.50416,0.48198 0.51317,0.54144 0.0821,0.54144 -0.37725,0 -0.37725,0 -0.51497,-0.1522 -0.29661,-0.32775 -0.29531,-0.3274 -0.6266,-0.17065 -0.78304,0.37047 -1.78671,0.55978 -2.71359,0.51183 z m -0.0984,-2.100573 c 0.23865,-0.62066 0.20685,-0.96134 -0.0644,-0.69008 -0.22236,0.22236 -0.49389,0.41615 -0.73497,0.52455 -0.17545,0.0789 -0.1719,0.076 -0.12671,0.10452 0.0973,0.0615 0.77103,0.25949 0.83227,0.24459 0.0141,-0.003 0.0563,-0.086 0.0938,-0.18358 z m 1.79006,0.12687 c 0.23212,-0.0583 0.51348,-0.16674 0.49791,-0.19192 -0.008,-0.0129 -0.0743,-0.0537 -0.1473,-0.0907 -0.32476,-0.16418 -0.63666,-0.40364 -0.84386,-0.64786 -0.15314,-0.18052 -0.15544,0.16201 -0.005,0.642 0.12515,0.39745 0.10651,0.38664 0.49757,0.28844 z m -3.3672,-10.83906 c 0.39399,-0.19276 0.63441,-0.72385 0.26042,-0.57526 -0.5117,0.2033 -0.84041,0.45956 -0.84041,0.65518 0,0.0463 0.44813,-0.0154 0.57999,-0.0799 z m -3.46612,12.582973 c 0.0953,-0.24843 0.62618,-0.81799 0.98434,-1.05612 0.2384,-0.1585 0.2384,-0.1585 0.45202,0.0654 0.21362,0.22394 0.21362,0.22394 0.0658,0.30292 -0.27893,0.14903 -0.52346,0.36143 -0.72816,0.63246 -0.0816,0.10805 -0.81433,0.1604 -0.77399,0.0553 z m 10.35846,-0.0344 c -0.1039,-0.20091 -0.45911,-0.51571 -0.77413,-0.68604 -0.18373,-0.0993 -0.18373,-0.0993 0.0255,-0.3128 0.2092,-0.21345 0.2092,-0.21345 0.33751,-0.14273 0.38963,0.21477 0.72562,0.51913 0.99054,0.89728 0.24611,0.35132 0.2629,0.31948 -0.16862,0.31948 -0.3719,0 -0.3719,0 -0.41078,-0.0752 z m -10.36865,-6.960523 c 0,-0.26912 0,-0.26912 0.41651,-0.26969 0.50494,-6.4e-4 0.53985,-0.0131 0.81056,-0.28876 0.18782,-0.19125 0.18863,-0.19266 0.12815,-0.22433 -0.0335,-0.0176 -0.15481,-0.12163 -0.26965,-0.23132 -0.24443,-0.23346 -0.25606,-0.2369 -0.75882,-0.22435 -0.32684,0.008 -0.32684,0.008 -0.32679,-0.25652 8e-5,-0.44551 0.96222,-0.38605 1.46513,0.0905 0.26817,0.25415 0.19206,0.24721 0.92637,0.0844 0.31795,-0.0705 0.60198,-0.12815 0.63118,-0.12815 0.068,0 0.069,0.005 -0.0371,-0.18802 -0.0705,-0.12833 -0.0962,-0.21276 -0.11748,-0.38692 -0.0375,-0.30683 -0.0464,-0.29651 0.25543,-0.29651 0.28322,0 0.28549,0.002 0.28549,0.18233 0,0.31161 0.20803,0.5038 0.63792,0.58936 0.38214,0.0761 0.69786,0.2678 0.97667,0.59316 0.12455,0.14535 0.13781,0.12885 0.12112,-0.15076 -0.0238,-0.3994 -0.16049,-0.60852 -0.67202,-1.02835 -0.54141,-0.44433 -0.63732,-0.95468 -0.17942,-0.95468 0.26912,0 0.26912,0 0.26912,0.0905 0,0.1881 0.0563,0.25856 0.56002,0.70035 0.10216,0.0896 0.23271,0.22513 0.29012,0.30116 0.0574,0.076 0.11164,0.13826 0.12052,0.13826 0.009,1e-5 0.0162,-0.2784 0.0162,-0.61869 0,-0.6187 0,-0.6187 0.26913,-0.61678 0.26912,0.002 0.26912,0.002 0.27643,0.25985 0.004,0.14187 0.0125,0.25794 0.0189,0.25794 0.0205,0 0.76561,-0.56734 0.85396,-0.65023 0.12626,-0.11845 0.18358,-0.24722 0.18358,-0.41244 0,-0.14199 0,-0.14199 0.26912,-0.14199 0.30561,0 0.29765,-0.012 0.24297,0.36614 -0.0518,0.35852 -0.14504,0.47522 -0.72823,0.91195 -0.75833,0.56788 -0.8441,0.7046 -0.82917,1.32171 0.007,0.29973 0.007,0.29973 0.12188,0.12511 0.3514,-0.53531 0.86328,-0.92026 1.32829,-0.99894 0.41754,-0.0707 0.56912,-0.20498 0.56912,-0.50434 0,-0.14513 0,-0.14513 0.27234,-0.14513 0.27234,0 0.27234,0 0.25989,0.21146 -0.0319,0.54219 -0.32405,0.85122 -0.90388,0.9562 -0.39058,0.0707 -0.83842,0.41047 -1.03802,0.7875 -0.103,0.19458 -2.12214,0.18939 -2.29772,-0.006 -0.28653,-0.31868 -0.50303,-0.34136 -1.3835,-0.14493 -0.35415,0.079 -0.65704,0.14365 -0.6731,0.14365 -0.10691,0 -0.30441,0.1462 -0.65056,0.48159 -0.52391,0.50761 -0.61121,0.54322 -1.33244,0.5435 -0.37806,1.5e-4 -0.37806,1.5e-4 -0.37806,-0.26898 z"
       id="path29"
       sodipodi:nodetypes="ssscssssssssssssssssssssssssssssssssssssscssssssssssssssssssssssssssssssssssssssssssssssssssssssssssssssssssssssssssssssssssssssssssssssssssssssssssssssssssssss" />
  </g>
</svg>
