<?xml version="1.0" encoding="UTF-8" standalone="no"?>
<!-- Created with Inkscape (http://www.inkscape.org/) -->

<svg
   width="46.984554mm"
   height="8.301753mm"
   viewBox="0 0 46.984554 8.301753"
   version="1.1"
   id="svg1"
   sodipodi:docname="pbfhogg-logo-text.svg"
   xmlns:inkscape="http://www.inkscape.org/namespaces/inkscape"
   xmlns:sodipodi="http://sodipodi.sourceforge.net/DTD/sodipodi-0.dtd"
   xmlns:xlink="http://www.w3.org/1999/xlink"
   xmlns="http://www.w3.org/2000/svg"
   xmlns:svg="http://www.w3.org/2000/svg">
  <sodipodi:namedview
     id="namedview1"
     pagecolor="#ffffff"
     bordercolor="#666666"
     borderopacity="1.0"
     inkscape:showpageshadow="2"
     inkscape:pageopacity="0.0"
     inkscape:pagecheckerboard="0"
     inkscape:deskcolor="#d1d1d1"
     inkscape:document-units="mm"
     showgrid="false"
     inkscape:zoom="2.0875421"
     inkscape:cx="139.39839"
     inkscape:cy="316.64032"
     inkscape:window-width="3840"
     inkscape:window-height="2116"
     inkscape:window-maximized="1"
     inkscape:current-layer="layer1" />
  <defs
     id="defs1">
    <linearGradient
       inkscape:collect="always"
       xlink:href="#linearGradient91"
       id="linearGradient92"
       x1="77.769363"
       y1="172.13402"
       x2="84.25235"
       y2="155.24525"
       gradientUnits="userSpaceOnUse"
       gradientTransform="translate(-1.9665293,-140.33263)" />
    <linearGradient
       id="linearGradient91"
       inkscape:collect="always">
      <stop
         style="stop-color:#880808;stop-opacity:1;"
         offset="0"
         id="stop91" />
      <stop
         style="stop-color:#2c3335;stop-opacity:1;"
         offset="1"
         id="stop92" />
    </linearGradient>
  </defs>
  <g
     inkscape:label="Layer 1"
     inkscape:groupmode="layer"
     id="layer1"
     transform="translate(-58.666666,-43)">
    <g
       id="g3"
       transform="matrix(0.79359975,0,0,0.79359975,3.115468,28.59958)">
      <path
         id="path32"
         style="fill:url(#linearGradient92);stroke-width:0.119015"
         d="m 81.371362,18.145892 c -0.0418,0.0023 -0.06576,0.02756 -0.06576,0.08072 0,0.05329 -0.01016,0.14839 -0.02279,0.21159 -0.02121,0.10604 -0.0021,0.12899 0.248047,0.30013 0.244864,0.16751 0.726864,0.61626 0.85612,0.79688 0.02802,0.03918 0.140025,0.0952 0.248698,0.125 0.304045,0.08337 0.307899,0.08104 0.212239,-0.10742 -0.292683,-0.57664 -1.221109,-1.42073 -1.476562,-1.4069 z m -0.800782,0.24544 c -0.01049,-2.3e-4 -0.0187,0.0015 -0.02474,0.0052 -0.04716,0.029 -0.04163,1.98866 0.0059,2.1595 0.06499,0.23397 0.266057,0.5103 0.455078,0.625 0.291296,0.1768 0.16255,0.24242 -0.164713,0.08399 -0.38694,-0.18731 -0.525402,-0.49863 -0.557292,-1.25586 -0.02889,-0.68545 -0.521423,-0.71497 -3.164062,-0.19011 -0.589426,0.11707 -1.437468,0.26909 -1.884766,0.33789 -1.942659,0.29874 -2.954031,0.81897 -3.576172,1.83985 -0.17068,0.28007 -0.283235,0.3111 -0.639323,0.17643 -0.132941,-0.05027 -0.13322,-0.02937 0.01042,-0.25586 0.210386,-0.33175 0.149734,-0.63654 -0.227214,-1.14583 -0.222911,-0.30118 -0.210137,-0.29733 -0.359375,-0.10743 -0.268837,0.34211 -0.347278,0.687 -0.232422,1.02409 0.0771,0.22627 0.06946,0.23996 -0.08984,0.15756 -0.09441,-0.0488 -0.123047,-0.05132 -0.123047,-0.01172 0,0.09969 0.240475,0.34167 0.38737,0.38997 0.08156,0.02683 0.210739,0.09033 0.287109,0.14063 0.167775,0.11049 0.449998,0.21354 0.584635,0.21354 0.07884,0 0.09261,0.01341 0.06836,0.06901 -0.303106,0.69535 -0.285048,1.71671 0.04883,2.74284 0.160594,0.49357 0.125478,0.65697 -0.233073,1.09179 -0.150719,0.18284 -0.153009,0.85219 -0.0072,1.87826 0.02397,0.1686 0.0236,0.16862 0.450521,0.16862 0.474015,0 0.476563,-0.0021 0.476563,-0.38672 0,-0.58562 0.140803,-0.81912 0.646484,-1.07162 1.474928,-0.7365 1.927527,-1.09391 2.276042,-2.19856 0.03062,0.42727 0.01642,0.57995 -0.371745,1.06705 -0.247276,0.31028 -0.2523,0.30157 0.20638,0.38347 1.625588,0.2904 3.743881,0.23212 3.882162,-0.10677 0.01386,-0.03399 0.0238,-0.05671 0.03255,-0.0612 h 6.51e-4 l 6.51e-4,-6.5e-4 h 6.51e-4 6.51e-4 6.51e-4 c 2.19e-4,3e-5 0.0017,-6e-5 0.002,0 l 6.51e-4,6.5e-4 6.51e-4,6.5e-4 h 6.51e-4 c 0.01645,0.01529 0.03024,0.11512 0.05794,0.35286 0.07006,0.60092 0.254009,1.29898 0.472656,1.79297 0.145999,0.32989 1.079909,0.36797 0.973308,0.03972 -0.343786,-1.05857 0.276216,-2.79279 1.179036,-3.29818 0.06048,-0.03386 0.09934,-0.05529 0.111979,-0.05469 h 6.51e-4 6.51e-4 l 6.51e-4,6.5e-4 h 6.51e-4 l 6.51e-4,6.5e-4 6.51e-4,6.6e-4 v 6.5e-4 6.5e-4 6.5e-4 6.5e-4 c -0.0019,0.01967 -0.06677,0.09738 -0.210286,0.26823 -0.689582,0.82081 -0.685902,0.98904 0.01693,0.8431 0.995793,-0.20676 1.561312,-0.3102 1.708984,-0.3112 0.09079,-7.3e-4 0.302184,-0.07911 0.580079,-0.21549 0.556249,-0.273 1.263885,-0.55548 1.603515,-0.63998 0.263943,-0.06563 0.264268,-0.06575 0.149089,-0.34505 -0.14592,-0.35386 -0.148027,-0.34175 0.08398,-0.50651 0.585119,-0.41551 0.830769,-1.19459 0.445313,-1.41211 -0.988947,-0.55809 -0.965953,-0.53771 -1.317058,-1.17318 -0.524154,-0.94865 -0.699985,-1.15549 -1.167317,-1.3763 -0.265686,-0.12553 -0.885276,-0.32292 -1.014323,-0.32292 -0.0377,0 -0.15184,-0.10703 -0.253256,-0.23763 -0.289794,-0.37316 -1.381767,-1.16715 -1.595052,-1.17187 z m 0.608073,1.0625 c 0.0136,-4.6e-4 0.02837,0.0043 0.04557,0.01432 0.490094,0.28487 0.775646,0.95584 0.5,1.17578 -0.175354,0.1399 -0.18397,0.13864 -0.351562,-0.04687 -0.245825,-0.27209 -0.373857,-1.13718 -0.194011,-1.14323 z m -10.554036,1.62695 c 0.03071,-0.0066 0.06758,0.05576 0.125651,0.19076 0.07288,0.1695 0.07939,0.22173 0.04232,0.33398 -0.128789,0.39022 -0.350427,0.02711 -0.235677,-0.38607 0.02398,-0.08635 0.04382,-0.13351 0.06771,-0.13867 z m 12.65625,0.62435 c 0.222506,0 0.625721,0.3485 0.594401,0.51367 -0.02409,0.12699 -0.41102,0.10396 -0.547526,-0.03255 -0.14412,-0.14415 -0.176908,-0.48112 -0.04687,-0.48112 z m 3.440104,0.16536 -6.51e-4,6.6e-4 -6.51e-4,6.5e-4 c -0.02111,0.02111 0.101831,0.79012 0.156901,0.98177 0.04175,0.1452 0.07457,0.18506 0.185547,0.22526 0.290576,0.10508 0.313595,0.01207 0.121745,-0.49284 -0.06878,-0.18103 -0.411232,-0.71031 -0.460287,-0.7155 h -6.51e-4 -6.51e-4 -6.51e-4 z m -0.531901,0.20053 c -3.25e-4,7e-5 -9.94e-4,5.5e-4 -0.0013,6.5e-4 h -6.51e-4 c -2.75e-4,1.6e-4 -0.0017,0.0011 -0.002,0.0013 l -6.51e-4,6.5e-4 -6.51e-4,6.5e-4 -6.51e-4,6.5e-4 c -0.0095,0.01523 0.0017,0.06792 0.0345,0.15625 0.219645,0.59092 0.04193,1.36438 -0.429037,1.86784 -0.2491,0.26629 -0.249276,0.26635 -0.184896,0.41406 0.0354,0.08123 0.08186,0.19716 0.103516,0.25716 0.07295,0.20223 0.367149,0.15963 0.598307,-0.08658 0.634107,-0.67541 0.663544,-1.63207 0.07422,-2.41276 -0.102603,-0.13594 -0.166533,-0.20276 -0.190104,-0.19987 z m -9.449219,0.2539 h 0.108073 c -0.0081,0.03947 -0.0189,0.07778 -0.03255,0.11459 -0.0354,0.08847 -0.08333,0.15734 -0.143229,0.20638 -0.0953,0.07756 -0.191686,0.12903 -0.289714,0.15494 v 0.22657 c 0.08849,6.6e-4 0.193284,-0.03643 0.314453,-0.11198 0.07352,-0.04634 0.126238,-0.08408 0.157553,-0.11263 0.03131,-0.02854 0.07202,-0.07467 0.122395,-0.13868 0.06671,-0.0858 0.105646,-0.19656 0.116537,-0.33268 l 0.113932,0.0039 c -0.0068,0.0504 -0.01519,0.09709 -0.02604,0.14062 -0.02587,0.10346 -0.05941,0.18133 -0.10026,0.23308 -0.06535,0.08302 -0.113871,0.13929 -0.145182,0.16927 -0.04085,0.04086 -0.09652,0.0852 -0.167318,0.13281 -0.123891,0.08302 -0.252645,0.12915 -0.386068,0.13867 v 0.80925 h -0.140625 v -1.63021 h 0.140625 v 0.35742 c 0.01769,0 0.03686,-0.0035 0.05729,-0.01042 0.04901,-0.01766 0.10291,-0.05118 0.161458,-0.10156 0.08705,-0.07481 0.133154,-0.15824 0.138672,-0.24935 z m 2.565104,0.0046 h 0.140625 v 0.69857 c 0.02587,-0.0047 0.05285,-0.01184 0.08008,-0.02084 0.06263,-0.0204 0.119488,-0.04676 0.171223,-0.07942 0.06535,-0.03947 0.114463,-0.07957 0.147136,-0.12045 0.01089,-0.01233 0.03006,-0.04169 0.05729,-0.08789 0.04902,-0.08173 0.07476,-0.21108 0.07747,-0.38802 h 0.116537 c -0.0081,0.07082 -0.01654,0.13307 -0.02474,0.1875 -0.02178,0.1307 -0.04392,0.21337 -0.06706,0.2474 -0.02314,0.0326 -0.04651,0.06551 -0.06966,0.09831 -0.04902,0.05993 -0.105291,0.11081 -0.169271,0.15299 -0.08985,0.05993 -0.196478,0.10427 -0.319011,0.13281 v 0.8086 h -0.140625 z m 1.020834,0 h 0.141276 v 0.69857 c 0.02587,-0.0047 0.0522,-0.01184 0.07943,-0.02084 0.06263,-0.0204 0.119488,-0.04676 0.171224,-0.07942 0.06535,-0.03947 0.114455,-0.07957 0.147135,-0.12045 0.01089,-0.01233 0.03006,-0.04169 0.05729,-0.08789 0.04901,-0.08173 0.07475,-0.21108 0.07747,-0.38802 h 0.116536 c -0.0081,0.07082 -0.01653,0.13307 -0.02474,0.1875 -0.02178,0.1307 -0.0439,0.21337 -0.06706,0.2474 -0.02314,0.0326 -0.04651,0.06551 -0.06966,0.09831 -0.04902,0.05993 -0.10529,0.11081 -0.169271,0.15299 -0.08985,0.05993 -0.195827,0.10427 -0.318359,0.13281 v 0.8086 h -0.141276 z m -6.083334,0.0019 h 0.140625 c 0.170182,0 0.272605,0.0053 0.306641,0.01628 0.187881,0.05993 0.287286,0.19047 0.298177,0.39193 0.0028,0.05993 -0.01158,0.11921 -0.04297,0.17773 -0.02995,0.05853 -0.07007,0.10701 -0.120442,0.14518 -0.02723,0.02047 -0.0596,0.03608 -0.09635,0.04688 -0.01633,0.004 -0.05107,0.01178 -0.104166,0.02278 0.03676,0.0079 0.07267,0.01507 0.108073,0.02214 0.04085,0.01227 0.0786,0.03204 0.11263,0.05924 0.108915,0.08719 0.162819,0.19737 0.161458,0.33073 -0.0028,0.17019 -0.08185,0.29474 -0.236979,0.3737 -0.05854,0.02993 -0.187292,0.04375 -0.386068,0.04102 h -0.140625 z m 1.008464,0 h 0.141276 c 0.164736,0 0.266507,0.0053 0.30599,0.01628 0.18788,0.05993 0.287285,0.19047 0.298177,0.39193 0.0028,0.05993 -0.01158,0.11921 -0.04297,0.17773 -0.02995,0.05853 -0.07007,0.10701 -0.120443,0.14518 -0.04356,0.0326 -0.110008,0.05896 -0.19987,0.07943 0.0354,0.0047 0.07131,0.01183 0.108073,0.02083 0.03813,0.0079 0.07588,0.02472 0.11263,0.05078 0.108916,0.08034 0.162169,0.19051 0.160808,0.33073 -0.0028,0.17018 -0.0812,0.29473 -0.236328,0.3737 -0.05855,0.02993 -0.187306,0.04375 -0.386068,0.04102 h -0.141276 z m 2.501953,0 h 0.140625 v 0.64714 l 0.33724,-0.33659 0.0651,0.0651 -0.402344,0.40039 0.404297,0.40235 -0.06706,0.0651 -0.33724,-0.33724 v 0.72136 h -0.140625 v -0.71875 l -0.335286,0.33463 -0.06706,-0.06706 0.400391,-0.40039 -0.400391,-0.40234 0.0651,-0.06575 0.33724,0.33723 z m 1.155599,0 h 0.141276 v 1.62761 h -0.141276 v -0.66797 l -0.367188,0.26758 -0.05338,-0.07748 0.420573,-0.30859 v -0.31445 l -0.367188,0.26757 -0.05338,-0.07942 0.420573,-0.30664 z m 0.779948,0.07097 c 0.02451,0 0.0467,0.01195 0.06575,0.03515 0.02042,0.0218 0.0306,0.04513 0.0306,0.06966 0,0.0272 -0.0096,0.05057 -0.02865,0.07097 -0.01905,0.02046 -0.04183,0.0306 -0.06771,0.0306 -0.02451,0 -0.04605,-0.01014 -0.0651,-0.0306 -0.01769,-0.02174 -0.02669,-0.0451 -0.02669,-0.07097 0,-0.02453 0.009,-0.04786 0.02669,-0.06966 0.01905,-0.0232 0.0406,-0.03515 0.0651,-0.03515 z m 1.021484,0 c 0.02451,0 0.04604,0.01195 0.0651,0.03515 0.02042,0.0218 0.0306,0.04513 0.0306,0.06966 0,0.0272 -0.0096,0.05057 -0.02864,0.07097 -0.01905,0.02046 -0.04118,0.0306 -0.06706,0.0306 -0.02451,0 -0.0467,-0.01014 -0.06575,-0.0306 -0.01769,-0.02174 -0.02604,-0.0451 -0.02604,-0.07097 0,-0.02453 0.0083,-0.04786 0.02604,-0.06966 0.01905,-0.0232 0.04125,-0.03515 0.06575,-0.03515 z m -5.317708,0.04492 v 0.625 c 0.141592,0.004 0.260759,-0.03017 0.357422,-0.10222 0.06385,-0.04749 0.09616,-0.12214 0.09766,-0.22395 -1.34e-4,-0.06375 -0.01989,-0.12348 -0.05925,-0.17774 -0.03949,-0.05447 -0.08321,-0.08797 -0.130859,-0.10026 -0.04629,-0.01367 -0.134279,-0.02083 -0.264973,-0.02083 z m -1.009115,6.5e-4 v 0.61002 c 0.15929,0 0.278458,-0.0287 0.357422,-0.08723 0.06399,-0.0476 0.09695,-0.12246 0.09831,-0.22461 0,-0.064 -0.01976,-0.12328 -0.05925,-0.17774 -0.03949,-0.05446 -0.08321,-0.08797 -0.13086,-0.10026 -0.04629,-0.0136 -0.134929,-0.02018 -0.265625,-0.02018 z m 0.202474,0.20768 c 0.02178,0 0.04154,0.0102 0.05924,0.0306 0.01905,0.01907 0.02865,0.0406 0.02865,0.0638 0,0.02454 -0.009,0.04542 -0.02669,0.06315 -0.01633,0.01767 -0.03668,0.0267 -0.0612,0.0267 -0.02178,0 -0.04095,-0.009 -0.05729,-0.0267 -0.01633,-0.01906 -0.02474,-0.03995 -0.02474,-0.06315 0,-0.02313 0.0084,-0.04467 0.02474,-0.0638 0.01633,-0.0204 0.0355,-0.0306 0.05729,-0.0306 z m 13.455078,0.56315 c -0.04556,0.0045 -0.133246,0.03394 -0.301432,0.09115 -0.28498,0.097 -0.285391,0.09648 -0.503255,0.02148 -0.217921,-0.07497 -0.217467,-0.07467 -0.218099,0.0918 -0.0017,0.40748 -0.189397,0.94387 -0.453776,1.29687 -0.120117,0.16036 -0.133658,0.15175 0.348958,0.21745 0.199707,0.0272 0.378024,0.05169 0.395834,0.05469 l 6.51e-4,6.5e-4 6.51e-4,-6.5e-4 c 0.07778,-0.02576 0.779297,-1.56803 0.779297,-1.7168 0,-0.04074 -0.0033,-0.0611 -0.04883,-0.05664 z m -12.648437,0.01107 v 0.61849 c 0.151121,0 0.261886,-0.02033 0.332682,-0.0612 0.03676,-0.0218 0.06729,-0.05654 0.0918,-0.10417 0.02587,-0.049 0.03723,-0.10047 0.03451,-0.15494 -0.0055,-0.10348 -0.03541,-0.17715 -0.08984,-0.22071 -0.04221,-0.034 -0.09907,-0.05612 -0.171224,-0.06705 -0.04221,-0.0069 -0.108063,-0.01042 -0.197917,-0.01042 z m -1.009115,0.01628 v 0.60221 c 0.151122,0 0.261887,-0.02033 0.332683,-0.0612 0.03676,-0.0218 0.06794,-0.05654 0.09245,-0.10417 0.02587,-0.049 0.03723,-0.10047 0.0345,-0.15494 -0.0055,-0.09671 -0.0354,-0.16919 -0.08984,-0.2168 -0.05037,-0.04353 -0.173736,-0.0651 -0.369793,-0.0651 z m 0.210287,0.19791 c 0.02178,0 0.04154,0.01013 0.05924,0.0306 0.01905,0.01907 0.02865,0.0406 0.02865,0.0638 0,0.0232 -0.009,0.04409 -0.02669,0.06315 -0.01769,0.01767 -0.03806,0.0267 -0.0612,0.0267 -0.02178,0 -0.04154,-0.009 -0.05925,-0.0267 -0.01633,-0.01906 -0.02409,-0.03995 -0.02409,-0.06315 0,-0.02313 0.0078,-0.04466 0.02409,-0.0638 0.01769,-0.02047 0.03745,-0.0306 0.05925,-0.0306 z m 7.38737,2.78386 c -0.01533,0 -0.258031,0.04481 -0.539714,0.09961 -0.281684,0.05483 -0.581918,0.1129 -0.667318,0.1289 -0.355116,0.06687 -0.285264,0.39769 0.254558,1.20052 0.298389,0.44377 0.6224,0.84596 0.70638,0.87696 0.03678,0.0131 0.191664,0.01872 0.344401,0.01172 0.152737,-0.0068 0.344983,-0.01333 0.427083,-0.01433 0.14925,-0.0022 0.149139,-0.0023 0.05534,-0.15104 -0.260545,-0.41322 -0.472,-1.14202 -0.52474,-1.80534 -0.01398,-0.176 -0.03666,-0.32258 -0.05208,-0.3444 -2.58e-4,-3e-4 -10e-4,-0.0017 -0.0013,-0.002 h -6.51e-4 l -6.51e-4,-6.5e-4 h -6.51e-4 z m -7.779297,0.22786 c -0.114191,4.8e-4 -0.166155,0.04281 -0.283854,0.13867 -0.115083,0.09373 -0.274478,0.21082 -0.354818,0.26042 -0.14558,0.08996 -0.146455,0.0907 -0.09049,0.22461 0.112097,0.26828 0.478175,0.84255 0.804037,1.26107 0.199189,0.25585 0.176721,0.24987 0.785807,0.20247 0.322148,-0.02508 0.322458,-0.02519 0.171875,-0.347 -0.371615,-0.79417 -0.378826,-0.87965 -0.0944,-1.18685 0.285934,-0.3088 0.312736,-0.38477 0.136068,-0.38477 -0.06531,0 -0.350195,-0.04506 -0.633464,-0.10026 -0.225322,-0.04393 -0.35194,-0.06873 -0.440755,-0.06836 z" />
      <path
         d="m 93.669065,26.386079 q 0.5221,0 0.92468,-0.213873 0.40887,-0.220162 0.66678,-0.603875 0.2579,-0.383712 0.39,-0.880651 0.1321,-0.503229 0.1321,-1.094524 0,-1.258073 -0.49065,-1.968884 -0.48436,-0.710812 -1.52227,-0.710812 -0.42774,0 -0.74855,0.157259 -0.320811,0.157259 -0.547264,0.390003 V 21.039267 H 91.4234 l -1.352429,0.371132 v 0.673069 l 0.377422,0.232744 v 5.969558 h 2.025498 v -2.163886 q 0.226453,0.113226 0.528394,0.188711 0.30193,0.07548 0.66678,0.07548 z m -0.924688,-0.874361 q -0.0629,0 -0.132098,-0.0063 -0.0629,-0.0063 -0.138388,-0.02516 v -3.321313 q 0.220163,-0.125808 0.427744,-0.125808 0.30194,0 0.49065,0.276776 0.195,0.276777 0.195,0.84291 v 1.069362 q 0,1.289525 -0.842908,1.289525 z m 6.994888,0.874361 q 0.522105,0 0.924685,-0.213873 0.40888,-0.220162 0.66678,-0.603875 0.25791,-0.383712 0.39001,-0.880651 0.13209,-0.503229 0.13209,-1.094524 0,-1.258073 -0.49065,-1.968884 -0.48435,-0.710812 -1.522265,-0.710812 -0.24533,0 -0.46549,0.05661 -0.21387,0.05661 -0.38371,0.150969 -0.16984,0.09436 -0.28936,0.195002 -0.11952,0.100645 -0.22016,0.213872 v -3.384217 h -0.40888 l -2.0192,0.314518 v 0.585004 l 0.37742,0.226453 v 7.114405 h 2.05066 v -0.295647 q 0.55355,0.295647 1.25807,0.295647 z m -0.92468,-0.874361 q -0.0755,0 -0.15726,-0.0063 -0.0818,-0.01258 -0.17613,-0.03774 v -3.27099 q 0.23903,-0.16984 0.47177,-0.16984 0.30823,0 0.50323,0.295647 0.2013,0.289357 0.2013,0.830329 v 1.069362 q 0,1.289525 -0.84291,1.289525 z m 9.083275,0.874361 v -3.667284 q 0.006,-0.0063 0.0629,-0.05661 0.0629,-0.05032 0.0755,-0.0629 0.0189,-0.01258 0.0692,-0.05032 0.0566,-0.03774 0.0818,-0.05032 0.0314,-0.01258 0.0818,-0.03774 0.0503,-0.02516 0.0944,-0.03145 0.0503,-0.0063 0.10065,-0.0063 0.5221,0 0.50323,0.591295 v 3.371636 h 2.07582 V 23.19687 q 0,-0.04403 0.006,-0.119517 0,-0.07548 0,-0.113226 0,-1.107105 -0.35855,-1.578882 -0.35226,-0.471778 -1.21404,-0.471778 -0.24533,0 -0.50323,0.100646 -0.25162,0.09436 -0.43404,0.232744 -0.18242,0.132097 -0.33339,0.270485 -0.14468,0.138388 -0.22016,0.239034 l -0.0755,0.09436 V 18.14571 h -0.40887 l -2.01921,0.314518 v 0.585004 l 0.37743,0.226453 v 7.114405 z m -3.20808,0 v -4.239707 h 0.81145 v -1.107105 h -0.81145 v -0.899522 q 0,-0.748554 0.48436,-0.824038 0.0692,-0.01258 0.15096,-0.01258 0.32081,0 0.62275,0.150969 l 0.23903,-0.956136 q -0.0943,-0.09436 -0.47177,-0.207582 -0.37742,-0.113226 -0.80517,-0.113226 -0.47807,0 -0.86807,0.119517 -0.38371,0.113226 -0.70452,0.371131 -0.31452,0.257905 -0.49065,0.723392 -0.17613,0.465488 -0.17613,1.100815 v 0.547261 l -0.63533,0.270486 v 0.836619 h 0.61017 v 4.239707 z m 9.67459,-0.622746 q -0.57872,0 -0.57872,-1.18888 v -2.044369 q 0,-0.402583 0.15097,-0.622746 0.15097,-0.220163 0.42146,-0.220163 0.57871,0 0.57871,1.226622 v 1.987755 q 0,0.402584 -0.15097,0.635327 -0.14468,0.226454 -0.42145,0.226454 z m -0.0503,0.754844 q 1.49081,0 2.18275,-0.691941 0.69823,-0.69194 0.69823,-2.138724 0,-1.396462 -0.66049,-2.082112 -0.65419,-0.69194 -2.13243,-0.69194 -1.51598,0 -2.18905,0.723392 -0.67307,0.717102 -0.67307,2.138725 0,1.434203 0.66678,2.088402 0.66678,0.654198 2.10728,0.654198 z m 5.98843,2.088401 q 2.61679,0 2.61679,-2.453243 v -4.201964 l 0.37742,-0.264196 v -0.591294 l -1.18259,-0.05661 h -0.96242 l -0.10694,0.295648 q -0.57242,-0.34597 -1.35243,-0.34597 -0.51581,0 -0.92468,0.220162 -0.40888,0.213873 -0.66678,0.597585 -0.25161,0.377422 -0.38371,0.880651 -0.1321,0.496939 -0.1321,1.088234 0,1.264364 0.48436,1.975175 0.48436,0.710811 1.52227,0.710811 0.76742,0 1.3021,-0.553552 v 0.534681 q -0.006,0.138388 -0.0252,0.251615 -0.0126,0.113227 -0.0755,0.251615 -0.0629,0.144678 -0.16355,0.239034 -0.10065,0.100645 -0.28936,0.163549 -0.18242,0.06919 -0.43404,0.06919 -0.25161,0 -0.60387,-0.100646 -0.35226,-0.100646 -0.50952,-0.220163 l -0.39629,0.861781 q 0.18242,0.201291 0.79887,0.421454 0.61646,0.226453 1.10711,0.226453 z m 0.20129,-3.289861 q -0.43404,0 -0.62275,-0.496939 -0.10693,-0.289357 -0.10693,-0.691941 v -0.975006 q 0.006,-1.283235 0.84291,-1.289526 0.1258,0 0.27677,0.03145 v 3.315023 q -0.20129,0.106937 -0.39,0.106937 z m 5.70535,3.289861 q 2.6168,0 2.6168,-2.453243 v -4.201964 l 0.37742,-0.264196 v -0.591294 l -1.18259,-0.05661 h -0.96243 l -0.10693,0.295648 q -0.57243,-0.34597 -1.35243,-0.34597 -0.51581,0 -0.92468,0.220162 -0.40888,0.213873 -0.66678,0.597585 -0.25162,0.377422 -0.38372,0.880651 -0.13209,0.496939 -0.13209,1.088234 0,1.264364 0.48435,1.975175 0.48436,0.710811 1.52227,0.710811 0.76743,0 1.30211,-0.553552 v 0.534681 q -0.006,0.138388 -0.0252,0.251615 -0.0126,0.113227 -0.0755,0.251615 -0.0629,0.144678 -0.16355,0.239034 -0.10064,0.100645 -0.28935,0.163549 -0.18242,0.06919 -0.43404,0.06919 -0.25161,0 -0.60387,-0.100646 -0.35226,-0.100646 -0.50952,-0.220163 l -0.3963,0.861781 q 0.18242,0.201291 0.79888,0.421454 0.61646,0.226453 1.1071,0.226453 z m 0.2013,-3.289861 q -0.43404,0 -0.62275,-0.496939 -0.10694,-0.289357 -0.10694,-0.691941 v -0.975006 q 0.006,-1.283235 0.84291,-1.289526 0.12581,0 0.27678,0.03145 v 3.315023 q -0.20129,0.106937 -0.39,0.106937 z"
         id="text92"
         style="font-size:18.8711px;line-height:1.25;font-family:Jomhuria;-inkscape-font-specification:'Jomhuria, Normal';text-align:center;letter-spacing:0px;text-anchor:middle;fill:#cc3030;stroke-width:1.28667"
         aria-label="pbfhogg" />
    </g>
  </g>
</svg>
